Flosser.ufo
<glyph name="exclam" format="2">
  <advance width="403"/>
  <unicode hex="0021"/>
  <outline>
    <contour>
      <point x="25" y="191" type="line"/>
      <point x="35" y="94" type="line"/>
      <point x="44" y="91"/>
      <point x="61" y="86"/>
      <point x="69" y="83" type="qcurve"/>
      <point x="104" y="74"/>
      <point x="176" y="67"/>
      <point x="211" y="68" type="qcurve"/>
      <point x="247" y="68"/>
      <point x="280" y="74" type="qcurve" smooth="yes"/>
      <point x="289" y="76"/>
      <point x="307" y="77"/>
      <point x="315" y="79" type="qcurve"/>
      <point x="318" y="105"/>
      <point x="322" y="156"/>
      <point x="323" y="182" type="qcurve"/>
      <point x="305" y="180"/>
      <point x="268" y="176"/>
      <point x="249" y="176" type="qcurve"/>
      <point x="211" y="174"/>
      <point x="135" y="176"/>
      <point x="97" y="180" type="qcurve" smooth="yes"/>
      <point x="88" y="181"/>
      <point x="70" y="183"/>
      <point x="61" y="184" type="qcurve"/>
    </contour>
    <contour>
      <point x="22" y="257" type="qcurve"/>
      <point x="41" y="255"/>
      <point x="76" y="253"/>
      <point x="95" y="252" type="qcurve" smooth="yes"/>
      <point x="153" y="249"/>
      <point x="267" y="250"/>
      <point x="326" y="253" type="qcurve"/>
      <point x="328" y="263"/>
      <point x="327" y="279"/>
      <point x="327" y="288" type="qcurve" smooth="yes"/>
      <point x="327" y="293"/>
      <point x="328" y="302"/>
      <point x="328" y="307" type="qcurve"/>
      <point x="330" y="391"/>
      <point x="320" y="556"/>
      <point x="311" y="641" type="qcurve"/>
      <point x="245" y="660"/>
      <point x="105" y="655"/>
      <point x="39" y="630" type="qcurve"/>
      <point x="31" y="560"/>
      <point x="20" y="417"/>
      <point x="20" y="345" type="qcurve"/>
      <point x="19" y="323"/>
      <point x="21" y="279"/>
    </contour>
    <contour>
      <point x="67" y="193" type="line"/>
      <point x="67" y="200" type="line"/>
      <point x="66" y="209"/>
      <point x="65" y="232"/>
      <point x="65" y="243" type="qcurve"/>
      <point x="56" y="243"/>
      <point x="38" y="245"/>
      <point x="30" y="246" type="qcurve"/>
      <point x="28" y="246"/>
      <point x="24" y="247"/>
      <point x="22" y="247" type="qcurve"/>
      <point x="12" y="257" type="line"/>
      <point x="12" y="262"/>
      <point x="11" y="273"/>
      <point x="11" y="278" type="qcurve"/>
      <point x="10" y="293"/>
      <point x="9" y="330"/>
      <point x="10" y="345" type="qcurve"/>
      <point x="10" y="417"/>
      <point x="21" y="563"/>
      <point x="30" y="637" type="qcurve"/>
      <point x="71" y="652"/>
      <point x="152" y="668"/>
      <point x="192" y="668" type="qcurve" smooth="yes"/>
      <point x="224" y="668"/>
      <point x="288" y="658"/>
      <point x="320" y="649" type="qcurve"/>
      <point x="327" y="582" type="line"/>
      <point x="339" y="580"/>
      <point x="363" y="574"/>
      <point x="376" y="571" type="qcurve"/>
      <point x="394" y="413"/>
      <point x="394" y="267" type="qcurve" smooth="yes"/>
      <point x="394" y="220" type="line"/>
      <point x="394" y="218"/>
      <point x="393" y="213"/>
      <point x="393" y="210" type="qcurve" smooth="yes"/>
      <point x="393" y="201" type="line" smooth="yes"/>
      <point x="393" y="195"/>
      <point x="393" y="180"/>
      <point x="391" y="165" type="qcurve"/>
      <point x="332" y="162" type="line"/>
      <point x="328" y="108" type="line"/>
      <point x="343" y="109"/>
      <point x="374" y="113"/>
      <point x="389" y="115" type="qcurve"/>
      <point x="388" y="81"/>
      <point x="383" y="20"/>
      <point x="380" y="-8" type="qcurve"/>
      <point x="355" y="-12" type="line"/>
      <point x="338" y="-14" type="line"/>
      <point x="322" y="-17"/>
      <point x="285" y="-20"/>
      <point x="267" y="-20" type="qcurve"/>
      <point x="230" y="-21"/>
      <point x="157" y="-14"/>
      <point x="122" y="-5" type="qcurve"/>
      <point x="102" y="2" type="line"/>
      <point x="103" y="1" type="line"/>
      <point x="101" y="1"/>
      <point x="89" y="6"/>
      <point x="82" y="9" type="qcurve"/>
      <point x="75" y="70" type="line"/>
      <point x="66" y="73" type="line"/>
      <point x="46" y="80" type="line"/>
      <point x="47" y="79" type="line"/>
      <point x="45" y="79"/>
      <point x="33" y="84"/>
      <point x="26" y="87" type="qcurve"/>
      <point x="14" y="203" type="line"/>
      <point x="63" y="194" type="line"/>
      <point x="62" y="194" type="line"/>
    </contour>
  </outline>
</glyph>
<glyph name="quotedbl" format="2">
  <advance width="576"/>
  <unicode hex="0022"/>
  <outline>
    <contour>
      <point x="21" y="553" type="qcurve" smooth="yes"/>
      <point x="20" y="536"/>
      <point x="24" y="502"/>
      <point x="29" y="485" type="qcurve"/>
      <point x="32" y="477" type="line"/>
      <point x="60" y="475"/>
      <point x="115" y="473"/>
      <point x="143" y="471" type="qcurve"/>
      <point x="145" y="473"/>
      <point x="151" y="478"/>
      <point x="154" y="480" type="qcurve" smooth="yes"/>
      <point x="177" y="500"/>
      <point x="224" y="534"/>
      <point x="247" y="554" type="qcurve"/>
      <point x="247" y="582"/>
      <point x="249" y="637"/>
      <point x="251" y="665" type="qcurve"/>
      <point x="200" y="664"/>
      <point x="99" y="659"/>
      <point x="48" y="654" type="qcurve"/>
      <point x="37" y="630"/>
      <point x="22" y="579"/>
    </contour>
    <contour>
      <point x="269" y="469" type="line"/>
      <point x="299" y="469"/>
      <point x="357" y="470"/>
      <point x="386" y="470" type="qcurve"/>
      <point x="391" y="472"/>
      <point x="398" y="477"/>
      <point x="402" y="480" type="qcurve" smooth="yes"/>
      <point x="427" y="498"/>
      <point x="475" y="533"/>
      <point x="499" y="553" type="qcurve"/>
      <point x="498" y="579"/>
      <point x="485" y="631"/>
      <point x="476" y="656" type="qcurve"/>
      <point x="374" y="665"/>
      <point x="269" y="665" type="qcurve"/>
      <point x="267" y="572"/>
      <point x="269" y="478" type="qcurve"/>
    </contour>
    <contour>
      <point x="315" y="400" type="line"/>
      <point x="314" y="415"/>
      <point x="314" y="445"/>
      <point x="314" y="460" type="qcurve"/>
      <point x="310" y="460"/>
      <point x="304" y="459"/>
      <point x="299" y="459" type="qcurve"/>
      <point x="289" y="451"/>
      <point x="268" y="435"/>
      <point x="259" y="428" type="qcurve" smooth="yes"/>
      <point x="218" y="395" type="line"/>
      <point x="213" y="393"/>
      <point x="206" y="386"/>
      <point x="203" y="383" type="qcurve"/>
      <point x="162" y="385" type="line" smooth="yes"/>
      <point x="143" y="386"/>
      <point x="100" y="387"/>
      <point x="81" y="389" type="qcurve"/>
      <point x="80" y="390"/>
      <point x="79" y="393" type="qcurve" smooth="yes"/>
      <point x="78" y="395"/>
      <point x="76" y="400"/>
      <point x="75" y="403" type="qcurve" smooth="yes"/>
      <point x="70" y="417"/>
      <point x="67" y="448"/>
      <point x="67" y="464" type="qcurve"/>
      <point x="25" y="467" type="line"/>
      <point x="24" y="468"/>
      <point x="23" y="471" type="qcurve" smooth="yes"/>
      <point x="22" y="473"/>
      <point x="20" y="478"/>
      <point x="19" y="481" type="qcurve" smooth="yes"/>
      <point x="9" y="513"/>
      <point x="11" y="553" type="qcurve" smooth="yes"/>
      <point x="12" y="580"/>
      <point x="29" y="635"/>
      <point x="42" y="663" type="qcurve"/>
      <point x="96" y="669"/>
      <point x="205" y="674"/>
      <point x="259" y="675" type="qcurve"/>
      <point x="381" y="675"/>
      <point x="483" y="666" type="qcurve"/>
      <point x="490" y="648"/>
      <point x="501" y="611"/>
      <point x="504" y="591" type="qcurve"/>
      <point x="539" y="588" type="line"/>
      <point x="550" y="560"/>
      <point x="564" y="501"/>
      <point x="565" y="470" type="qcurve"/>
      <point x="543" y="452"/>
      <point x="495" y="417"/>
      <point x="472" y="400" type="qcurve"/>
      <point x="473" y="401" type="line"/>
      <point x="464" y="394" type="line" smooth="yes"/>
      <point x="460" y="391"/>
      <point x="452" y="385"/>
      <point x="444" y="382" type="qcurve"/>
      <point x="384" y="382" type="line" smooth="yes"/>
      <point x="370" y="382"/>
      <point x="330" y="381"/>
      <point x="315" y="381" type="qcurve"/>
    </contour>
    <contour>
      <point x="258" y="615" type="line"/>
      <point x="257" y="610"/>
      <point x="257" y="601"/>
      <point x="257" y="596" type="qcurve"/>
      <point x="258" y="596" type="line"/>
    </contour>
  </outline>
</glyph>
<glyph name="numbersign" format="2">
  <advance width="633"/>
  <unicode hex="0023"/>
  <outline>
    <contour>
      <point x="441" y="224" type="qcurve"/>
      <point x="467" y="224"/>
      <point x="522" y="228"/>
      <point x="549" y="230" type="qcurve"/>
      <point x="551" y="256"/>
      <point x="554" y="309"/>
      <point x="555" y="335" type="qcurve"/>
      <point x="527" y="335"/>
      <point x="472" y="333"/>
      <point x="445" y="334" type="qcurve"/>
      <point x="445" y="353"/>
      <point x="444" y="391"/>
      <point x="444" y="411" type="qcurve"/>
      <point x="472" y="411"/>
      <point x="527" y="410"/>
      <point x="556" y="410" type="qcurve"/>
      <point x="554" y="436"/>
      <point x="550" y="488"/>
      <point x="548" y="514" type="qcurve"/>
      <point x="521" y="516"/>
      <point x="467" y="519"/>
      <point x="440" y="521" type="qcurve"/>
      <point x="437" y="548"/>
      <point x="434" y="604"/>
      <point x="431" y="631" type="qcurve"/>
      <point x="405" y="633"/>
      <point x="352" y="637"/>
      <point x="326" y="638" type="qcurve"/>
      <point x="327" y="609"/>
      <point x="328" y="553"/>
      <point x="328" y="525" type="qcurve"/>
      <point x="308" y="525"/>
      <point x="268" y="524"/>
      <point x="248" y="524" type="qcurve"/>
      <point x="250" y="581"/>
      <point x="254" y="639" type="qcurve"/>
      <point x="228" y="638"/>
      <point x="178" y="633"/>
      <point x="153" y="630" type="qcurve"/>
      <point x="148" y="603"/>
      <point x="141" y="548"/>
      <point x="139" y="520" type="qcurve"/>
      <point x="113" y="518"/>
      <point x="61" y="514"/>
      <point x="35" y="512" type="qcurve"/>
      <point x="30" y="486"/>
      <point x="25" y="436"/>
      <point x="23" y="410" type="qcurve"/>
      <point x="132" y="411" type="line"/>
      <point x="132" y="335" type="line"/>
      <point x="103" y="335"/>
      <point x="49" y="337"/>
      <point x="20" y="338" type="qcurve"/>
      <point x="22" y="312"/>
      <point x="24" y="261"/>
      <point x="28" y="235" type="qcurve"/>
      <point x="82" y="229"/>
      <point x="136" y="226" type="qcurve"/>
      <point x="137" y="202"/>
      <point x="142" y="154"/>
      <point x="144" y="130" type="qcurve"/>
      <point x="170" y="127"/>
      <point x="225" y="124"/>
      <point x="251" y="122" type="qcurve"/>
      <point x="251" y="146"/>
      <point x="247" y="196"/>
      <point x="247" y="221" type="qcurve"/>
      <point x="328" y="221" type="line"/>
      <point x="327" y="195"/>
      <point x="328" y="144"/>
      <point x="327" y="119" type="qcurve"/>
      <point x="353" y="119"/>
      <point x="407" y="120"/>
      <point x="434" y="124" type="qcurve"/>
      <point x="436" y="149"/>
      <point x="439" y="199"/>
    </contour>
    <contour>
      <point x="246" y="412" type="line"/>
      <point x="266" y="413"/>
      <point x="307" y="412"/>
      <point x="328" y="412" type="qcurve"/>
      <point x="328" y="334" type="line"/>
      <point x="246" y="334" type="line"/>
    </contour>
    <contour>
      <point x="503" y="95" type="line"/>
      <point x="500" y="37" type="line"/>
      <point x="468" y="32"/>
      <point x="404" y="31"/>
      <point x="373" y="31" type="qcurve"/>
      <point x="373" y="92" type="line" smooth="yes"/>
      <point x="373" y="97"/>
      <point x="372" y="105"/>
      <point x="372" y="109" type="qcurve"/>
      <point x="317" y="109" type="line"/>
      <point x="317" y="133" type="line"/>
      <point x="313" y="133" type="line"/>
      <point x="313" y="122"/>
      <point x="314" y="105"/>
      <point x="315" y="94" type="qcurve" smooth="yes"/>
      <point x="316" y="82"/>
      <point x="317" y="45"/>
      <point x="317" y="33" type="qcurve"/>
      <point x="263" y="37" type="line" smooth="yes"/>
      <point x="247" y="38"/>
      <point x="206" y="41"/>
      <point x="191" y="43" type="qcurve"/>
      <point x="186" y="92" type="line"/>
      <point x="183" y="116" type="line"/>
      <point x="170" y="118"/>
      <point x="145" y="119"/>
      <point x="135" y="121" type="qcurve"/>
      <point x="133" y="142" type="line"/>
      <point x="75" y="148" type="line"/>
      <point x="72" y="167"/>
      <point x="68" y="203"/>
      <point x="67" y="221" type="qcurve"/>
      <point x="54" y="222"/>
      <point x="30" y="224"/>
      <point x="19" y="226" type="qcurve"/>
      <point x="15" y="250"/>
      <point x="12" y="295"/>
      <point x="11" y="317" type="qcurve"/>
      <point x="11" y="322"/>
      <point x="10" y="343"/>
      <point x="10" y="348" type="qcurve"/>
      <point x="20" y="348"/>
      <point x="48" y="347"/>
      <point x="58" y="347" type="qcurve" smooth="yes"/>
      <point x="61" y="347"/>
      <point x="67" y="346"/>
      <point x="70" y="346" type="qcurve"/>
      <point x="70" y="349" type="line"/>
      <point x="71" y="361"/>
      <point x="73" y="386"/>
      <point x="75" y="400" type="qcurve"/>
      <point x="13" y="400" type="line"/>
      <point x="13" y="405"/>
      <point x="14" y="422"/>
      <point x="14" y="427" type="qcurve"/>
      <point x="16" y="449"/>
      <point x="22" y="496"/>
      <point x="27" y="522" type="qcurve"/>
      <point x="29" y="522"/>
      <point x="40" y="523"/>
      <point x="42" y="523" type="qcurve"/>
      <point x="65" y="525"/>
      <point x="106" y="528"/>
      <point x="129" y="530" type="qcurve"/>
      <point x="131" y="558"/>
      <point x="139" y="612"/>
      <point x="144" y="639" type="qcurve"/>
      <point x="170" y="642"/>
      <point x="227" y="648"/>
      <point x="265" y="649" type="qcurve"/>
      <point x="263" y="628"/>
      <point x="260" y="587"/>
      <point x="259" y="567" type="qcurve"/>
      <point x="273" y="569"/>
      <point x="301" y="570"/>
      <point x="318" y="571" type="qcurve"/>
      <point x="317" y="591"/>
      <point x="316" y="630"/>
      <point x="316" y="648" type="qcurve"/>
      <point x="342" y="647"/>
      <point x="414" y="642"/>
      <point x="440" y="640" type="qcurve"/>
      <point x="442" y="626"/>
      <point x="444" y="591"/>
      <point x="445" y="577" type="qcurve"/>
      <point x="445" y="566" type="line"/>
      <point x="459" y="564"/>
      <point x="485" y="563"/>
      <point x="496" y="562" type="qcurve"/>
      <point x="499" y="527" type="line"/>
      <point x="557" y="524" type="line"/>
      <point x="563" y="448" type="line"/>
      <point x="613" y="446" type="line"/>
      <point x="614" y="433"/>
      <point x="617" y="400"/>
      <point x="620" y="367"/>
      <point x="622" y="335"/>
      <point x="623" y="322" type="qcurve"/>
      <point x="610" y="322"/>
      <point x="578" y="323"/>
      <point x="564" y="323" type="qcurve"/>
      <point x="564" y="309"/>
      <point x="563" y="278"/>
      <point x="561" y="266" type="qcurve"/>
      <point x="566" y="266" type="line" smooth="yes"/>
      <point x="577" y="266"/>
      <point x="610" y="267"/>
      <point x="621" y="267" type="qcurve"/>
      <point x="620" y="250"/>
      <point x="619" y="203"/>
      <point x="617" y="186" type="qcurve"/>
      <point x="617" y="177"/>
      <point x="615" y="150"/>
      <point x="615" y="143" type="qcurve"/>
      <point x="588" y="141"/>
      <point x="533" y="136"/>
      <point x="507" y="136" type="qcurve"/>
    </contour>
  </outline>
</glyph>
<glyph name="dollar" format="2">
  <advance width="933"/>
  <unicode hex="0024"/>
  <outline>
    <contour>
      <point x="506" y="-30" type="qcurve"/>
      <point x="507" y="-6"/>
      <point x="509" y="42"/>
      <point x="509" y="66" type="qcurve"/>
      <point x="575" y="66"/>
      <point x="703" y="71"/>
      <point x="767" y="78" type="qcurve"/>
      <point x="784" y="79"/>
      <point x="804" y="91" type="qcurve" smooth="yes"/>
      <point x="809" y="94"/>
      <point x="820" y="102"/>
      <point x="823" y="107" type="qcurve"/>
      <point x="843" y="126"/>
      <point x="845" y="152" type="qcurve"/>
      <point x="851" y="200"/>
      <point x="856" y="297"/>
      <point x="856" y="345" type="qcurve" smooth="yes"/>
      <point x="856" y="360"/>
      <point x="844" y="385"/>
      <point x="823" y="405"/>
      <point x="796" y="417"/>
      <point x="782" y="417" type="qcurve"/>
      <point x="666" y="420"/>
      <point x="435" y="423"/>
      <point x="319" y="421" type="qcurve"/>
      <point x="319" y="486"/>
      <point x="322" y="551" type="qcurve"/>
      <point x="380" y="553"/>
      <point x="494" y="552"/>
      <point x="552" y="551" type="qcurve"/>
      <point x="553" y="535"/>
      <point x="553" y="506"/>
      <point x="553" y="490" type="qcurve"/>
      <point x="628" y="488"/>
      <point x="775" y="483"/>
      <point x="850" y="479" type="qcurve"/>
      <point x="847" y="502"/>
      <point x="843" y="547"/>
      <point x="839" y="570" type="qcurve" smooth="yes"/>
      <point x="833" y="599"/>
      <point x="789" y="640"/>
      <point x="760" y="644" type="qcurve"/>
      <point x="697" y="651"/>
      <point x="570" y="660"/>
      <point x="506" y="661" type="qcurve"/>
      <point x="504" y="753" type="line"/>
      <point x="464" y="755"/>
      <point x="387" y="754"/>
      <point x="347" y="752" type="qcurve"/>
      <point x="346" y="729"/>
      <point x="343" y="683"/>
      <point x="342" y="660" type="qcurve"/>
      <point x="285" y="657"/>
      <point x="175" y="650"/>
      <point x="119" y="642" type="qcurve" smooth="yes"/>
      <point x="90" y="638"/>
      <point x="47" y="597"/>
      <point x="39" y="569" type="qcurve"/>
      <point x="31" y="522"/>
      <point x="22" y="430"/>
      <point x="20" y="382" type="qcurve" smooth="yes"/>
      <point x="19" y="368"/>
      <point x="30" y="342"/>
      <point x="50" y="322"/>
      <point x="76" y="309"/>
      <point x="90" y="309" type="qcurve"/>
      <point x="207" y="307"/>
      <point x="439" y="305"/>
      <point x="555" y="306" type="qcurve"/>
      <point x="555" y="273"/>
      <point x="554" y="207"/>
      <point x="554" y="174" type="qcurve"/>
      <point x="495" y="173"/>
      <point x="379" y="173"/>
      <point x="320" y="175" type="qcurve"/>
      <point x="310" y="176"/>
      <point x="293" y="174"/>
      <point x="282" y="175" type="qcurve"/>
      <point x="281" y="194"/>
      <point x="279" y="232"/>
      <point x="279" y="250" type="qcurve"/>
      <point x="215" y="252"/>
      <point x="87" y="256"/>
      <point x="22" y="260" type="qcurve"/>
      <point x="23" y="234"/>
      <point x="28" y="185"/>
      <point x="31" y="159" type="qcurve"/>
      <point x="36" y="130"/>
      <point x="81" y="89"/>
      <point x="110" y="84" type="qcurve"/>
      <point x="168" y="77"/>
      <point x="283" y="69"/>
      <point x="341" y="67" type="qcurve"/>
      <point x="343" y="43"/>
      <point x="344" y="-4"/>
      <point x="346" y="-28" type="qcurve"/>
      <point x="387" y="-30"/>
      <point x="466" y="-32"/>
    </contour>
    <contour>
      <point x="563" y="-118" type="line"/>
      <point x="551" y="-119"/>
      <point x="527" y="-119"/>
      <point x="515" y="-119" type="qcurve" smooth="yes"/>
      <point x="486" y="-119"/>
      <point x="422" y="-117"/>
      <point x="393" y="-116" type="qcurve"/>
      <point x="391" y="-102"/>
      <point x="390" y="-64"/>
      <point x="389" y="-50" type="qcurve"/>
      <point x="389" y="-40" type="line"/>
      <point x="375" y="-39"/>
      <point x="349" y="-38"/>
      <point x="337" y="-38" type="qcurve"/>
      <point x="336" y="-33"/>
      <point x="335" y="-23"/>
      <point x="335" y="-18" type="qcurve"/>
      <point x="292" y="-16"/>
      <point x="207" y="-9"/>
      <point x="164" y="-4" type="qcurve"/>
      <point x="132" y="1"/>
      <point x="83" y="47"/>
      <point x="77" y="79" type="qcurve"/>
      <point x="76" y="81"/>
      <point x="76" y="85" type="qcurve"/>
      <point x="55" y="96"/>
      <point x="26" y="134"/>
      <point x="21" y="157" type="qcurve"/>
      <point x="18" y="181"/>
      <point x="13" y="232"/>
      <point x="12" y="271" type="qcurve"/>
      <point x="74" y="267" type="line"/>
      <point x="70" y="275"/>
      <point x="65" y="294"/>
      <point x="66" y="303" type="qcurve"/>
      <point x="42" y="312"/>
      <point x="9" y="356"/>
      <point x="10" y="382" type="qcurve" smooth="yes"/>
      <point x="12" y="433"/>
      <point x="21" y="527"/>
      <point x="29" y="573" type="qcurve"/>
      <point x="37" y="602"/>
      <point x="86" y="647"/>
      <point x="118" y="652" type="qcurve" smooth="yes"/>
      <point x="171" y="660"/>
      <point x="278" y="667"/>
      <point x="332" y="670" type="qcurve"/>
      <point x="332" y="678"/>
      <point x="333" y="699"/>
      <point x="334" y="707" type="qcurve" smooth="yes"/>
      <point x="338" y="762" type="line"/>
      <point x="363" y="763"/>
      <point x="420" y="764"/>
      <point x="444" y="764" type="qcurve" smooth="yes"/>
      <point x="459" y="764"/>
      <point x="499" y="763"/>
      <point x="514" y="762" type="qcurve"/>
      <point x="515" y="686" type="line"/>
      <point x="570" y="684" type="line"/>
      <point x="570" y="669" type="line"/>
      <point x="618" y="667"/>
      <point x="713" y="659"/>
      <point x="761" y="654" type="qcurve" smooth="yes"/>
      <point x="793" y="650"/>
      <point x="842" y="604"/>
      <point x="849" y="572" type="qcurve"/>
      <point x="849" y="567"/>
      <point x="850" y="565" type="qcurve"/>
      <point x="870" y="554"/>
      <point x="900" y="517"/>
      <point x="905" y="494" type="qcurve"/>
      <point x="907" y="480"/>
      <point x="910" y="453"/>
      <point x="912" y="439" type="qcurve" smooth="yes"/>
      <point x="913" y="430"/>
      <point x="915" y="409"/>
      <point x="918" y="390" type="qcurve"/>
      <point x="848" y="393" type="line"/>
      <point x="866" y="372"/>
      <point x="866" y="345" type="qcurve"/>
      <point x="866" y="343" type="line"/>
      <point x="889" y="334"/>
      <point x="923" y="293"/>
      <point x="922" y="267" type="qcurve"/>
      <point x="922" y="219"/>
      <point x="917" y="121"/>
      <point x="911" y="73" type="qcurve" smooth="yes"/>
      <point x="908" y="44"/>
      <point x="888" y="24" type="qcurve"/>
      <point x="884" y="18"/>
      <point x="870" y="8"/>
      <point x="865" y="4" type="qcurve"/>
      <point x="844" y="-7"/>
      <point x="824" y="-10" type="qcurve"/>
      <point x="763" y="-17"/>
      <point x="638" y="-22"/>
      <point x="575" y="-22" type="qcurve"/>
      <point x="575" y="-36"/>
      <point x="574" y="-62"/>
      <point x="573" y="-76" type="qcurve"/>
      <point x="573" y="-82"/>
      <point x="572" y="-102"/>
      <point x="572" y="-108" type="qcurve"/>
    </contour>
    <contour>
      <point x="457" y="183" type="qcurve" smooth="yes"/>
      <point x="481" y="183"/>
      <point x="520" y="184"/>
      <point x="544" y="184" type="qcurve"/>
      <point x="544" y="218" type="line"/>
      <point x="526" y="218" type="line" smooth="yes"/>
      <point x="466" y="218"/>
      <point x="350" y="218"/>
      <point x="290" y="219" type="qcurve"/>
      <point x="290" y="214"/>
      <point x="290" y="204"/>
      <point x="291" y="200" type="qcurve"/>
      <point x="291" y="194"/>
      <point x="292" y="191"/>
      <point x="292" y="185" type="qcurve"/>
      <point x="320" y="185" type="line"/>
      <point x="355" y="184"/>
      <point x="422" y="183"/>
    </contour>
    <contour>
      <point x="443" y="432" type="line" smooth="yes"/>
      <point x="482" y="432"/>
      <point x="560" y="432"/>
      <point x="599" y="431" type="qcurve"/>
      <point x="599" y="463" type="line"/>
      <point x="568" y="464"/>
      <point x="506" y="464"/>
      <point x="475" y="464" type="qcurve" smooth="yes"/>
      <point x="451" y="464"/>
      <point x="412" y="464"/>
      <point x="387" y="463" type="qcurve"/>
      <point x="385" y="432" type="line"/>
    </contour>
  </outline>
</glyph>
<glyph name="percent" format="2">
  <advance width="1352"/>
  <unicode hex="0025"/>
  <outline>
    <contour>
      <point x="538" y="551" type="qcurve"/>
      <point x="525" y="515"/>
      <point x="505" y="441"/>
      <point x="495" y="404" type="qcurve" smooth="yes"/>
      <point x="492" y="393" type="line"/>
      <point x="489" y="385" type="line"/>
      <point x="489" y="384" type="line"/>
      <point x="487" y="374"/>
      <point x="481" y="355"/>
      <point x="479" y="345" type="qcurve" smooth="yes"/>
      <point x="476" y="327" type="line"/>
      <point x="462" y="263"/>
      <point x="439" y="137"/>
      <point x="434" y="72" type="qcurve"/>
      <point x="506" y="69"/>
      <point x="652" y="68"/>
      <point x="724" y="68" type="qcurve"/>
      <point x="743" y="138"/>
      <point x="782" y="275"/>
      <point x="797" y="346" type="qcurve" smooth="yes"/>
      <point x="799" y="356"/>
      <point x="804" y="374"/>
      <point x="807" y="383" type="qcurve"/>
      <point x="815" y="425"/>
      <point x="832" y="508"/>
      <point x="840" y="550" type="qcurve"/>
      <point x="843" y="586" type="line"/>
      <point x="845" y="603"/>
      <point x="849" y="638"/>
      <point x="851" y="655" type="qcurve"/>
      <point x="780" y="657"/>
      <point x="640" y="659"/>
      <point x="569" y="657" type="qcurve"/>
      <point x="561" y="630"/>
      <point x="544" y="578"/>
    </contour>
    <contour>
      <point x="869" y="414" type="qcurve"/>
      <point x="857" y="413"/>
      <point x="835" y="403"/>
      <point x="830" y="391" type="qcurve"/>
      <point x="823" y="383"/>
      <point x="823" y="370" type="qcurve"/>
      <point x="824" y="304"/>
      <point x="820" y="175"/>
      <point x="815" y="109" type="qcurve"/>
      <point x="813" y="94"/>
      <point x="835" y="68"/>
      <point x="852" y="70" type="qcurve"/>
      <point x="936" y="72"/>
      <point x="1102" y="79"/>
      <point x="1185" y="87" type="qcurve" smooth="yes"/>
      <point x="1202" y="89"/>
      <point x="1230" y="112"/>
      <point x="1238" y="128" type="qcurve"/>
      <point x="1259" y="185"/>
      <point x="1277" y="305"/>
      <point x="1275" y="367" type="qcurve"/>
      <point x="1275" y="372"/>
      <point x="1271" y="383"/>
      <point x="1269" y="388" type="qcurve"/>
      <point x="1256" y="407"/>
      <point x="1231" y="409" type="qcurve"/>
      <point x="1140" y="411"/>
      <point x="960" y="412"/>
    </contour>
    <contour>
      <point x="132" y="632" type="qcurve" smooth="yes"/>
      <point x="121" y="631"/>
      <point x="100" y="618"/>
      <point x="92" y="610" type="qcurve" smooth="yes"/>
      <point x="88" y="607"/>
      <point x="81" y="597"/>
      <point x="79" y="592" type="qcurve" smooth="yes"/>
      <point x="55" y="536"/>
      <point x="22" y="420"/>
      <point x="20" y="359" type="qcurve" smooth="yes"/>
      <point x="19" y="342"/>
      <point x="45" y="317"/>
      <point x="62" y="317" type="qcurve" smooth="yes"/>
      <point x="154" y="317"/>
      <point x="334" y="316"/>
      <point x="425" y="316" type="qcurve"/>
      <point x="443" y="315"/>
      <point x="470" y="343"/>
      <point x="469" y="360" type="qcurve"/>
      <point x="470" y="425"/>
      <point x="479" y="552"/>
      <point x="486" y="616" type="qcurve"/>
      <point x="486" y="624" type="line"/>
      <point x="484" y="633" type="line"/>
      <point x="483" y="636" type="line" smooth="yes"/>
      <point x="480" y="645"/>
      <point x="462" y="655"/>
      <point x="451" y="653" type="qcurve"/>
      <point x="370" y="651"/>
      <point x="212" y="640"/>
    </contour>
    <contour>
      <point x="896" y="132" type="qcurve"/>
      <point x="903" y="186"/>
      <point x="908" y="293"/>
      <point x="908" y="347" type="qcurve"/>
      <point x="982" y="347"/>
      <point x="1127" y="346"/>
      <point x="1201" y="347" type="qcurve"/>
      <point x="1201" y="294"/>
      <point x="1188" y="192"/>
      <point x="1174" y="141" type="qcurve"/>
      <point x="1034" y="133"/>
    </contour>
    <contour>
      <point x="98" y="380" type="qcurve"/>
      <point x="101" y="432"/>
      <point x="124" y="531"/>
      <point x="141" y="579" type="qcurve"/>
      <point x="208" y="584"/>
      <point x="342" y="591"/>
      <point x="409" y="593" type="qcurve"/>
      <point x="401" y="540"/>
      <point x="392" y="436"/>
      <point x="390" y="382" type="qcurve"/>
      <point x="317" y="382"/>
      <point x="171" y="380"/>
    </contour>
    <contour>
      <point x="131" y="642" type="qcurve" smooth="yes"/>
      <point x="210" y="650"/>
      <point x="368" y="661"/>
      <point x="449" y="663" type="qcurve"/>
      <point x="463" y="665"/>
      <point x="488" y="650"/>
      <point x="493" y="636" type="qcurve" smooth="yes"/>
      <point x="494" y="633" type="line"/>
      <point x="496" y="624" type="line"/>
      <point x="496" y="615" type="line"/>
      <point x="492" y="585" type="line"/>
      <point x="505" y="585" type="line"/>
      <point x="521" y="587"/>
      <point x="534" y="578" type="qcurve"/>
      <point x="538" y="592"/>
      <point x="545" y="618"/>
      <point x="550" y="632" type="qcurve" smooth="yes"/>
      <point x="562" y="667" type="line"/>
      <point x="587" y="668"/>
      <point x="644" y="668"/>
      <point x="669" y="668" type="qcurve" smooth="yes"/>
      <point x="715" y="668"/>
      <point x="816" y="667"/>
      <point x="862" y="665" type="qcurve"/>
      <point x="860" y="648"/>
      <point x="855" y="606"/>
      <point x="853" y="589" type="qcurve"/>
      <point x="870" y="588"/>
      <point x="902" y="587"/>
      <point x="918" y="587" type="qcurve"/>
      <point x="916" y="570"/>
      <point x="911" y="524"/>
      <point x="909" y="507" type="qcurve"/>
      <point x="906" y="469" type="line"/>
      <point x="903" y="457"/>
      <point x="898" y="434"/>
      <point x="896" y="423" type="qcurve"/>
      <point x="1050" y="421" type="line"/>
      <point x="1069" y="421"/>
      <point x="1116" y="420"/>
      <point x="1165" y="420"/>
      <point x="1212" y="419"/>
      <point x="1231" y="419" type="qcurve"/>
      <point x="1259" y="418"/>
      <point x="1277" y="393" type="qcurve"/>
      <point x="1280" y="385"/>
      <point x="1285" y="372"/>
      <point x="1285" y="367" type="qcurve" smooth="yes"/>
      <point x="1285" y="341" type="line"/>
      <point x="1287" y="341" type="line"/>
      <point x="1315" y="340"/>
      <point x="1333" y="315" type="qcurve"/>
      <point x="1336" y="307"/>
      <point x="1341" y="294"/>
      <point x="1341" y="289" type="qcurve"/>
      <point x="1343" y="226"/>
      <point x="1324" y="101"/>
      <point x="1301" y="40" type="qcurve"/>
      <point x="1293" y="24"/>
      <point x="1262" y="1"/>
      <point x="1242" y="-1" type="qcurve" smooth="yes"/>
      <point x="1159" y="-9"/>
      <point x="992" y="-16"/>
      <point x="909" y="-18" type="qcurve"/>
      <point x="889" y="-20"/>
      <point x="862" y="14"/>
      <point x="861" y="32" type="qcurve"/>
      <point x="862" y="39"/>
      <point x="863" y="52"/>
      <point x="863" y="60" type="qcurve"/>
      <point x="852" y="60" type="line"/>
      <point x="830" y="59"/>
      <point x="815" y="80" type="qcurve"/>
      <point x="812" y="67" type="line"/>
      <point x="788" y="-20" type="line"/>
      <point x="716" y="-20"/>
      <point x="551" y="-19"/>
      <point x="479" y="-16" type="qcurve"/>
      <point x="480" y="3"/>
      <point x="484" y="41"/>
      <point x="486" y="60" type="qcurve"/>
      <point x="469" y="60"/>
      <point x="438" y="61"/>
      <point x="423" y="62" type="qcurve"/>
      <point x="425" y="105"/>
      <point x="437" y="187"/>
      <point x="445" y="228" type="qcurve"/>
      <point x="300" y="228" type="line" smooth="yes"/>
      <point x="255" y="228"/>
      <point x="164" y="229"/>
      <point x="118" y="229" type="qcurve" smooth="yes"/>
      <point x="97" y="229"/>
      <point x="65" y="260"/>
      <point x="66" y="281" type="qcurve"/>
      <point x="66" y="287"/>
      <point x="66" y="300"/>
      <point x="67" y="307" type="qcurve"/>
      <point x="62" y="307" type="line" smooth="yes"/>
      <point x="41" y="307"/>
      <point x="9" y="338"/>
      <point x="10" y="359" type="qcurve" smooth="yes"/>
      <point x="12" y="421"/>
      <point x="45" y="539"/>
      <point x="70" y="596" type="qcurve"/>
      <point x="69" y="595" type="line"/>
      <point x="71" y="601"/>
      <point x="81" y="613"/>
      <point x="86" y="618" type="qcurve" smooth="yes"/>
      <point x="94" y="626"/>
      <point x="119" y="641"/>
    </contour>
    <contour>
      <point x="1166" y="151" type="qcurve"/>
      <point x="1174" y="177"/>
      <point x="1183" y="231"/>
      <point x="1186" y="259" type="qcurve"/>
      <point x="974" y="259" type="line"/>
      <point x="974" y="200"/>
      <point x="971" y="143" type="qcurve"/>
      <point x="1020" y="144"/>
      <point x="1115" y="148"/>
    </contour>
    <contour>
      <point x="380" y="392" type="qcurve"/>
      <point x="381" y="418"/>
      <point x="385" y="474"/>
      <point x="388" y="502" type="qcurve"/>
      <point x="342" y="500"/>
      <point x="252" y="496"/>
      <point x="204" y="492" type="qcurve"/>
      <point x="196" y="467"/>
      <point x="181" y="416"/>
      <point x="176" y="390" type="qcurve"/>
      <point x="193" y="390"/>
      <point x="227" y="390"/>
      <point x="244" y="391" type="qcurve"/>
      <point x="281" y="391"/>
      <point x="343" y="392"/>
    </contour>
    <contour>
      <point x="187" y="564" type="qcurve" smooth="yes"/>
      <point x="239" y="569"/>
      <point x="343" y="578"/>
      <point x="396" y="581" type="qcurve"/>
      <point x="396" y="581"/>
      <point x="397" y="583" type="qcurve"/>
      <point x="332" y="581"/>
      <point x="214" y="575"/>
      <point x="148" y="570" type="qcurve"/>
      <point x="145" y="561"/>
      <point x="139" y="544"/>
      <point x="137" y="535" type="qcurve"/>
      <point x="138" y="537"/>
      <point x="140" y="538"/>
      <point x="142" y="540" type="qcurve" smooth="yes"/>
      <point x="150" y="548"/>
      <point x="175" y="563"/>
    </contour>
    <contour>
      <point x="1186" y="77" type="qcurve" smooth="yes"/>
      <point x="1141" y="72"/>
      <point x="1050" y="66"/>
      <point x="1004" y="64" type="qcurve"/>
      <point x="1059" y="66"/>
      <point x="1165" y="70"/>
      <point x="1222" y="73" type="qcurve"/>
      <point x="1228" y="96" type="line"/>
      <point x="1210" y="80"/>
    </contour>
  </outline>
</glyph>
<glyph name="ampersand" format="2">
  <advance width="995"/>
  <unicode hex="0026"/>
  <outline>
    <contour>
      <point x="515" y="175" type="line" smooth="yes"/>
      <point x="467" y="175"/>
      <point x="371" y="176"/>
      <point x="323" y="177" type="qcurve"/>
      <point x="322" y="184"/>
      <point x="321" y="197"/>
      <point x="321" y="204" type="qcurve"/>
      <point x="322" y="211"/>
      <point x="320" y="224"/>
      <point x="320" y="232" type="qcurve" smooth="yes"/>
      <point x="320" y="250"/>
      <point x="319" y="286"/>
      <point x="319" y="306" type="qcurve"/>
      <point x="516" y="306" type="line"/>
      <point x="554" y="306" type="line"/>
      <point x="554" y="213" type="line"/>
      <point x="553" y="204"/>
      <point x="554" y="184"/>
      <point x="552" y="175" type="qcurve"/>
    </contour>
    <contour>
      <point x="228" y="78" type="line" smooth="yes"/>
      <point x="300" y="73"/>
      <point x="441" y="67"/>
      <point x="513" y="68" type="qcurve"/>
      <point x="549" y="68" type="line"/>
      <point x="602" y="69"/>
      <point x="707" y="72"/>
      <point x="760" y="76" type="qcurve"/>
      <point x="790" y="81"/>
      <point x="836" y="121"/>
      <point x="843" y="150" type="qcurve"/>
      <point x="850" y="189"/>
      <point x="857" y="267"/>
      <point x="859" y="306" type="qcurve"/>
      <point x="873" y="306"/>
      <point x="903" y="307"/>
      <point x="917" y="307" type="qcurve"/>
      <point x="919" y="335"/>
      <point x="917" y="389"/>
      <point x="915" y="416" type="qcurve"/>
      <point x="815" y="420"/>
      <point x="615" y="421"/>
      <point x="515" y="422" type="qcurve"/>
      <point x="397" y="422" type="line" smooth="yes"/>
      <point x="377" y="422"/>
      <point x="339" y="421"/>
      <point x="320" y="421" type="qcurve"/>
      <point x="320" y="441" type="line" smooth="yes"/>
      <point x="320" y="469"/>
      <point x="323" y="495" type="qcurve" smooth="yes"/>
      <point x="325" y="509"/>
      <point x="325" y="537"/>
      <point x="327" y="550" type="qcurve"/>
      <point x="384" y="552"/>
      <point x="495" y="553"/>
      <point x="552" y="551" type="qcurve"/>
      <point x="553" y="532"/>
      <point x="552" y="498"/>
      <point x="553" y="479" type="qcurve"/>
      <point x="628" y="479"/>
      <point x="776" y="474"/>
      <point x="851" y="472" type="qcurve"/>
      <point x="848" y="498"/>
      <point x="839" y="547"/>
      <point x="834" y="573" type="qcurve"/>
      <point x="826" y="600"/>
      <point x="781" y="643"/>
      <point x="752" y="645" type="qcurve"/>
      <point x="709" y="650"/>
      <point x="626" y="654"/>
      <point x="583" y="656" type="qcurve"/>
      <point x="575" y="658"/>
      <point x="557" y="657"/>
      <point x="548" y="657" type="qcurve"/>
      <point x="513" y="659"/>
      <point x="441" y="658"/>
      <point x="406" y="657" type="qcurve" smooth="yes"/>
      <point x="337" y="654" type="line"/>
      <point x="320" y="652"/>
      <point x="286" y="652"/>
      <point x="269" y="651" type="qcurve" smooth="yes"/>
      <point x="238" y="648"/>
      <point x="175" y="643"/>
      <point x="143" y="638" type="qcurve"/>
      <point x="139" y="637" type="line"/>
      <point x="110" y="632"/>
      <point x="65" y="594"/>
      <point x="56" y="568" type="qcurve" smooth="yes"/>
      <point x="53" y="559"/>
      <point x="49" y="542"/>
      <point x="47" y="534" type="qcurve" smooth="yes"/>
      <point x="42" y="517"/>
      <point x="34" y="485"/>
      <point x="31" y="468" type="qcurve"/>
      <point x="30" y="459" type="line"/>
      <point x="28" y="450" type="line"/>
      <point x="28" y="445"/>
      <point x="28" y="438"/>
      <point x="26" y="433" type="qcurve"/>
      <point x="24" y="419"/>
      <point x="33" y="395"/>
      <point x="51" y="375"/>
      <point x="76" y="363"/>
      <point x="89" y="363" type="qcurve"/>
      <point x="61" y="360"/>
      <point x="41" y="343" type="qcurve"/>
      <point x="32" y="333"/>
      <point x="21" y="308"/>
      <point x="22" y="294" type="qcurve"/>
      <point x="22" y="283" type="line"/>
      <point x="24" y="266" type="line"/>
      <point x="24" y="264"/>
      <point x="25" y="260"/>
      <point x="25" y="257" type="qcurve"/>
      <point x="29" y="225" type="line"/>
      <point x="30" y="216" type="line"/>
      <point x="31" y="212" type="line"/>
      <point x="41" y="160" type="line"/>
      <point x="49" y="131"/>
      <point x="98" y="93"/>
      <point x="126" y="88" type="qcurve"/>
      <point x="143" y="86"/>
      <point x="177" y="81"/>
      <point x="194" y="80" type="qcurve" smooth="yes"/>
    </contour>
    <contour>
      <point x="249" y="-8" type="line"/>
      <point x="236" y="-7"/>
      <point x="211" y="-5"/>
      <point x="198" y="-3" type="qcurve" smooth="yes"/>
      <point x="180" y="0" type="line"/>
      <point x="150" y="6"/>
      <point x="96" y="48"/>
      <point x="87" y="77" type="qcurve"/>
      <point x="84" y="93" type="line"/>
      <point x="65" y="104"/>
      <point x="37" y="135"/>
      <point x="31" y="155" type="qcurve"/>
      <point x="21" y="210" type="line"/>
      <point x="20" y="216" type="line"/>
      <point x="19" y="225" type="line"/>
      <point x="19" y="224" type="line"/>
      <point x="15" y="256" type="line"/>
      <point x="15" y="258"/>
      <point x="14" y="261"/>
      <point x="14" y="262" type="qcurve"/>
      <point x="14" y="266" type="line"/>
      <point x="12" y="283" type="line"/>
      <point x="12" y="293" type="line"/>
      <point x="11" y="309"/>
      <point x="25" y="340"/>
      <point x="38" y="354" type="qcurve" smooth="yes"/>
      <point x="40" y="356"/>
      <point x="48" y="361"/>
      <point x="53" y="363" type="qcurve"/>
      <point x="34" y="374"/>
      <point x="13" y="410"/>
      <point x="16" y="432" type="qcurve"/>
      <point x="18" y="437"/>
      <point x="18" y="445"/>
      <point x="18" y="450" type="qcurve"/>
      <point x="20" y="459" type="line"/>
      <point x="21" y="470" type="line"/>
      <point x="24" y="487"/>
      <point x="32" y="521"/>
      <point x="37" y="537" type="qcurve"/>
      <point x="37" y="536" type="line"/>
      <point x="40" y="548" type="line"/>
      <point x="42" y="553"/>
      <point x="45" y="568"/>
      <point x="47" y="572" type="qcurve"/>
      <point x="47" y="571" type="line"/>
      <point x="57" y="600"/>
      <point x="106" y="642"/>
      <point x="137" y="647" type="qcurve"/>
      <point x="142" y="648" type="line"/>
      <point x="164" y="651"/>
      <point x="212" y="656"/>
      <point x="234" y="658" type="qcurve" smooth="yes"/>
      <point x="268" y="661" type="line"/>
      <point x="274" y="661"/>
      <point x="287" y="662"/>
      <point x="292" y="662" type="qcurve" smooth="yes"/>
      <point x="303" y="662"/>
      <point x="325" y="663"/>
      <point x="336" y="664" type="qcurve"/>
      <point x="406" y="667" type="line" smooth="yes"/>
      <point x="426" y="668"/>
      <point x="468" y="668"/>
      <point x="488" y="668" type="qcurve" smooth="yes"/>
      <point x="503" y="668"/>
      <point x="533" y="668"/>
      <point x="548" y="667" type="qcurve"/>
      <point x="557" y="667" type="line" smooth="yes"/>
      <point x="563" y="667"/>
      <point x="579" y="667"/>
      <point x="584" y="666" type="qcurve"/>
      <point x="626" y="664"/>
      <point x="711" y="660"/>
      <point x="753" y="655" type="qcurve" smooth="yes"/>
      <point x="768" y="653"/>
      <point x="798" y="639"/>
      <point x="822" y="617"/>
      <point x="840" y="590"/>
      <point x="844" y="575" type="qcurve"/>
      <point x="844" y="572"/>
      <point x="846" y="566"/>
      <point x="846" y="564" type="qcurve"/>
      <point x="866" y="553"/>
      <point x="894" y="517"/>
      <point x="900" y="497" type="qcurve"/>
      <point x="903" y="481"/>
      <point x="909" y="446"/>
      <point x="912" y="426" type="qcurve"/>
      <point x="924" y="426" type="line"/>
      <point x="926" y="404"/>
      <point x="928" y="367"/>
      <point x="928" y="350" type="qcurve"/>
      <point x="941" y="349"/>
      <point x="967" y="348"/>
      <point x="980" y="348" type="qcurve"/>
      <point x="982" y="325"/>
      <point x="984" y="285"/>
      <point x="984" y="268" type="qcurve" smooth="yes"/>
      <point x="984" y="258"/>
      <point x="983" y="229"/>
      <point x="982" y="219" type="qcurve"/>
      <point x="974" y="219"/>
      <point x="952" y="218"/>
      <point x="944" y="218" type="qcurve" smooth="yes"/>
      <point x="925" y="218" type="line"/>
      <point x="923" y="180"/>
      <point x="915" y="107"/>
      <point x="909" y="70" type="qcurve"/>
      <point x="901" y="38"/>
      <point x="851" y="-7"/>
      <point x="817" y="-12" type="qcurve"/>
      <point x="764" y="-16"/>
      <point x="658" y="-19"/>
      <point x="605" y="-20" type="qcurve"/>
      <point x="540" y="-20" type="line" smooth="yes"/>
      <point x="475" y="-20"/>
      <point x="347" y="-15"/>
      <point x="283" y="-10" type="qcurve"/>
      <point x="275" y="-10"/>
      <point x="258" y="-8"/>
      <point x="250" y="-8" type="qcurve"/>
    </contour>
    <contour>
      <point x="582" y="432" type="line"/>
      <point x="598" y="432" type="line"/>
      <point x="598" y="437" type="line"/>
      <point x="598" y="464" type="line"/>
      <point x="580" y="465"/>
      <point x="540" y="464"/>
      <point x="522" y="464" type="qcurve" smooth="yes"/>
      <point x="487" y="464"/>
      <point x="427" y="463"/>
      <point x="392" y="462" type="qcurve"/>
      <point x="391" y="457"/>
      <point x="391" y="450"/>
      <point x="391" y="445" type="qcurve" smooth="yes"/>
      <point x="391" y="436"/>
      <point x="390" y="432" type="qcurve"/>
      <point x="397" y="432" type="line"/>
    </contour>
    <contour>
      <point x="386" y="186" type="line"/>
      <point x="418" y="185"/>
      <point x="483" y="185"/>
      <point x="515" y="185" type="qcurve" smooth="yes"/>
      <point x="543" y="185" type="line"/>
      <point x="543" y="198" type="line" smooth="yes"/>
      <point x="543" y="202"/>
      <point x="544" y="209"/>
      <point x="544" y="213" type="qcurve" smooth="yes"/>
      <point x="544" y="218" type="line"/>
      <point x="385" y="218" type="line"/>
      <point x="385" y="211"/>
      <point x="386" y="196"/>
      <point x="386" y="190" type="qcurve" smooth="yes"/>
    </contour>
  </outline>
</glyph>
<glyph name="quotesingle" format="2">
  <advance width="328"/>
  <unicode hex="0027"/>
  <outline>
    <contour>
      <point x="20" y="553" type="qcurve"/>
      <point x="20" y="536"/>
      <point x="21" y="501"/>
      <point x="24" y="484" type="qcurve"/>
      <point x="25" y="476" type="line"/>
      <point x="53" y="473"/>
      <point x="109" y="469"/>
      <point x="138" y="469" type="qcurve"/>
      <point x="141" y="472"/>
      <point x="149" y="476"/>
      <point x="153" y="478" type="qcurve"/>
      <point x="177" y="497"/>
      <point x="227" y="533"/>
      <point x="251" y="553" type="qcurve"/>
      <point x="251" y="579"/>
      <point x="245" y="633"/>
      <point x="241" y="660" type="qcurve"/>
      <point x="190" y="666"/>
      <point x="84" y="664"/>
      <point x="33" y="655" type="qcurve"/>
      <point x="22" y="608"/>
    </contour>
    <contour>
      <point x="10" y="553" type="qcurve"/>
      <point x="11" y="605"/>
      <point x="25" y="664" type="qcurve"/>
      <point x="57" y="670"/>
      <point x="121" y="675"/>
      <point x="153" y="675" type="qcurve" smooth="yes"/>
      <point x="197" y="675"/>
      <point x="250" y="669" type="qcurve"/>
      <point x="252" y="650"/>
      <point x="257" y="614"/>
      <point x="259" y="595" type="qcurve"/>
      <point x="270" y="594"/>
      <point x="294" y="593"/>
      <point x="306" y="591" type="qcurve"/>
      <point x="310" y="561"/>
      <point x="317" y="502"/>
      <point x="317" y="470" type="qcurve"/>
      <point x="302" y="457"/>
      <point x="268" y="432"/>
      <point x="253" y="421" type="qcurve" smooth="yes"/>
      <point x="234" y="408"/>
      <point x="215" y="392" type="qcurve"/>
      <point x="214" y="391"/>
      <point x="213" y="391"/>
      <point x="212" y="390" type="qcurve"/>
      <point x="211" y="389"/>
      <point x="210" y="389" type="qcurve"/>
      <point x="207" y="387"/>
      <point x="203" y="386"/>
      <point x="198" y="381" type="qcurve"/>
      <point x="185" y="381"/>
      <point x="119" y="387"/>
      <point x="75" y="392" type="qcurve"/>
      <point x="74" y="393"/>
      <point x="73" y="395" type="qcurve" smooth="yes"/>
      <point x="72" y="397"/>
      <point x="70" y="401"/>
      <point x="70" y="404" type="qcurve"/>
      <point x="67" y="418"/>
      <point x="66" y="449"/>
      <point x="66" y="465" type="qcurve"/>
      <point x="55" y="466"/>
      <point x="31" y="468"/>
      <point x="19" y="470" type="qcurve"/>
      <point x="18" y="471"/>
      <point x="17" y="473" type="qcurve" smooth="yes"/>
      <point x="16" y="475"/>
      <point x="14" y="479"/>
      <point x="14" y="482" type="qcurve"/>
      <point x="11" y="499"/>
      <point x="10" y="536"/>
    </contour>
  </outline>
</glyph>
<glyph name="parenleft" format="2">
  <advance width="426"/>
  <unicode hex="0028"/>
  <outline>
    <contour>
      <point x="340" y="771" type="qcurve"/>
      <point x="390" y="768"/>
      <point x="486" y="758"/>
      <point x="534" y="747" type="qcurve"/>
      <point x="523" y="844" type="line"/>
      <point x="428" y="873"/>
      <point x="229" y="879"/>
      <point x="132" y="855" type="qcurve"/>
      <point x="105" y="847"/>
      <point x="65" y="801"/>
      <point x="60" y="772" type="qcurve"/>
      <point x="53" y="718"/>
      <point x="43" y="579"/>
      <point x="37" y="426"/>
      <point x="36" y="265"/>
      <point x="39" y="112"/>
      <point x="47" y="-27"/>
      <point x="53" y="-82" type="qcurve"/>
      <point x="58" y="-111"/>
      <point x="98" y="-156"/>
      <point x="126" y="-164" type="qcurve"/>
      <point x="226" y="-188"/>
      <point x="429" y="-186"/>
      <point x="529" y="-162" type="qcurve"/>
      <point x="531" y="-136"/>
      <point x="536" y="-86"/>
      <point x="538" y="-60" type="qcurve"/>
      <point x="490" y="-71"/>
      <point x="392" y="-79"/>
      <point x="341" y="-80" type="qcurve"/>
      <point x="341" y="-25"/>
      <point x="342" y="113"/>
      <point x="342" y="265"/>
      <point x="342" y="425"/>
      <point x="341" y="578"/>
      <point x="340" y="716"/>
    </contour>
    <contour>
      <point x="307" y="886" type="qcurve" smooth="yes"/>
      <point x="364" y="886"/>
      <point x="476" y="869"/>
      <point x="532" y="852" type="qcurve"/>
      <point x="539" y="787" type="line"/>
      <point x="588" y="774" type="line"/>
      <point x="601" y="656" type="line"/>
      <point x="547" y="668"/>
      <point x="451" y="679"/>
      <point x="406" y="682" type="qcurve"/>
      <point x="406" y="651"/>
      <point x="407" y="560"/>
      <point x="407" y="454"/>
      <point x="408" y="341"/>
      <point x="408" y="235"/>
      <point x="408" y="144"/>
      <point x="408" y="113" type="qcurve" smooth="yes"/>
      <point x="408" y="65"/>
      <point x="407" y="-23"/>
      <point x="407" y="-68" type="qcurve"/>
      <point x="441" y="-66"/>
      <point x="510" y="-56"/>
      <point x="549" y="-47" type="qcurve"/>
      <point x="548" y="-64"/>
      <point x="544" y="-112"/>
      <point x="542" y="-129" type="qcurve" smooth="yes"/>
      <point x="541" y="-137" type="line"/>
      <point x="569" y="-133"/>
      <point x="605" y="-125" type="qcurve"/>
      <point x="604" y="-142"/>
      <point x="600" y="-190"/>
      <point x="598" y="-207" type="qcurve" smooth="yes"/>
      <point x="594" y="-248" type="line"/>
      <point x="538" y="-261"/>
      <point x="430" y="-275"/>
      <point x="377" y="-275" type="qcurve" smooth="yes"/>
      <point x="326" y="-275"/>
      <point x="227" y="-264"/>
      <point x="179" y="-252" type="qcurve" smooth="yes"/>
      <point x="149" y="-244"/>
      <point x="106" y="-196"/>
      <point x="99" y="-164" type="qcurve"/>
      <point x="77" y="-152"/>
      <point x="48" y="-110"/>
      <point x="43" y="-84" type="qcurve"/>
      <point x="39" y="-47"/>
      <point x="33" y="63"/>
      <point x="28" y="181"/>
      <point x="26" y="292"/>
      <point x="26" y="330" type="qcurve" smooth="yes"/>
      <point x="26" y="376"/>
      <point x="29" y="492"/>
      <point x="35" y="613"/>
      <point x="44" y="728"/>
      <point x="50" y="773" type="qcurve"/>
      <point x="56" y="805"/>
      <point x="99" y="856"/>
      <point x="129" y="865" type="qcurve"/>
      <point x="214" y="886"/>
    </contour>
  </outline>
</glyph>
<glyph name="parenright" format="2">
  <advance width="429"/>
  <unicode hex="0029"/>
  <outline>
    <contour>
      <point x="40" y="-82" type="qcurve"/>
      <point x="-10" y="-80"/>
      <point x="-107" y="-65"/>
      <point x="-156" y="-53" type="qcurve"/>
      <point x="-153" y="-100"/>
      <point x="-144" y="-147" type="qcurve"/>
      <point x="-49" y="-182"/>
      <point x="155" y="-193"/>
      <point x="255" y="-178" type="qcurve"/>
      <point x="284" y="-172"/>
      <point x="324" y="-125"/>
      <point x="329" y="-96" type="qcurve"/>
      <point x="334" y="-40"/>
      <point x="342" y="102"/>
      <point x="345" y="258"/>
      <point x="344" y="422"/>
      <point x="339" y="579"/>
      <point x="331" y="721"/>
      <point x="325" y="777" type="qcurve"/>
      <point x="320" y="804"/>
      <point x="282" y="852"/>
      <point x="253" y="859" type="qcurve" smooth="yes"/>
      <point x="156" y="880"/>
      <point x="-43" y="867"/>
      <point x="-137" y="835" type="qcurve"/>
      <point x="-141" y="812"/>
      <point x="-146" y="763"/>
      <point x="-150" y="740" type="qcurve"/>
      <point x="-102" y="754"/>
      <point x="-7" y="765"/>
      <point x="41" y="768" type="qcurve"/>
      <point x="39" y="714"/>
      <point x="37" y="576"/>
      <point x="36" y="423"/>
      <point x="36" y="263"/>
      <point x="37" y="111"/>
      <point x="38" y="-28"/>
    </contour>
    <contour>
      <point x="-167" y="-40" type="qcurve"/>
      <point x="-115" y="-53"/>
      <point x="-18" y="-69"/>
      <point x="29" y="-72" type="qcurve"/>
      <point x="28" y="-34"/>
      <point x="27" y="79"/>
      <point x="26" y="200"/>
      <point x="26" y="313"/>
      <point x="26" y="351" type="qcurve" smooth="yes"/>
      <point x="26" y="382"/>
      <point x="26" y="469"/>
      <point x="26" y="559"/>
      <point x="27" y="644"/>
      <point x="27" y="675" type="qcurve"/>
      <point x="-4" y="671"/>
      <point x="-69" y="659"/>
      <point x="-106" y="648" type="qcurve"/>
      <point x="-98" y="710" type="line"/>
      <point x="-94" y="743" type="line"/>
      <point x="-111" y="739"/>
      <point x="-144" y="731"/>
      <point x="-162" y="726" type="qcurve"/>
      <point x="-154" y="788" type="line" smooth="yes"/>
      <point x="-152" y="800"/>
      <point x="-148" y="830"/>
      <point x="-146" y="842" type="qcurve"/>
      <point x="-84" y="863"/>
      <point x="41" y="885"/>
      <point x="102" y="885" type="qcurve" smooth="yes"/>
      <point x="182" y="885"/>
      <point x="255" y="869" type="qcurve"/>
      <point x="287" y="861"/>
      <point x="329" y="811"/>
      <point x="334" y="782" type="qcurve"/>
      <point x="357" y="769"/>
      <point x="386" y="725"/>
      <point x="391" y="702" type="qcurve"/>
      <point x="396" y="657"/>
      <point x="403" y="542"/>
      <point x="408" y="422"/>
      <point x="410" y="306"/>
      <point x="410" y="260" type="qcurve" smooth="yes"/>
      <point x="410" y="220"/>
      <point x="408" y="103"/>
      <point x="404" y="-21"/>
      <point x="399" y="-137"/>
      <point x="395" y="-176" type="qcurve"/>
      <point x="390" y="-207"/>
      <point x="345" y="-259"/>
      <point x="312" y="-266" type="qcurve"/>
      <point x="276" y="-271"/>
      <point x="204" y="-277"/>
      <point x="166" y="-277" type="qcurve" smooth="yes"/>
      <point x="100" y="-277"/>
      <point x="-31" y="-255"/>
      <point x="-97" y="-232" type="qcurve"/>
      <point x="-100" y="-217"/>
      <point x="-105" y="-186"/>
      <point x="-107" y="-169" type="qcurve"/>
      <point x="-153" y="-154" type="line"/>
      <point x="-158" y="-128"/>
      <point x="-165" y="-72"/>
    </contour>
  </outline>
</glyph>
<glyph name="plus" format="2">
  <advance width="474"/>
  <unicode hex="002B"/>
  <outline>
    <contour>
      <point x="270" y="307" type="qcurve"/>
      <point x="302" y="307"/>
      <point x="365" y="306"/>
      <point x="397" y="307" type="qcurve"/>
      <point x="399" y="335"/>
      <point x="397" y="389"/>
      <point x="395" y="417" type="qcurve"/>
      <point x="364" y="419"/>
      <point x="302" y="421"/>
      <point x="270" y="421" type="qcurve"/>
      <point x="268" y="452"/>
      <point x="269" y="513"/>
      <point x="267" y="543" type="qcurve"/>
      <point x="240" y="545"/>
      <point x="186" y="543"/>
      <point x="159" y="541" type="qcurve"/>
      <point x="157" y="511"/>
      <point x="154" y="451"/>
      <point x="154" y="421" type="qcurve"/>
      <point x="87" y="419"/>
      <point x="25" y="415" type="qcurve"/>
      <point x="22" y="389"/>
      <point x="19" y="336"/>
      <point x="21" y="310" type="qcurve"/>
      <point x="85" y="307"/>
      <point x="152" y="307" type="qcurve"/>
      <point x="153" y="275"/>
      <point x="154" y="212"/>
      <point x="156" y="180" type="qcurve"/>
      <point x="184" y="178"/>
      <point x="239" y="177"/>
      <point x="267" y="179" type="qcurve"/>
      <point x="270" y="242"/>
    </contour>
    <contour>
      <point x="408" y="351" type="line"/>
      <point x="422" y="351"/>
      <point x="448" y="350"/>
      <point x="461" y="349" type="qcurve"/>
      <point x="462" y="329"/>
      <point x="464" y="281"/>
      <point x="464" y="261" type="qcurve" smooth="yes"/>
      <point x="464" y="253"/>
      <point x="464" y="236"/>
      <point x="462" y="219" type="qcurve"/>
      <point x="441" y="218"/>
      <point x="389" y="219"/>
      <point x="368" y="219" type="qcurve" smooth="yes"/>
      <point x="336" y="219" type="line"/>
      <point x="336" y="188"/>
      <point x="335" y="121"/>
      <point x="333" y="92" type="qcurve"/>
      <point x="322" y="91"/>
      <point x="292" y="90"/>
      <point x="281" y="90" type="qcurve" smooth="yes"/>
      <point x="264" y="90"/>
      <point x="220" y="91"/>
      <point x="203" y="92" type="qcurve"/>
      <point x="199" y="168" type="line"/>
      <point x="185" y="168"/>
      <point x="158" y="169"/>
      <point x="147" y="170" type="qcurve"/>
      <point x="144" y="219" type="line"/>
      <point x="67" y="222" type="line"/>
      <point x="65" y="240"/>
      <point x="66" y="278"/>
      <point x="67" y="298" type="qcurve"/>
      <point x="53" y="298"/>
      <point x="24" y="299"/>
      <point x="11" y="300" type="qcurve"/>
      <point x="9" y="329"/>
      <point x="12" y="392"/>
      <point x="16" y="424" type="qcurve"/>
      <point x="48" y="426"/>
      <point x="112" y="430"/>
      <point x="144" y="431" type="qcurve"/>
      <point x="144" y="460"/>
      <point x="148" y="522"/>
      <point x="150" y="550" type="qcurve"/>
      <point x="173" y="552"/>
      <point x="213" y="554"/>
      <point x="229" y="554" type="qcurve" smooth="yes"/>
      <point x="239" y="554"/>
      <point x="267" y="553"/>
      <point x="277" y="552" type="qcurve"/>
      <point x="278" y="537"/>
      <point x="279" y="497"/>
      <point x="279" y="482" type="qcurve" smooth="yes"/>
      <point x="279" y="476" type="line"/>
      <point x="285" y="476" type="line" smooth="yes"/>
      <point x="295" y="476"/>
      <point x="323" y="475"/>
      <point x="333" y="474" type="qcurve"/>
      <point x="333" y="464"/>
      <point x="334" y="441"/>
      <point x="335" y="430" type="qcurve"/>
      <point x="405" y="427" type="line"/>
    </contour>
  </outline>
</glyph>
<glyph name="comma" format="2">
  <advance width="403"/>
  <unicode hex="002C"/>
  <outline>
    <contour>
      <point x="37" y="162" type="qcurve"/>
      <point x="29" y="138"/>
      <point x="20" y="87"/>
      <point x="19" y="61" type="qcurve"/>
      <point x="92" y="61" type="line"/>
      <point x="92" y="42"/>
      <point x="93" y="5"/>
      <point x="95" y="-13" type="qcurve"/>
      <point x="97" y="-22" type="line"/>
      <point x="126" y="-24"/>
      <point x="185" y="-24"/>
      <point x="215" y="-24" type="qcurve"/>
      <point x="219" y="-22"/>
      <point x="226" y="-18"/>
      <point x="228" y="-15" type="qcurve"/>
      <point x="253" y="4"/>
      <point x="303" y="41"/>
      <point x="327" y="61" type="qcurve"/>
      <point x="325" y="114"/>
      <point x="312" y="165" type="qcurve"/>
      <point x="260" y="170"/>
      <point x="156" y="173"/>
      <point x="102" y="169" type="qcurve"/>
      <point x="86" y="167"/>
      <point x="54" y="164"/>
    </contour>
    <contour>
      <point x="36" y="172" type="line"/>
      <point x="51" y="174"/>
      <point x="82" y="176"/>
      <point x="96" y="178" type="qcurve"/>
      <point x="98" y="178"/>
      <point x="99" y="179"/>
      <point x="101" y="179" type="qcurve"/>
      <point x="120" y="181"/>
      <point x="163" y="182"/>
      <point x="182" y="182" type="qcurve" smooth="yes"/>
      <point x="214" y="182"/>
      <point x="283" y="178"/>
      <point x="320" y="174" type="qcurve"/>
      <point x="325" y="155"/>
      <point x="332" y="119"/>
      <point x="334" y="100" type="qcurve"/>
      <point x="376" y="96" type="line"/>
      <point x="384" y="67"/>
      <point x="392" y="8"/>
      <point x="393" y="-22" type="qcurve"/>
      <point x="374" y="-37"/>
      <point x="333" y="-70"/>
      <point x="313" y="-84" type="qcurve"/>
      <point x="291" y="-101" type="line" smooth="yes"/>
      <point x="289" y="-103"/>
      <point x="282" y="-107"/>
      <point x="277" y="-110" type="qcurve"/>
      <point x="271" y="-112" type="line"/>
      <point x="241" y="-112"/>
      <point x="172" y="-112"/>
      <point x="143" y="-110" type="qcurve"/>
      <point x="141" y="-92" type="line" smooth="yes"/>
      <point x="139" y="-78"/>
      <point x="138" y="-49"/>
      <point x="138" y="-33" type="qcurve"/>
      <point x="124" y="-33"/>
      <point x="98" y="-33"/>
      <point x="87" y="-32" type="qcurve"/>
      <point x="86" y="-27" type="line"/>
      <point x="65" y="-27" type="line"/>
      <point x="65" y="13"/>
      <point x="73" y="51" type="qcurve"/>
      <point x="9" y="51" type="line"/>
      <point x="10" y="84"/>
      <point x="19" y="142"/>
      <point x="27" y="165" type="qcurve"/>
    </contour>
  </outline>
</glyph>
<glyph name="period" format="2">
  <advance width="403"/>
  <unicode hex="002E"/>
  <outline>
    <contour>
      <point x="324" y="63" type="qcurve"/>
      <point x="333" y="117"/>
      <point x="313" y="169" type="qcurve"/>
      <point x="244" y="174"/>
      <point x="106" y="172"/>
      <point x="37" y="167" type="qcurve"/>
      <point x="25" y="144"/>
      <point x="16" y="90"/>
      <point x="22" y="64" type="qcurve"/>
      <point x="97" y="61"/>
      <point x="249" y="61"/>
    </contour>
    <contour>
      <point x="380" y="-25" type="line"/>
      <point x="342" y="-26"/>
      <point x="267" y="-27"/>
      <point x="229" y="-27" type="qcurve" smooth="yes"/>
      <point x="191" y="-27"/>
      <point x="108" y="-26"/>
      <point x="70" y="-24" type="qcurve"/>
      <point x="68" y="-11"/>
      <point x="65" y="8"/>
      <point x="65" y="16" type="qcurve" smooth="yes"/>
      <point x="65" y="30"/>
      <point x="70" y="52" type="qcurve"/>
      <point x="56" y="52"/>
      <point x="28" y="53"/>
      <point x="14" y="54" type="qcurve"/>
      <point x="12" y="67"/>
      <point x="9" y="86"/>
      <point x="9" y="94" type="qcurve" smooth="yes"/>
      <point x="9" y="114"/>
      <point x="21" y="157"/>
      <point x="31" y="177" type="qcurve"/>
      <point x="69" y="180"/>
      <point x="153" y="183"/>
      <point x="191" y="183" type="qcurve" smooth="yes"/>
      <point x="222" y="183"/>
      <point x="290" y="181"/>
      <point x="320" y="179" type="qcurve"/>
      <point x="336" y="137"/>
      <point x="337" y="103" type="qcurve"/>
      <point x="347" y="103"/>
      <point x="366" y="102"/>
      <point x="376" y="101" type="qcurve"/>
      <point x="393" y="56"/>
      <point x="393" y="18" type="qcurve" smooth="yes"/>
      <point x="393" y="-1"/>
      <point x="390" y="-17" type="qcurve"/>
    </contour>
  </outline>
</glyph>
<glyph name="slash" format="2">
  <advance width="549"/>
  <unicode hex="002F"/>
  <outline>
    <contour>
      <point x="173" y="652" type="qcurve"/>
      <point x="166" y="626"/>
      <point x="151" y="574"/>
      <point x="143" y="547" type="qcurve"/>
      <point x="131" y="512"/>
      <point x="112" y="438"/>
      <point x="101" y="402" type="qcurve" smooth="yes"/>
      <point x="100" y="397"/>
      <point x="99" y="387"/>
      <point x="97" y="382" type="qcurve" smooth="yes"/>
      <point x="90" y="362"/>
      <point x="89" y="345" type="qcurve"/>
      <point x="87" y="336" type="line"/>
      <point x="84" y="327" type="line"/>
      <point x="72" y="268"/>
      <point x="50" y="153"/>
      <point x="46" y="94" type="qcurve"/>
      <point x="72" y="87"/>
      <point x="120" y="77"/>
      <point x="146" y="75" type="qcurve"/>
      <point x="164" y="72"/>
      <point x="200" y="70"/>
      <point x="217" y="68" type="qcurve"/>
      <point x="245" y="68"/>
      <point x="299" y="67"/>
      <point x="327" y="69" type="qcurve"/>
      <point x="346" y="139"/>
      <point x="382" y="275"/>
      <point x="398" y="345" type="qcurve" smooth="yes"/>
      <point x="400" y="355"/>
      <point x="405" y="373"/>
      <point x="406" y="383" type="qcurve"/>
      <point x="415" y="423"/>
      <point x="430" y="501"/>
      <point x="437" y="542" type="qcurve"/>
      <point x="436" y="550"/>
      <point x="441" y="566"/>
      <point x="442" y="575" type="qcurve" smooth="yes"/>
      <point x="443" y="591"/>
      <point x="446" y="621"/>
      <point x="447" y="638" type="qcurve"/>
      <point x="431" y="641"/>
      <point x="399" y="648"/>
      <point x="383" y="650" type="qcurve" smooth="yes"/>
      <point x="362" y="653"/>
      <point x="319" y="656"/>
      <point x="297" y="657" type="qcurve" smooth="yes"/>
      <point x="266" y="659"/>
      <point x="204" y="656"/>
    </contour>
    <contour>
      <point x="172" y="662" type="line"/>
      <point x="217" y="668"/>
      <point x="265" y="668" type="qcurve" smooth="yes"/>
      <point x="273" y="668"/>
      <point x="290" y="668"/>
      <point x="298" y="667" type="qcurve" smooth="yes"/>
      <point x="319" y="666"/>
      <point x="364" y="663"/>
      <point x="384" y="660" type="qcurve" smooth="yes"/>
      <point x="395" y="658"/>
      <point x="418" y="654"/>
      <point x="429" y="652" type="qcurve" smooth="yes"/>
      <point x="458" y="647" type="line"/>
      <point x="454" y="604" type="line" smooth="yes"/>
      <point x="453" y="598"/>
      <point x="452" y="586"/>
      <point x="452" y="580" type="qcurve"/>
      <point x="485" y="574" type="line"/>
      <point x="514" y="569" type="line"/>
      <point x="510" y="526" type="line" smooth="yes"/>
      <point x="509" y="518"/>
      <point x="508" y="504"/>
      <point x="508" y="497" type="qcurve" smooth="yes"/>
      <point x="508" y="492"/>
      <point x="506" y="486" type="qcurve" smooth="yes"/>
      <point x="504" y="480"/>
      <point x="502" y="469"/>
      <point x="503" y="464" type="qcurve"/>
      <point x="496" y="423"/>
      <point x="481" y="343"/>
      <point x="472" y="303" type="qcurve" smooth="yes"/>
      <point x="471" y="298"/>
      <point x="470" y="286"/>
      <point x="468" y="281" type="qcurve"/>
      <point x="464" y="265" type="line" smooth="yes"/>
      <point x="450" y="205"/>
      <point x="420" y="88"/>
      <point x="404" y="28" type="qcurve"/>
      <point x="402" y="18"/>
      <point x="393" y="-9"/>
      <point x="391" y="-19" type="qcurve"/>
      <point x="370" y="-20"/>
      <point x="321" y="-20"/>
      <point x="301" y="-20" type="qcurve" smooth="yes"/>
      <point x="271" y="-20" type="line"/>
      <point x="266" y="-19"/>
      <point x="258" y="-19"/>
      <point x="254" y="-19" type="qcurve"/>
      <point x="241" y="-18"/>
      <point x="212" y="-15"/>
      <point x="200" y="-13" type="qcurve"/>
      <point x="173" y="-11"/>
      <point x="119" y="0"/>
      <point x="91" y="8" type="qcurve"/>
      <point x="92" y="39"/>
      <point x="97" y="71" type="qcurve"/>
      <point x="68" y="76"/>
      <point x="35" y="86" type="qcurve"/>
      <point x="39" y="143"/>
      <point x="59" y="254"/>
      <point x="70" y="308" type="qcurve" smooth="yes"/>
      <point x="71" y="313"/>
      <point x="73" y="321"/>
      <point x="74" y="326" type="qcurve" smooth="yes"/>
      <point x="77" y="337" type="line"/>
      <point x="77" y="339"/>
      <point x="79" y="343"/>
      <point x="79" y="345" type="qcurve"/>
      <point x="80" y="364"/>
      <point x="88" y="385" type="qcurve"/>
      <point x="90" y="388"/>
      <point x="90" y="396"/>
      <point x="91" y="401" type="qcurve" smooth="yes"/>
      <point x="96" y="417"/>
      <point x="104" y="453"/>
      <point x="109" y="469" type="qcurve"/>
      <point x="114" y="489"/>
      <point x="127" y="531"/>
      <point x="134" y="550" type="qcurve"/>
      <point x="133" y="550" type="line"/>
      <point x="136" y="561"/>
      <point x="143" y="582"/>
      <point x="146" y="593" type="qcurve" smooth="yes"/>
      <point x="151" y="609"/>
      <point x="159" y="638"/>
      <point x="163" y="654" type="qcurve"/>
    </contour>
  </outline>
</glyph>
<glyph name="zero" format="2">
  <advance width="933"/>
  <unicode hex="0030"/>
  <outline>
    <contour>
      <point x="715" y="644" type="qcurve"/>
      <point x="707" y="645"/>
      <point x="690" y="646"/>
      <point x="682" y="648" type="qcurve"/>
      <point x="665" y="650" type="line"/>
      <point x="654" y="650"/>
      <point x="649" y="651" type="qcurve"/>
      <point x="544" y="659"/>
      <point x="337" y="658"/>
      <point x="233" y="649" type="qcurve"/>
      <point x="166" y="642" type="line" smooth="yes"/>
      <point x="158" y="641"/>
      <point x="142" y="639"/>
      <point x="134" y="638" type="qcurve"/>
      <point x="96" y="630"/>
      <point x="71" y="598" type="qcurve" smooth="yes"/>
      <point x="65" y="591"/>
      <point x="57" y="576"/>
      <point x="53" y="568" type="qcurve"/>
      <point x="37" y="501" type="line" smooth="yes"/>
      <point x="35" y="492"/>
      <point x="32" y="476"/>
      <point x="30" y="468" type="qcurve"/>
      <point x="27" y="447"/>
      <point x="23" y="404"/>
      <point x="21" y="381" type="qcurve"/>
      <point x="21" y="373"/>
      <point x="19" y="355"/>
      <point x="20" y="346" type="qcurve"/>
      <point x="19" y="324"/>
      <point x="23" y="279"/>
      <point x="25" y="257" type="qcurve" smooth="yes"/>
      <point x="27" y="232"/>
      <point x="35" y="185"/>
      <point x="40" y="160" type="qcurve"/>
      <point x="48" y="131"/>
      <point x="96" y="92"/>
      <point x="123" y="87" type="qcurve"/>
      <point x="184" y="80"/>
      <point x="305" y="71"/>
      <point x="366" y="69" type="qcurve" smooth="yes"/>
      <point x="439" y="67"/>
      <point x="582" y="69"/>
      <point x="654" y="72" type="qcurve"/>
      <point x="663" y="73"/>
      <point x="681" y="75"/>
      <point x="689" y="75" type="qcurve"/>
      <point x="698" y="76"/>
      <point x="715" y="77"/>
      <point x="723" y="77" type="qcurve" smooth="yes"/>
      <point x="732" y="77"/>
      <point x="749" y="79"/>
      <point x="757" y="79" type="qcurve"/>
      <point x="785" y="86"/>
      <point x="831" y="125"/>
      <point x="839" y="153" type="qcurve"/>
      <point x="857" y="247"/>
      <point x="857" y="346" type="qcurve" smooth="yes"/>
      <point x="857" y="355"/>
      <point x="856" y="373"/>
      <point x="856" y="381" type="qcurve"/>
      <point x="854" y="420"/>
      <point x="844" y="497"/>
      <point x="836" y="536" type="qcurve" smooth="yes"/>
      <point x="834" y="544"/>
      <point x="831" y="560"/>
      <point x="829" y="568" type="qcurve" smooth="yes"/>
      <point x="826" y="576"/>
      <point x="818" y="593"/>
      <point x="811" y="600" type="qcurve"/>
      <point x="800" y="617"/>
      <point x="767" y="639"/>
      <point x="747" y="641" type="qcurve"/>
      <point x="739" y="641"/>
      <point x="723" y="644"/>
    </contour>
    <contour>
      <point x="553" y="175" type="line"/>
      <point x="495" y="175"/>
      <point x="381" y="174"/>
      <point x="323" y="176" type="qcurve"/>
      <point x="322" y="181"/>
      <point x="322" y="191"/>
      <point x="322" y="196" type="qcurve"/>
      <point x="321" y="209"/>
      <point x="320" y="237"/>
      <point x="320" y="250" type="qcurve"/>
      <point x="318" y="308"/>
      <point x="320" y="422"/>
      <point x="322" y="479" type="qcurve" smooth="yes"/>
      <point x="323" y="493"/>
      <point x="325" y="520"/>
      <point x="325" y="535" type="qcurve" smooth="yes"/>
      <point x="325" y="545"/>
      <point x="326" y="550" type="qcurve"/>
      <point x="383" y="552"/>
      <point x="494" y="552"/>
      <point x="551" y="550" type="qcurve"/>
      <point x="553" y="508"/>
      <point x="556" y="426"/>
      <point x="556" y="384" type="qcurve"/>
      <point x="557" y="346"/>
      <point x="556" y="270"/>
      <point x="555" y="232" type="qcurve" smooth="yes"/>
    </contour>
    <contour>
      <point x="715" y="654" type="line"/>
      <point x="721" y="654"/>
      <point x="730" y="653"/>
      <point x="734" y="652" type="qcurve" smooth="yes"/>
      <point x="739" y="651"/>
      <point x="748" y="651" type="qcurve"/>
      <point x="793" y="647"/>
      <point x="818" y="607" type="qcurve"/>
      <point x="825" y="599"/>
      <point x="835" y="577"/>
      <point x="840" y="566" type="qcurve"/>
      <point x="840" y="561" type="line"/>
      <point x="860" y="551"/>
      <point x="874" y="529" type="qcurve"/>
      <point x="881" y="521"/>
      <point x="891" y="499"/>
      <point x="896" y="488" type="qcurve"/>
      <point x="898" y="476" type="line"/>
      <point x="902" y="460" type="line"/>
      <point x="919" y="381"/>
      <point x="922" y="303" type="qcurve"/>
      <point x="922" y="286" type="line" smooth="yes"/>
      <point x="922" y="281"/>
      <point x="923" y="273"/>
      <point x="923" y="268" type="qcurve" smooth="yes"/>
      <point x="923" y="166"/>
      <point x="905" y="72" type="qcurve"/>
      <point x="897" y="42"/>
      <point x="846" y="-1"/>
      <point x="815" y="-9" type="qcurve"/>
      <point x="811" y="-9"/>
      <point x="803" y="-10"/>
      <point x="799" y="-10" type="qcurve"/>
      <point x="794" y="-11"/>
      <point x="784" y="-11"/>
      <point x="779" y="-11" type="qcurve" smooth="yes"/>
      <point x="771" y="-11"/>
      <point x="756" y="-12"/>
      <point x="745" y="-13" type="qcurve"/>
      <point x="740" y="-13"/>
      <point x="729" y="-14"/>
      <point x="723" y="-15" type="qcurve"/>
      <point x="720" y="-15"/>
      <point x="713" y="-16"/>
      <point x="710" y="-16" type="qcurve"/>
      <point x="663" y="-18"/>
      <point x="565" y="-20"/>
      <point x="518" y="-20" type="qcurve" smooth="yes"/>
      <point x="494" y="-20"/>
      <point x="446" y="-20"/>
      <point x="422" y="-19" type="qcurve" smooth="yes"/>
      <point x="360" y="-17"/>
      <point x="235" y="-8"/>
      <point x="176" y="-1" type="qcurve"/>
      <point x="147" y="5"/>
      <point x="94" y="47"/>
      <point x="86" y="79" type="qcurve" smooth="yes"/>
      <point x="83" y="91" type="line"/>
      <point x="64" y="102"/>
      <point x="35" y="135"/>
      <point x="30" y="157" type="qcurve" smooth="yes"/>
      <point x="25" y="180"/>
      <point x="17" y="230"/>
      <point x="15" y="256" type="qcurve" smooth="yes"/>
      <point x="13" y="276"/>
      <point x="9" y="324"/>
      <point x="10" y="345" type="qcurve"/>
      <point x="10" y="368" type="line" smooth="yes"/>
      <point x="10" y="372"/>
      <point x="11" y="379"/>
      <point x="11" y="382" type="qcurve"/>
      <point x="14" y="409" type="line" smooth="yes"/>
      <point x="16" y="423"/>
      <point x="18" y="453"/>
      <point x="20" y="467" type="qcurve"/>
      <point x="24" y="487" type="line"/>
      <point x="27" y="503" type="line"/>
      <point x="43" y="570" type="line"/>
      <point x="43" y="568" type="line"/>
      <point x="43" y="570"/>
      <point x="45" y="572"/>
      <point x="45" y="573" type="qcurve"/>
      <point x="49" y="581"/>
      <point x="58" y="599"/>
      <point x="63" y="605" type="qcurve"/>
      <point x="63" y="604" type="line"/>
      <point x="77" y="621"/>
      <point x="111" y="644"/>
      <point x="132" y="648" type="qcurve"/>
      <point x="138" y="648"/>
      <point x="148" y="650" type="qcurve"/>
      <point x="166" y="652" type="line"/>
      <point x="165" y="652" type="line"/>
      <point x="232" y="659" type="line"/>
      <point x="340" y="668"/>
      <point x="450" y="668" type="qcurve" smooth="yes"/>
      <point x="500" y="668"/>
      <point x="602" y="665"/>
      <point x="652" y="661" type="qcurve"/>
      <point x="657" y="660"/>
      <point x="665" y="660" type="qcurve"/>
      <point x="684" y="658" type="line"/>
      <point x="691" y="658"/>
      <point x="708" y="655"/>
      <point x="714" y="654" type="qcurve"/>
    </contour>
    <contour>
      <point x="545" y="232" type="line" smooth="yes"/>
      <point x="546" y="259"/>
      <point x="546" y="312"/>
      <point x="546" y="339" type="qcurve" smooth="yes"/>
      <point x="546" y="384" type="line" smooth="yes"/>
      <point x="546" y="405"/>
      <point x="546" y="444"/>
      <point x="545" y="464" type="qcurve"/>
      <point x="505" y="464" type="line" smooth="yes"/>
      <point x="474" y="464"/>
      <point x="422" y="463"/>
      <point x="391" y="462" type="qcurve"/>
      <point x="391" y="457" type="line" smooth="yes"/>
      <point x="391" y="446"/>
      <point x="390" y="425"/>
      <point x="389" y="417" type="qcurve"/>
      <point x="389" y="414"/>
      <point x="388" y="405"/>
      <point x="388" y="401" type="qcurve" smooth="yes"/>
      <point x="388" y="393"/>
      <point x="387" y="377"/>
      <point x="387" y="369" type="qcurve"/>
      <point x="386" y="338"/>
      <point x="384" y="277"/>
      <point x="384" y="245" type="qcurve" smooth="yes"/>
      <point x="384" y="230"/>
      <point x="384" y="200"/>
      <point x="385" y="185" type="qcurve"/>
      <point x="413" y="184"/>
      <point x="467" y="185"/>
      <point x="495" y="185" type="qcurve" smooth="yes"/>
      <point x="543" y="185" type="line"/>
    </contour>
  </outline>
</glyph>
<glyph name="one" format="2">
  <advance width="539"/>
  <unicode hex="0031"/>
  <outline>
    <contour>
      <point x="43" y="630" type="qcurve"/>
      <point x="38" y="606"/>
      <point x="31" y="558"/>
      <point x="27" y="535" type="qcurve"/>
      <point x="58" y="540"/>
      <point x="121" y="546"/>
      <point x="153" y="548" type="qcurve"/>
      <point x="151" y="506"/>
      <point x="148" y="425"/>
      <point x="148" y="383" type="qcurve" smooth="yes"/>
      <point x="148" y="345" type="line"/>
      <point x="148" y="327" type="line" smooth="yes"/>
      <point x="148" y="263"/>
      <point x="152" y="137"/>
      <point x="156" y="73" type="qcurve"/>
      <point x="183" y="70"/>
      <point x="237" y="68"/>
      <point x="264" y="68" type="qcurve" smooth="yes"/>
      <point x="283" y="68"/>
      <point x="319" y="69"/>
      <point x="336" y="70" type="qcurve" smooth="yes"/>
      <point x="362" y="72"/>
      <point x="414" y="79"/>
      <point x="439" y="84" type="qcurve"/>
      <point x="449" y="150"/>
      <point x="458" y="279"/>
      <point x="458" y="345" type="qcurve" smooth="yes"/>
      <point x="458" y="354"/>
      <point x="459" y="373"/>
      <point x="457" y="381" type="qcurve"/>
      <point x="457" y="421"/>
      <point x="451" y="498"/>
      <point x="447" y="538" type="qcurve"/>
      <point x="435" y="637" type="line"/>
      <point x="418" y="640"/>
      <point x="386" y="647"/>
      <point x="369" y="650" type="qcurve" smooth="yes"/>
      <point x="347" y="653"/>
      <point x="304" y="657"/>
      <point x="283" y="657" type="qcurve"/>
      <point x="159" y="663"/>
    </contour>
    <contour>
      <point x="40" y="640" type="line"/>
      <point x="136" y="668"/>
      <point x="245" y="668" type="qcurve" smooth="yes"/>
      <point x="253" y="668"/>
      <point x="276" y="668"/>
      <point x="284" y="667" type="qcurve" smooth="yes"/>
      <point x="304" y="666"/>
      <point x="350" y="663"/>
      <point x="370" y="660" type="qcurve"/>
      <point x="444" y="646" type="line"/>
      <point x="452" y="577" type="line"/>
      <point x="463" y="575" type="line"/>
      <point x="500" y="568" type="line"/>
      <point x="513" y="461" type="line" smooth="yes"/>
      <point x="517" y="422"/>
      <point x="523" y="345"/>
      <point x="523" y="305" type="qcurve"/>
      <point x="524" y="299"/>
      <point x="524" y="283"/>
      <point x="524" y="276" type="qcurve" smooth="yes"/>
      <point x="524" y="267" type="line" smooth="yes"/>
      <point x="524" y="200"/>
      <point x="515" y="66"/>
      <point x="504" y="-3" type="qcurve"/>
      <point x="452" y="-13"/>
      <point x="392" y="-18" type="qcurve" smooth="yes"/>
      <point x="375" y="-19"/>
      <point x="339" y="-20"/>
      <point x="320" y="-20" type="qcurve" smooth="yes"/>
      <point x="292" y="-20"/>
      <point x="234" y="-18"/>
      <point x="202" y="-14" type="qcurve"/>
      <point x="200" y="4"/>
      <point x="199" y="40"/>
      <point x="198" y="59" type="qcurve"/>
      <point x="185" y="60"/>
      <point x="160" y="62"/>
      <point x="146" y="64" type="qcurve"/>
      <point x="142" y="128"/>
      <point x="138" y="263"/>
      <point x="138" y="327" type="qcurve" smooth="yes"/>
      <point x="138" y="383" type="line"/>
      <point x="138" y="455" type="line"/>
      <point x="121" y="453"/>
      <point x="88" y="448"/>
      <point x="71" y="445" type="qcurve"/>
      <point x="77" y="484" type="line" smooth="yes"/>
      <point x="79" y="496"/>
      <point x="82" y="521"/>
      <point x="84" y="533" type="qcurve"/>
      <point x="67" y="531"/>
      <point x="32" y="526"/>
      <point x="15" y="523" type="qcurve"/>
      <point x="21" y="562" type="line" smooth="yes"/>
      <point x="26" y="600"/>
      <point x="33" y="632" type="qcurve"/>
    </contour>
  </outline>
</glyph>
<glyph name="two" format="2">
  <advance width="933"/>
  <unicode hex="0032"/>
  <outline>
    <contour>
      <point x="682" y="648" type="qcurve"/>
      <point x="674" y="650"/>
      <point x="657" y="650"/>
      <point x="649" y="651" type="qcurve" smooth="yes"/>
      <point x="579" y="656"/>
      <point x="440" y="659"/>
      <point x="369" y="656" type="qcurve"/>
      <point x="361" y="656"/>
      <point x="342" y="655"/>
      <point x="334" y="655" type="qcurve"/>
      <point x="284" y="652"/>
      <point x="185" y="645"/>
      <point x="134" y="638" type="qcurve"/>
      <point x="106" y="633"/>
      <point x="63" y="594"/>
      <point x="53" y="568" type="qcurve"/>
      <point x="48" y="543"/>
      <point x="35" y="494"/>
      <point x="30" y="468" type="qcurve"/>
      <point x="103" y="473"/>
      <point x="249" y="477"/>
      <point x="322" y="479" type="qcurve"/>
      <point x="322" y="488"/>
      <point x="324" y="506"/>
      <point x="324" y="515" type="qcurve" smooth="yes"/>
      <point x="324" y="523"/>
      <point x="326" y="541"/>
      <point x="326" y="550" type="qcurve"/>
      <point x="335" y="550"/>
      <point x="353" y="552"/>
      <point x="362" y="551" type="qcurve"/>
      <point x="410" y="553"/>
      <point x="503" y="552"/>
      <point x="551" y="550" type="qcurve"/>
      <point x="552" y="544"/>
      <point x="552" y="531"/>
      <point x="552" y="524" type="qcurve" smooth="yes"/>
      <point x="552" y="517"/>
      <point x="552" y="503"/>
      <point x="553" y="495" type="qcurve"/>
      <point x="555" y="422" type="line"/>
      <point x="535" y="423"/>
      <point x="496" y="421"/>
      <point x="476" y="422" type="qcurve"/>
      <point x="359" y="422" type="line" smooth="yes"/>
      <point x="348" y="422"/>
      <point x="330" y="421"/>
      <point x="320" y="421" type="qcurve" smooth="yes"/>
      <point x="299" y="421" type="line" smooth="yes"/>
      <point x="198" y="421"/>
      <point x="95" y="418" type="qcurve"/>
      <point x="75" y="419"/>
      <point x="40" y="396"/>
      <point x="29" y="379" type="qcurve"/>
      <point x="26" y="370" type="line"/>
      <point x="22" y="360" type="line"/>
      <point x="20" y="352" type="line"/>
      <point x="20" y="345" type="line"/>
      <point x="19" y="323"/>
      <point x="23" y="279"/>
      <point x="25" y="257" type="qcurve" smooth="yes"/>
      <point x="28" y="216"/>
      <point x="46" y="136"/>
      <point x="58" y="96" type="qcurve"/>
      <point x="66" y="95" type="line"/>
      <point x="72" y="93" type="line"/>
      <point x="127" y="85"/>
      <point x="239" y="76"/>
      <point x="295" y="72" type="qcurve"/>
      <point x="299" y="72"/>
      <point x="307" y="72"/>
      <point x="311" y="71" type="qcurve"/>
      <point x="322" y="71" type="line"/>
      <point x="331" y="70" type="line"/>
      <point x="367" y="68"/>
      <point x="439" y="68"/>
      <point x="476" y="68" type="qcurve"/>
      <point x="494" y="67"/>
      <point x="531" y="68"/>
      <point x="549" y="68" type="qcurve"/>
      <point x="619" y="70" type="line"/>
      <point x="654" y="72"/>
      <point x="722" y="77"/>
      <point x="757" y="79" type="qcurve"/>
      <point x="774" y="81"/>
      <point x="806" y="85"/>
      <point x="822" y="89" type="qcurve"/>
      <point x="827" y="104"/>
      <point x="835" y="136"/>
      <point x="839" y="153" type="qcurve" smooth="yes"/>
      <point x="841" y="162"/>
      <point x="844" y="179"/>
      <point x="846" y="187" type="qcurve"/>
      <point x="773" y="182"/>
      <point x="627" y="177"/>
      <point x="553" y="175" type="qcurve"/>
      <point x="495" y="175"/>
      <point x="381" y="174"/>
      <point x="323" y="176" type="qcurve"/>
      <point x="322" y="195"/>
      <point x="320" y="232"/>
      <point x="320" y="250" type="qcurve" smooth="yes"/>
      <point x="320" y="306" type="line"/>
      <point x="358" y="306" type="line"/>
      <point x="476" y="306" type="line" smooth="yes"/>
      <point x="496" y="306"/>
      <point x="536" y="307"/>
      <point x="556" y="306" type="qcurve"/>
      <point x="614" y="307"/>
      <point x="726" y="307"/>
      <point x="783" y="307" type="qcurve" smooth="yes"/>
      <point x="797" y="307"/>
      <point x="824" y="319"/>
      <point x="845" y="339"/>
      <point x="857" y="365"/>
      <point x="856" y="380" type="qcurve" smooth="yes"/>
      <point x="855" y="394"/>
      <point x="854" y="420"/>
      <point x="852" y="434" type="qcurve"/>
      <point x="852" y="441"/>
      <point x="850" y="453"/>
      <point x="849" y="460" type="qcurve"/>
      <point x="849" y="469" type="line"/>
      <point x="847" y="477"/>
      <point x="844" y="493"/>
      <point x="842" y="502" type="qcurve"/>
      <point x="841" y="515" type="line"/>
      <point x="839" y="529"/>
      <point x="833" y="554"/>
      <point x="829" y="568" type="qcurve" smooth="yes"/>
      <point x="821" y="595"/>
      <point x="776" y="637"/>
      <point x="747" y="641" type="qcurve" smooth="yes"/>
      <point x="731" y="643"/>
      <point x="699" y="647"/>
    </contour>
    <contour>
      <point x="683" y="658" type="qcurve" smooth="yes"/>
      <point x="694" y="657"/>
      <point x="715" y="656"/>
      <point x="724" y="654" type="qcurve"/>
      <point x="723" y="654" type="line"/>
      <point x="748" y="651" type="line"/>
      <point x="780" y="646"/>
      <point x="830" y="600"/>
      <point x="839" y="571" type="qcurve"/>
      <point x="842" y="559" type="line"/>
      <point x="861" y="548"/>
      <point x="889" y="513"/>
      <point x="895" y="493" type="qcurve" smooth="yes"/>
      <point x="899" y="480"/>
      <point x="905" y="455"/>
      <point x="907" y="439" type="qcurve"/>
      <point x="908" y="426" type="line"/>
      <point x="911" y="410" type="line" smooth="yes"/>
      <point x="912" y="404"/>
      <point x="913" y="394"/>
      <point x="915" y="391" type="qcurve"/>
      <point x="915" y="382" type="line"/>
      <point x="915" y="380"/>
      <point x="916" y="377"/>
      <point x="916" y="375" type="qcurve"/>
      <point x="918" y="365"/>
      <point x="918" y="357" type="qcurve"/>
      <point x="920" y="347"/>
      <point x="920" y="325"/>
      <point x="921" y="315" type="qcurve"/>
      <point x="921" y="312"/>
      <point x="922" y="305"/>
      <point x="922" y="302" type="qcurve"/>
      <point x="923" y="285"/>
      <point x="909" y="255"/>
      <point x="885" y="232"/>
      <point x="855" y="219"/>
      <point x="839" y="219" type="qcurve" smooth="yes"/>
      <point x="782" y="219"/>
      <point x="669" y="219"/>
      <point x="611" y="218" type="qcurve"/>
      <point x="598" y="219"/>
      <point x="573" y="218"/>
      <point x="559" y="218" type="qcurve" smooth="yes"/>
      <point x="386" y="218" type="line"/>
      <point x="386" y="185" type="line"/>
      <point x="413" y="184"/>
      <point x="467" y="185"/>
      <point x="495" y="185" type="qcurve" smooth="yes"/>
      <point x="553" y="185" type="line"/>
      <point x="627" y="187"/>
      <point x="786" y="193"/>
      <point x="859" y="198" type="qcurve"/>
      <point x="853" y="170" type="line"/>
      <point x="849" y="151" type="line"/>
      <point x="840" y="115" type="line"/>
      <point x="859" y="116"/>
      <point x="897" y="118"/>
      <point x="915" y="120" type="qcurve"/>
      <point x="909" y="92" type="line"/>
      <point x="905" y="73" type="line" smooth="yes"/>
      <point x="901" y="56"/>
      <point x="891" y="18"/>
      <point x="886" y="3" type="qcurve"/>
      <point x="867" y="-2"/>
      <point x="842" y="-5"/>
      <point x="830" y="-7" type="qcurve"/>
      <point x="813" y="-9" type="line"/>
      <point x="796" y="-10"/>
      <point x="762" y="-12"/>
      <point x="745" y="-14" type="qcurve" smooth="yes"/>
      <point x="728" y="-16"/>
      <point x="692" y="-17"/>
      <point x="675" y="-18" type="qcurve"/>
      <point x="605" y="-20" type="line"/>
      <point x="581" y="-20" type="line" smooth="yes"/>
      <point x="569" y="-20"/>
      <point x="543" y="-21"/>
      <point x="531" y="-20" type="qcurve"/>
      <point x="494" y="-20"/>
      <point x="422" y="-20"/>
      <point x="387" y="-18" type="qcurve"/>
      <point x="385" y="-18"/>
      <point x="380" y="-17"/>
      <point x="378" y="-17" type="qcurve"/>
      <point x="365" y="-17" type="line"/>
      <point x="360" y="-16"/>
      <point x="350" y="-16" type="qcurve"/>
      <point x="294" y="-12"/>
      <point x="182" y="-3"/>
      <point x="127" y="5" type="qcurve"/>
      <point x="125" y="5"/>
      <point x="123" y="7"/>
      <point x="122" y="7" type="qcurve"/>
      <point x="106" y="8" type="line"/>
      <point x="100" y="25"/>
      <point x="90" y="61"/>
      <point x="86" y="80" type="qcurve"/>
      <point x="71" y="83" type="line"/>
      <point x="69" y="83"/>
      <point x="67" y="85"/>
      <point x="66" y="85" type="qcurve"/>
      <point x="50" y="86" type="line"/>
      <point x="37" y="127"/>
      <point x="18" y="214"/>
      <point x="15" y="256" type="qcurve" smooth="yes"/>
      <point x="13" y="277"/>
      <point x="9" y="323"/>
      <point x="10" y="345" type="qcurve"/>
      <point x="10" y="352" type="line"/>
      <point x="12" y="360" type="line"/>
      <point x="17" y="373" type="line"/>
      <point x="20" y="383" type="line"/>
      <point x="30" y="399"/>
      <point x="64" y="422"/>
      <point x="82" y="426" type="qcurve"/>
      <point x="84" y="434"/>
      <point x="87" y="447"/>
      <point x="89" y="452" type="qcurve"/>
      <point x="89" y="451" type="line"/>
      <point x="91" y="461" type="line"/>
      <point x="17" y="457" type="line"/>
      <point x="20" y="472"/>
      <point x="29" y="516"/>
      <point x="33" y="530" type="qcurve"/>
      <point x="33" y="529" type="line"/>
      <point x="43" y="568" type="line"/>
      <point x="54" y="597"/>
      <point x="102" y="642"/>
      <point x="132" y="648" type="qcurve"/>
      <point x="183" y="655"/>
      <point x="283" y="662"/>
      <point x="333" y="665" type="qcurve"/>
      <point x="351" y="665" type="line" smooth="yes"/>
      <point x="356" y="665"/>
      <point x="364" y="666"/>
      <point x="369" y="666" type="qcurve"/>
      <point x="391" y="667"/>
      <point x="443" y="668"/>
      <point x="465" y="668" type="qcurve" smooth="yes"/>
      <point x="510" y="668"/>
      <point x="605" y="665"/>
      <point x="650" y="661" type="qcurve"/>
      <point x="652" y="661"/>
      <point x="658" y="660"/>
      <point x="660" y="660" type="qcurve"/>
      <point x="666" y="660"/>
      <point x="678" y="659"/>
    </contour>
    <contour>
      <point x="545" y="432" type="line"/>
      <point x="545" y="440"/>
      <point x="544" y="455"/>
      <point x="544" y="463" type="qcurve"/>
      <point x="530" y="464"/>
      <point x="504" y="464"/>
      <point x="490" y="464" type="qcurve" smooth="yes"/>
      <point x="472" y="464"/>
      <point x="435" y="464"/>
      <point x="417" y="463" type="qcurve"/>
      <point x="392" y="463" type="line"/>
      <point x="392" y="461"/>
      <point x="391" y="454"/>
      <point x="391" y="452" type="qcurve"/>
      <point x="391" y="447"/>
      <point x="390" y="441"/>
      <point x="390" y="437" type="qcurve" smooth="yes"/>
      <point x="390" y="432" type="line"/>
      <point x="476" y="432" type="line"/>
      <point x="487" y="431"/>
      <point x="506" y="432"/>
      <point x="516" y="432" type="qcurve" smooth="yes"/>
    </contour>
  </outline>
</glyph>
<glyph name="three" format="2">
  <advance width="933"/>
  <unicode hex="0033"/>
  <outline>
    <contour>
      <point x="680" y="648" type="qcurve"/>
      <point x="672" y="650"/>
      <point x="655" y="650"/>
      <point x="647" y="651" type="qcurve" smooth="yes"/>
      <point x="577" y="656"/>
      <point x="438" y="659"/>
      <point x="367" y="656" type="qcurve"/>
      <point x="359" y="656"/>
      <point x="340" y="655"/>
      <point x="332" y="655" type="qcurve"/>
      <point x="282" y="652"/>
      <point x="183" y="645"/>
      <point x="132" y="638" type="qcurve"/>
      <point x="104" y="633"/>
      <point x="61" y="594"/>
      <point x="51" y="568" type="qcurve"/>
      <point x="46" y="543"/>
      <point x="33" y="494"/>
      <point x="28" y="468" type="qcurve"/>
      <point x="101" y="473"/>
      <point x="247" y="477"/>
      <point x="320" y="479" type="qcurve"/>
      <point x="320" y="488"/>
      <point x="322" y="506"/>
      <point x="322" y="515" type="qcurve" smooth="yes"/>
      <point x="322" y="523"/>
      <point x="324" y="541"/>
      <point x="324" y="550" type="qcurve"/>
      <point x="333" y="550"/>
      <point x="351" y="552"/>
      <point x="360" y="551" type="qcurve"/>
      <point x="408" y="553"/>
      <point x="501" y="552"/>
      <point x="549" y="550" type="qcurve"/>
      <point x="550" y="544"/>
      <point x="550" y="531"/>
      <point x="550" y="524" type="qcurve" smooth="yes"/>
      <point x="550" y="517"/>
      <point x="550" y="504"/>
      <point x="551" y="496" type="qcurve"/>
      <point x="551" y="478"/>
      <point x="553" y="442"/>
      <point x="553" y="422" type="qcurve"/>
      <point x="533" y="423"/>
      <point x="494" y="421"/>
      <point x="474" y="422" type="qcurve"/>
      <point x="357" y="422" type="line" smooth="yes"/>
      <point x="346" y="422"/>
      <point x="328" y="421"/>
      <point x="318" y="421" type="qcurve"/>
      <point x="318" y="392"/>
      <point x="317" y="336"/>
      <point x="318" y="307" type="qcurve"/>
      <point x="356" y="307" type="line"/>
      <point x="474" y="307" type="line"/>
      <point x="554" y="307" type="line"/>
      <point x="554" y="287" type="line"/>
      <point x="553" y="273"/>
      <point x="553" y="246"/>
      <point x="553" y="232" type="qcurve"/>
      <point x="551" y="175" type="line"/>
      <point x="493" y="175"/>
      <point x="379" y="174"/>
      <point x="321" y="176" type="qcurve"/>
      <point x="320" y="195"/>
      <point x="318" y="232"/>
      <point x="318" y="250" type="qcurve"/>
      <point x="244" y="251"/>
      <point x="97" y="254"/>
      <point x="23" y="257" type="qcurve"/>
      <point x="25" y="232"/>
      <point x="33" y="185"/>
      <point x="38" y="160" type="qcurve"/>
      <point x="46" y="131"/>
      <point x="94" y="92"/>
      <point x="121" y="87" type="qcurve"/>
      <point x="164" y="81"/>
      <point x="249" y="76"/>
      <point x="293" y="72" type="qcurve"/>
      <point x="302" y="72"/>
      <point x="320" y="71"/>
      <point x="329" y="70" type="qcurve" smooth="yes"/>
      <point x="365" y="68"/>
      <point x="437" y="68"/>
      <point x="474" y="68" type="qcurve"/>
      <point x="492" y="67"/>
      <point x="529" y="68"/>
      <point x="547" y="68" type="qcurve"/>
      <point x="617" y="70" type="line"/>
      <point x="651" y="72"/>
      <point x="717" y="75"/>
      <point x="749" y="79" type="qcurve"/>
      <point x="755" y="79" type="line"/>
      <point x="783" y="86"/>
      <point x="829" y="125"/>
      <point x="837" y="153" type="qcurve" smooth="yes"/>
      <point x="839" y="162"/>
      <point x="842" y="179"/>
      <point x="844" y="187" type="qcurve"/>
      <point x="851" y="255" type="line"/>
      <point x="852" y="265" type="line"/>
      <point x="852" y="274" type="line"/>
      <point x="853" y="284" type="line"/>
      <point x="854" y="290" type="line"/>
      <point x="854" y="305"/>
      <point x="843" y="332"/>
      <point x="823" y="352"/>
      <point x="797" y="364"/>
      <point x="782" y="363" type="qcurve"/>
      <point x="797" y="363"/>
      <point x="823" y="375"/>
      <point x="834" y="384" type="qcurve"/>
      <point x="844" y="395"/>
      <point x="851" y="420"/>
      <point x="850" y="434" type="qcurve"/>
      <point x="850" y="436"/>
      <point x="849" y="441"/>
      <point x="849" y="443" type="qcurve"/>
      <point x="848" y="453" type="line"/>
      <point x="847" y="461" type="line"/>
      <point x="847" y="469" type="line"/>
      <point x="845" y="477"/>
      <point x="842" y="493"/>
      <point x="840" y="502" type="qcurve"/>
      <point x="839" y="515" type="line"/>
      <point x="837" y="529"/>
      <point x="831" y="554"/>
      <point x="827" y="568" type="qcurve" smooth="yes"/>
      <point x="819" y="595"/>
      <point x="774" y="637"/>
      <point x="745" y="641" type="qcurve" smooth="yes"/>
      <point x="729" y="643"/>
      <point x="697" y="647"/>
    </contour>
    <contour>
      <point x="681" y="658" type="qcurve" smooth="yes"/>
      <point x="692" y="657"/>
      <point x="713" y="656"/>
      <point x="722" y="654" type="qcurve"/>
      <point x="721" y="654" type="line"/>
      <point x="746" y="651" type="line"/>
      <point x="778" y="646"/>
      <point x="828" y="600"/>
      <point x="837" y="571" type="qcurve"/>
      <point x="840" y="559" type="line"/>
      <point x="859" y="548"/>
      <point x="887" y="513"/>
      <point x="893" y="493" type="qcurve" smooth="yes"/>
      <point x="897" y="480"/>
      <point x="903" y="455"/>
      <point x="905" y="439" type="qcurve"/>
      <point x="906" y="426" type="line"/>
      <point x="909" y="410" type="line" smooth="yes"/>
      <point x="910" y="404"/>
      <point x="911" y="394"/>
      <point x="913" y="391" type="qcurve"/>
      <point x="913" y="383" type="line"/>
      <point x="914" y="375" type="line"/>
      <point x="915" y="365" type="line"/>
      <point x="915" y="360" type="line"/>
      <point x="915" y="358"/>
      <point x="916" y="357"/>
      <point x="916" y="356" type="qcurve"/>
      <point x="916" y="342"/>
      <point x="907" y="310"/>
      <point x="896" y="298" type="qcurve"/>
      <point x="891" y="294"/>
      <point x="881" y="288"/>
      <point x="876" y="285" type="qcurve"/>
      <point x="896" y="274"/>
      <point x="920" y="235"/>
      <point x="920" y="212" type="qcurve"/>
      <point x="920" y="210"/>
      <point x="919" y="208"/>
      <point x="919" y="206" type="qcurve"/>
      <point x="918" y="196" type="line"/>
      <point x="918" y="187" type="line"/>
      <point x="917" y="176" type="line"/>
      <point x="910" y="106" type="line"/>
      <point x="907" y="92" type="line"/>
      <point x="903" y="70" type="line"/>
      <point x="895" y="41"/>
      <point x="844" y="-1"/>
      <point x="813" y="-9" type="qcurve"/>
      <point x="806" y="-9" type="line"/>
      <point x="785" y="-11"/>
      <point x="738" y="-14"/>
      <point x="716" y="-16" type="qcurve"/>
      <point x="673" y="-18" type="line"/>
      <point x="603" y="-20" type="line"/>
      <point x="579" y="-20" type="line" smooth="yes"/>
      <point x="567" y="-20"/>
      <point x="541" y="-21"/>
      <point x="529" y="-20" type="qcurve"/>
      <point x="492" y="-20"/>
      <point x="419" y="-20"/>
      <point x="384" y="-18" type="qcurve" smooth="yes"/>
      <point x="375" y="-17"/>
      <point x="357" y="-16"/>
      <point x="348" y="-16" type="qcurve"/>
      <point x="334" y="-14"/>
      <point x="305" y="-13"/>
      <point x="291" y="-12" type="qcurve" smooth="yes"/>
      <point x="262" y="-10"/>
      <point x="204" y="-5"/>
      <point x="175" y="-1" type="qcurve"/>
      <point x="145" y="5"/>
      <point x="92" y="47"/>
      <point x="84" y="79" type="qcurve" smooth="yes"/>
      <point x="81" y="91" type="line"/>
      <point x="62" y="102"/>
      <point x="33" y="135"/>
      <point x="28" y="157" type="qcurve" smooth="yes"/>
      <point x="18" y="203"/>
      <point x="12" y="267" type="qcurve"/>
      <point x="86" y="264"/>
      <point x="254" y="261"/>
      <point x="328" y="260" type="qcurve"/>
      <point x="328" y="248"/>
      <point x="329" y="213"/>
      <point x="330" y="201" type="qcurve"/>
      <point x="330" y="195"/>
      <point x="331" y="192"/>
      <point x="331" y="186" type="qcurve"/>
      <point x="373" y="185"/>
      <point x="451" y="185"/>
      <point x="493" y="185" type="qcurve" smooth="yes"/>
      <point x="541" y="185" type="line"/>
      <point x="541" y="193"/>
      <point x="542" y="210"/>
      <point x="543" y="219" type="qcurve"/>
      <point x="364" y="219" type="line"/>
      <point x="363" y="236"/>
      <point x="364" y="278"/>
      <point x="364" y="297" type="qcurve"/>
      <point x="308" y="297" type="line"/>
      <point x="307" y="316"/>
      <point x="308" y="364"/>
      <point x="308" y="383" type="qcurve" smooth="yes"/>
      <point x="308" y="389" type="line"/>
      <point x="248" y="387"/>
      <point x="125" y="382"/>
      <point x="71" y="379" type="qcurve"/>
      <point x="74" y="394"/>
      <point x="83" y="438"/>
      <point x="87" y="452" type="qcurve"/>
      <point x="87" y="451" type="line"/>
      <point x="89" y="461" type="line"/>
      <point x="15" y="457" type="line"/>
      <point x="18" y="472"/>
      <point x="27" y="516"/>
      <point x="31" y="530" type="qcurve"/>
      <point x="31" y="529" type="line"/>
      <point x="41" y="568" type="line"/>
      <point x="52" y="597"/>
      <point x="100" y="642"/>
      <point x="130" y="648" type="qcurve"/>
      <point x="181" y="655"/>
      <point x="281" y="662"/>
      <point x="331" y="665" type="qcurve"/>
      <point x="349" y="665" type="line" smooth="yes"/>
      <point x="354" y="665"/>
      <point x="362" y="666"/>
      <point x="367" y="666" type="qcurve"/>
      <point x="389" y="667"/>
      <point x="441" y="668"/>
      <point x="463" y="668" type="qcurve" smooth="yes"/>
      <point x="508" y="668"/>
      <point x="603" y="665"/>
      <point x="648" y="661" type="qcurve"/>
      <point x="650" y="661"/>
      <point x="656" y="660"/>
      <point x="658" y="660" type="qcurve"/>
      <point x="664" y="660"/>
      <point x="676" y="659"/>
    </contour>
    <contour>
      <point x="543" y="432" type="line"/>
      <point x="543" y="439"/>
      <point x="543" y="452"/>
      <point x="542" y="459" type="qcurve"/>
      <point x="542" y="463" type="line"/>
      <point x="528" y="464"/>
      <point x="502" y="464"/>
      <point x="488" y="464" type="qcurve" smooth="yes"/>
      <point x="470" y="464"/>
      <point x="433" y="464"/>
      <point x="415" y="463" type="qcurve"/>
      <point x="390" y="463" type="line"/>
      <point x="390" y="461"/>
      <point x="389" y="454"/>
      <point x="389" y="452" type="qcurve"/>
      <point x="389" y="447"/>
      <point x="388" y="441"/>
      <point x="388" y="437" type="qcurve" smooth="yes"/>
      <point x="388" y="432" type="line"/>
      <point x="474" y="432" type="line"/>
      <point x="485" y="431"/>
      <point x="504" y="432"/>
      <point x="514" y="432" type="qcurve" smooth="yes"/>
    </contour>
  </outline>
</glyph>
<glyph name="five" format="2">
  <advance width="933"/>
  <unicode hex="0035"/>
  <outline>
    <contour>
      <point x="614" y="653" type="qcurve" smooth="yes"/>
      <point x="596" y="654"/>
      <point x="563" y="656"/>
      <point x="545" y="656" type="qcurve"/>
      <point x="527" y="657"/>
      <point x="492" y="658"/>
      <point x="475" y="658" type="qcurve" smooth="yes"/>
      <point x="404" y="658"/>
      <point x="334" y="655" type="qcurve" smooth="yes"/>
      <point x="299" y="653" type="line" smooth="yes"/>
      <point x="186" y="647"/>
      <point x="71" y="629" type="qcurve"/>
      <point x="45" y="550"/>
      <point x="30" y="468" type="qcurve"/>
      <point x="28" y="446"/>
      <point x="23" y="403"/>
      <point x="21" y="380" type="qcurve" smooth="yes"/>
      <point x="20" y="363"/>
      <point x="19" y="328"/>
      <point x="21" y="310" type="qcurve"/>
      <point x="39" y="310"/>
      <point x="75" y="309"/>
      <point x="92" y="308" type="qcurve"/>
      <point x="146" y="308"/>
      <point x="251" y="307"/>
      <point x="305" y="307" type="qcurve" smooth="yes"/>
      <point x="315" y="307" type="line"/>
      <point x="320" y="307" type="line"/>
      <point x="358" y="307" type="line"/>
      <point x="476" y="307" type="line"/>
      <point x="556" y="307" type="line"/>
      <point x="556" y="287"/>
      <point x="555" y="250"/>
      <point x="555" y="232" type="qcurve" smooth="yes"/>
      <point x="555" y="224"/>
      <point x="553" y="211"/>
      <point x="554" y="203" type="qcurve"/>
      <point x="554" y="196"/>
      <point x="553" y="182"/>
      <point x="553" y="175" type="qcurve"/>
      <point x="504" y="175"/>
      <point x="409" y="174"/>
      <point x="361" y="176" type="qcurve"/>
      <point x="323" y="176" type="line"/>
      <point x="321" y="213" type="line"/>
      <point x="321" y="223"/>
      <point x="320" y="241"/>
      <point x="320" y="250" type="qcurve"/>
      <point x="281" y="250" type="line"/>
      <point x="217" y="252"/>
      <point x="89" y="255"/>
      <point x="25" y="257" type="qcurve"/>
      <point x="27" y="232"/>
      <point x="35" y="185"/>
      <point x="40" y="160" type="qcurve"/>
      <point x="48" y="131"/>
      <point x="96" y="92"/>
      <point x="123" y="87" type="qcurve"/>
      <point x="166" y="81"/>
      <point x="251" y="76"/>
      <point x="295" y="72" type="qcurve"/>
      <point x="304" y="72"/>
      <point x="322" y="71"/>
      <point x="331" y="70" type="qcurve"/>
      <point x="339" y="70"/>
      <point x="357" y="68"/>
      <point x="366" y="69" type="qcurve"/>
      <point x="385" y="68"/>
      <point x="420" y="68"/>
      <point x="439" y="68" type="qcurve"/>
      <point x="493" y="67"/>
      <point x="600" y="70"/>
      <point x="654" y="72" type="qcurve"/>
      <point x="663" y="73"/>
      <point x="681" y="75"/>
      <point x="689" y="75" type="qcurve"/>
      <point x="706" y="77"/>
      <point x="740" y="78"/>
      <point x="757" y="79" type="qcurve"/>
      <point x="785" y="86"/>
      <point x="831" y="125"/>
      <point x="839" y="153" type="qcurve"/>
      <point x="841" y="167"/>
      <point x="846" y="194"/>
      <point x="848" y="208" type="qcurve"/>
      <point x="851" y="222" type="line"/>
      <point x="851" y="231"/>
      <point x="851" y="247"/>
      <point x="853" y="255" type="qcurve"/>
      <point x="853" y="264" type="line"/>
      <point x="856" y="290" type="line"/>
      <point x="855" y="304"/>
      <point x="858" y="332"/>
      <point x="857" y="346" type="qcurve" smooth="yes"/>
      <point x="856" y="375"/>
      <point x="810" y="417"/>
      <point x="781" y="418" type="qcurve" smooth="yes"/>
      <point x="724" y="420"/>
      <point x="612" y="421"/>
      <point x="555" y="422" type="qcurve" smooth="yes"/>
      <point x="535" y="423"/>
      <point x="496" y="421"/>
      <point x="476" y="422" type="qcurve"/>
      <point x="359" y="422" type="line" smooth="yes"/>
      <point x="348" y="422"/>
      <point x="330" y="421"/>
      <point x="320" y="421" type="qcurve"/>
      <point x="320" y="436"/>
      <point x="322" y="465"/>
      <point x="322" y="479" type="qcurve"/>
      <point x="323" y="498"/>
      <point x="324" y="532"/>
      <point x="326" y="550" type="qcurve"/>
      <point x="383" y="552"/>
      <point x="494" y="552"/>
      <point x="551" y="550" type="qcurve"/>
      <point x="623" y="549"/>
      <point x="764" y="541"/>
      <point x="836" y="536" type="qcurve"/>
      <point x="831" y="560"/>
      <point x="818" y="608"/>
      <point x="811" y="632" type="qcurve"/>
      <point x="794" y="635"/>
      <point x="764" y="639"/>
      <point x="747" y="641" type="qcurve" smooth="yes"/>
      <point x="715" y="645"/>
      <point x="647" y="651"/>
    </contour>
    <contour>
      <point x="615" y="663" type="line"/>
      <point x="648" y="661"/>
      <point x="716" y="655"/>
      <point x="748" y="651" type="qcurve" smooth="yes"/>
      <point x="765" y="649"/>
      <point x="801" y="644"/>
      <point x="819" y="641" type="qcurve"/>
      <point x="823" y="626"/>
      <point x="833" y="588"/>
      <point x="838" y="569" type="qcurve"/>
      <point x="875" y="563" type="line"/>
      <point x="882" y="539"/>
      <point x="900" y="471"/>
      <point x="905" y="447" type="qcurve"/>
      <point x="833" y="452"/>
      <point x="679" y="461"/>
      <point x="607" y="462" type="qcurve" smooth="yes"/>
      <point x="581" y="463"/>
      <point x="531" y="464"/>
      <point x="505" y="464" type="qcurve" smooth="yes"/>
      <point x="474" y="464"/>
      <point x="422" y="463"/>
      <point x="391" y="462" type="qcurve"/>
      <point x="390" y="454"/>
      <point x="389" y="440"/>
      <point x="389" y="432" type="qcurve"/>
      <point x="476" y="432" type="line"/>
      <point x="487" y="431"/>
      <point x="506" y="432"/>
      <point x="516" y="432" type="qcurve" smooth="yes"/>
      <point x="555" y="432" type="line" smooth="yes"/>
      <point x="569" y="432"/>
      <point x="597" y="431"/>
      <point x="611" y="431" type="qcurve"/>
      <point x="654" y="430"/>
      <point x="739" y="430"/>
      <point x="781" y="428" type="qcurve" smooth="yes"/>
      <point x="797" y="427"/>
      <point x="828" y="413"/>
      <point x="852" y="391"/>
      <point x="867" y="362"/>
      <point x="867" y="346" type="qcurve" smooth="yes"/>
      <point x="867" y="343" type="line"/>
      <point x="890" y="333"/>
      <point x="922" y="293"/>
      <point x="923" y="268" type="qcurve"/>
      <point x="923" y="261"/>
      <point x="922" y="246"/>
      <point x="922" y="239" type="qcurve"/>
      <point x="920" y="225"/>
      <point x="922" y="212" type="qcurve"/>
      <point x="919" y="185" type="line"/>
      <point x="919" y="175" type="line"/>
      <point x="917" y="167"/>
      <point x="917" y="151"/>
      <point x="917" y="142" type="qcurve"/>
      <point x="914" y="128" type="line"/>
      <point x="913" y="120"/>
      <point x="911" y="101"/>
      <point x="909" y="94" type="qcurve"/>
      <point x="904" y="70" type="line"/>
      <point x="896" y="41"/>
      <point x="845" y="-1"/>
      <point x="815" y="-9" type="qcurve"/>
      <point x="798" y="-10"/>
      <point x="763" y="-11"/>
      <point x="746" y="-13" type="qcurve"/>
      <point x="741" y="-13"/>
      <point x="729" y="-14"/>
      <point x="723" y="-15" type="qcurve"/>
      <point x="720" y="-15"/>
      <point x="713" y="-16"/>
      <point x="710" y="-16" type="qcurve"/>
      <point x="668" y="-18"/>
      <point x="575" y="-20"/>
      <point x="533" y="-20" type="qcurve" smooth="yes"/>
      <point x="495" y="-20" type="line" smooth="yes"/>
      <point x="476" y="-20"/>
      <point x="441" y="-20"/>
      <point x="422" y="-19" type="qcurve"/>
      <point x="400" y="-19" type="line" smooth="yes"/>
      <point x="396" y="-19"/>
      <point x="389" y="-18"/>
      <point x="386" y="-18" type="qcurve"/>
      <point x="377" y="-17"/>
      <point x="359" y="-16"/>
      <point x="350" y="-16" type="qcurve"/>
      <point x="336" y="-14"/>
      <point x="307" y="-13"/>
      <point x="293" y="-12" type="qcurve" smooth="yes"/>
      <point x="264" y="-10"/>
      <point x="206" y="-5"/>
      <point x="177" y="-1" type="qcurve"/>
      <point x="147" y="5"/>
      <point x="94" y="47"/>
      <point x="86" y="79" type="qcurve" smooth="yes"/>
      <point x="83" y="91" type="line"/>
      <point x="64" y="102"/>
      <point x="35" y="135"/>
      <point x="30" y="157" type="qcurve" smooth="yes"/>
      <point x="20" y="203"/>
      <point x="14" y="267" type="qcurve"/>
      <point x="27" y="266"/>
      <point x="52" y="265"/>
      <point x="66" y="265" type="qcurve"/>
      <point x="66" y="299" type="line"/>
      <point x="52" y="299"/>
      <point x="24" y="300"/>
      <point x="12" y="300" type="qcurve"/>
      <point x="10" y="315"/>
      <point x="10" y="332"/>
      <point x="10" y="340" type="qcurve" smooth="yes"/>
      <point x="10" y="349"/>
      <point x="10" y="372"/>
      <point x="11" y="381" type="qcurve" smooth="yes"/>
      <point x="12" y="395"/>
      <point x="15" y="427"/>
      <point x="17" y="441" type="qcurve" smooth="yes"/>
      <point x="20" y="469" type="line"/>
      <point x="28" y="512"/>
      <point x="49" y="596"/>
      <point x="63" y="638" type="qcurve"/>
      <point x="124" y="648"/>
      <point x="241" y="660"/>
      <point x="298" y="663" type="qcurve" smooth="yes"/>
      <point x="334" y="665" type="line" smooth="yes"/>
      <point x="368" y="667"/>
      <point x="441" y="668"/>
      <point x="475" y="668" type="qcurve" smooth="yes"/>
      <point x="492" y="668"/>
      <point x="527" y="667"/>
      <point x="545" y="666" type="qcurve"/>
      <point x="555" y="666"/>
      <point x="582" y="665"/>
      <point x="591" y="664" type="qcurve"/>
      <point x="596" y="664"/>
      <point x="609" y="663"/>
      <point x="614" y="663" type="qcurve"/>
    </contour>
    <contour>
      <point x="543" y="189" type="line" smooth="yes"/>
      <point x="543" y="192"/>
      <point x="544" y="198"/>
      <point x="544" y="201" type="qcurve" smooth="yes"/>
      <point x="544" y="219" type="line"/>
      <point x="331" y="219" type="line"/>
      <point x="331" y="213" type="line"/>
      <point x="333" y="186" type="line"/>
      <point x="361" y="186" type="line"/>
      <point x="397" y="185"/>
      <point x="468" y="185"/>
      <point x="504" y="185" type="qcurve" smooth="yes"/>
      <point x="543" y="185" type="line"/>
    </contour>
  </outline>
</glyph>
<glyph name="six" format="2">
  <advance width="933"/>
  <unicode hex="0036"/>
  <outline>
    <contour>
      <point x="216" y="647" type="line" smooth="yes"/>
      <point x="211" y="646"/>
      <point x="204" y="646"/>
      <point x="199" y="646" type="qcurve" smooth="yes"/>
      <point x="191" y="646"/>
      <point x="174" y="642"/>
      <point x="166" y="642" type="qcurve"/>
      <point x="158" y="641"/>
      <point x="142" y="639"/>
      <point x="134" y="638" type="qcurve" smooth="yes"/>
      <point x="106" y="633"/>
      <point x="63" y="594"/>
      <point x="53" y="568" type="qcurve"/>
      <point x="51" y="559"/>
      <point x="47" y="542"/>
      <point x="45" y="534" type="qcurve" smooth="yes"/>
      <point x="25" y="459"/>
      <point x="21" y="381" type="qcurve"/>
      <point x="21" y="373"/>
      <point x="19" y="355"/>
      <point x="20" y="346" type="qcurve"/>
      <point x="19" y="308"/>
      <point x="28" y="230"/>
      <point x="34" y="192" type="qcurve" smooth="yes"/>
      <point x="36" y="183"/>
      <point x="38" y="168"/>
      <point x="40" y="160" type="qcurve" smooth="yes"/>
      <point x="48" y="131"/>
      <point x="95" y="93"/>
      <point x="122" y="87" type="qcurve"/>
      <point x="123" y="87" type="line"/>
      <point x="131" y="85"/>
      <point x="148" y="85"/>
      <point x="157" y="83" type="qcurve"/>
      <point x="163" y="83"/>
      <point x="176" y="79"/>
      <point x="183" y="80" type="qcurve"/>
      <point x="191" y="79" type="line" smooth="yes"/>
      <point x="195" y="78"/>
      <point x="203" y="79"/>
      <point x="207" y="78" type="qcurve"/>
      <point x="226" y="77" type="line" smooth="yes"/>
      <point x="333" y="69"/>
      <point x="546" y="67"/>
      <point x="654" y="72" type="qcurve"/>
      <point x="723" y="77" type="line"/>
      <point x="732" y="77"/>
      <point x="749" y="79"/>
      <point x="757" y="79" type="qcurve"/>
      <point x="785" y="86"/>
      <point x="831" y="125"/>
      <point x="839" y="153" type="qcurve"/>
      <point x="842" y="170"/>
      <point x="848" y="205"/>
      <point x="851" y="222" type="qcurve"/>
      <point x="851" y="231"/>
      <point x="851" y="247"/>
      <point x="853" y="255" type="qcurve"/>
      <point x="855" y="278"/>
      <point x="858" y="323"/>
      <point x="857" y="346" type="qcurve" smooth="yes"/>
      <point x="856" y="375"/>
      <point x="810" y="417"/>
      <point x="781" y="418" type="qcurve" smooth="yes"/>
      <point x="551" y="424"/>
      <point x="320" y="421" type="qcurve"/>
      <point x="321" y="454"/>
      <point x="324" y="518"/>
      <point x="326" y="550" type="qcurve"/>
      <point x="383" y="552"/>
      <point x="494" y="552"/>
      <point x="551" y="550" type="qcurve"/>
      <point x="552" y="542"/>
      <point x="551" y="535" type="qcurve"/>
      <point x="554" y="479" type="line"/>
      <point x="568" y="480"/>
      <point x="596" y="478"/>
      <point x="611" y="478" type="qcurve" smooth="yes"/>
      <point x="631" y="478" type="line"/>
      <point x="738" y="475"/>
      <point x="849" y="469" type="qcurve"/>
      <point x="844" y="494"/>
      <point x="837" y="544"/>
      <point x="829" y="568" type="qcurve" smooth="yes"/>
      <point x="821" y="595"/>
      <point x="776" y="637"/>
      <point x="747" y="641" type="qcurve" smooth="yes"/>
      <point x="619" y="656"/>
      <point x="361" y="660"/>
      <point x="233" y="649" type="qcurve"/>
    </contour>
    <contour>
      <point x="556" y="307" type="line"/>
      <point x="556" y="292"/>
      <point x="555" y="263"/>
      <point x="556" y="249" type="qcurve"/>
      <point x="556" y="236"/>
      <point x="554" y="209"/>
      <point x="554" y="195" type="qcurve" smooth="yes"/>
      <point x="554" y="190"/>
      <point x="553" y="180"/>
      <point x="553" y="175" type="qcurve"/>
      <point x="495" y="175"/>
      <point x="381" y="174"/>
      <point x="323" y="176" type="qcurve"/>
      <point x="321" y="208"/>
      <point x="320" y="275"/>
      <point x="320" y="307" type="qcurve"/>
    </contour>
    <contour>
      <point x="232" y="659" type="line"/>
      <point x="340" y="668"/>
      <point x="452" y="668" type="qcurve" smooth="yes"/>
      <point x="527" y="668"/>
      <point x="674" y="659"/>
      <point x="748" y="651" type="qcurve"/>
      <point x="780" y="646"/>
      <point x="830" y="600"/>
      <point x="839" y="571" type="qcurve"/>
      <point x="842" y="559" type="line"/>
      <point x="861" y="548"/>
      <point x="889" y="513"/>
      <point x="895" y="493" type="qcurve" smooth="yes"/>
      <point x="900" y="476"/>
      <point x="908" y="438"/>
      <point x="911" y="417" type="qcurve" smooth="yes"/>
      <point x="912" y="411"/>
      <point x="913" y="397"/>
      <point x="918" y="380" type="qcurve"/>
      <point x="855" y="383" type="line"/>
      <point x="865" y="367"/>
      <point x="867" y="346" type="qcurve"/>
      <point x="867" y="343" type="line"/>
      <point x="890" y="333"/>
      <point x="922" y="293"/>
      <point x="923" y="268" type="qcurve" smooth="yes"/>
      <point x="924" y="250"/>
      <point x="922" y="213"/>
      <point x="920" y="196" type="qcurve"/>
      <point x="920" y="191"/>
      <point x="919" y="180"/>
      <point x="919" y="175" type="qcurve"/>
      <point x="917" y="167"/>
      <point x="917" y="151"/>
      <point x="917" y="143" type="qcurve"/>
      <point x="909" y="97" type="line"/>
      <point x="904" y="70" type="line"/>
      <point x="896" y="41"/>
      <point x="845" y="-1"/>
      <point x="815" y="-9" type="qcurve"/>
      <point x="811" y="-9"/>
      <point x="803" y="-10"/>
      <point x="799" y="-10" type="qcurve"/>
      <point x="794" y="-11"/>
      <point x="784" y="-11"/>
      <point x="779" y="-11" type="qcurve"/>
      <point x="762" y="-12"/>
      <point x="727" y="-15"/>
      <point x="710" y="-16" type="qcurve" smooth="yes"/>
      <point x="665" y="-18"/>
      <point x="573" y="-20"/>
      <point x="528" y="-20" type="qcurve" smooth="yes"/>
      <point x="404" y="-20"/>
      <point x="281" y="-11" type="qcurve"/>
      <point x="277" y="-11"/>
      <point x="267" y="-10"/>
      <point x="263" y="-10" type="qcurve" smooth="yes"/>
      <point x="255" y="-10" type="line" smooth="yes"/>
      <point x="251" y="-10"/>
      <point x="243" y="-8" type="qcurve"/>
      <point x="241" y="-8" type="line"/>
      <point x="236" y="-9"/>
      <point x="227" y="-8"/>
      <point x="222" y="-7" type="qcurve" smooth="yes"/>
      <point x="214" y="-5"/>
      <point x="211" y="-5" type="qcurve"/>
      <point x="206" y="-4"/>
      <point x="199" y="-3"/>
      <point x="196" y="-3" type="qcurve"/>
      <point x="176" y="-1" type="line"/>
      <point x="147" y="6"/>
      <point x="94" y="47"/>
      <point x="86" y="80" type="qcurve"/>
      <point x="84" y="90" type="line"/>
      <point x="65" y="101"/>
      <point x="35" y="135"/>
      <point x="30" y="158" type="qcurve"/>
      <point x="28" y="171" type="line"/>
      <point x="28" y="170" type="line"/>
      <point x="24" y="190" type="line"/>
      <point x="18" y="226"/>
      <point x="9" y="306"/>
      <point x="10" y="345" type="qcurve"/>
      <point x="10" y="368" type="line" smooth="yes"/>
      <point x="10" y="372"/>
      <point x="11" y="378"/>
      <point x="11" y="381" type="qcurve"/>
      <point x="15" y="463"/>
      <point x="35" y="537" type="qcurve" smooth="yes"/>
      <point x="37" y="546"/>
      <point x="42" y="564"/>
      <point x="43" y="569" type="qcurve"/>
      <point x="54" y="598"/>
      <point x="102" y="642"/>
      <point x="132" y="648" type="qcurve"/>
      <point x="138" y="648"/>
      <point x="148" y="650" type="qcurve"/>
      <point x="166" y="652" type="line"/>
      <point x="167" y="652"/>
      <point x="177" y="653"/>
      <point x="180" y="654" type="qcurve" smooth="yes"/>
      <point x="190" y="656"/>
      <point x="199" y="656" type="qcurve" smooth="yes"/>
      <point x="203" y="656"/>
      <point x="210" y="656"/>
      <point x="215" y="657" type="qcurve" smooth="yes"/>
      <point x="233" y="659" type="line"/>
    </contour>
    <contour>
      <point x="474" y="432" type="line" smooth="yes"/>
      <point x="505" y="432"/>
      <point x="567" y="432"/>
      <point x="598" y="431" type="qcurve"/>
      <point x="597" y="457" type="line"/>
      <point x="598" y="461"/>
      <point x="599" y="459"/>
      <point x="598" y="463" type="qcurve"/>
      <point x="575" y="464"/>
      <point x="528" y="464"/>
      <point x="505" y="464" type="qcurve" smooth="yes"/>
      <point x="474" y="464"/>
      <point x="423" y="463"/>
      <point x="392" y="462" type="qcurve"/>
      <point x="391" y="454"/>
      <point x="390" y="439"/>
      <point x="390" y="432" type="qcurve"/>
    </contour>
    <contour>
      <point x="544" y="219" type="line"/>
      <point x="386" y="219" type="line"/>
      <point x="386" y="185" type="line"/>
      <point x="413" y="184"/>
      <point x="467" y="185"/>
      <point x="495" y="185" type="qcurve" smooth="yes"/>
      <point x="543" y="185" type="line"/>
      <point x="543" y="187"/>
      <point x="544" y="192"/>
      <point x="544" y="195" type="qcurve" smooth="yes"/>
    </contour>
  </outline>
</glyph>
<glyph name="seven" format="2">
  <advance width="933"/>
  <unicode hex="0037"/>
  <outline>
    <contour>
      <point x="71" y="629" type="qcurve"/>
      <point x="63" y="605"/>
      <point x="50" y="557"/>
      <point x="45" y="534" type="qcurve"/>
      <point x="270" y="554"/>
      <point x="499" y="552" type="qcurve"/>
      <point x="479" y="520"/>
      <point x="436" y="455"/>
      <point x="414" y="422" type="qcurve"/>
      <point x="362" y="421"/>
      <point x="258" y="421"/>
      <point x="205" y="420" type="qcurve" smooth="yes"/>
      <point x="159" y="419"/>
      <point x="70" y="418"/>
      <point x="24" y="416" type="qcurve"/>
      <point x="23" y="407"/>
      <point x="21" y="389"/>
      <point x="21" y="380" type="qcurve"/>
      <point x="20" y="363"/>
      <point x="19" y="327"/>
      <point x="21" y="309" type="qcurve"/>
      <point x="205" y="307" type="line"/>
      <point x="240" y="307"/>
      <point x="308" y="306"/>
      <point x="342" y="306" type="qcurve"/>
      <point x="308" y="250"/>
      <point x="240" y="138"/>
      <point x="211" y="78" type="qcurve"/>
      <point x="296" y="71"/>
      <point x="464" y="66"/>
      <point x="549" y="68" type="qcurve"/>
      <point x="590" y="128"/>
      <point x="671" y="246"/>
      <point x="710" y="307" type="qcurve"/>
      <point x="746" y="307"/>
      <point x="820" y="307"/>
      <point x="856" y="308" type="qcurve"/>
      <point x="858" y="336"/>
      <point x="856" y="389"/>
      <point x="854" y="416" type="qcurve"/>
      <point x="834" y="416"/>
      <point x="796" y="418"/>
      <point x="776" y="419" type="qcurve"/>
      <point x="792" y="447"/>
      <point x="823" y="504"/>
      <point x="836" y="536" type="qcurve"/>
      <point x="831" y="560"/>
      <point x="818" y="608"/>
      <point x="811" y="632" type="qcurve"/>
      <point x="748" y="642"/>
      <point x="624" y="653"/>
      <point x="561" y="656" type="qcurve" smooth="yes"/>
      <point x="470" y="660"/>
      <point x="290" y="654"/>
      <point x="199" y="646" type="qcurve"/>
      <point x="167" y="642"/>
      <point x="103" y="634"/>
    </contour>
    <contour>
      <point x="69" y="639" type="line"/>
      <point x="100" y="644"/>
      <point x="161" y="651"/>
      <point x="191" y="655" type="qcurve"/>
      <point x="193" y="655"/>
      <point x="196" y="656"/>
      <point x="198" y="656" type="qcurve"/>
      <point x="262" y="662"/>
      <point x="392" y="668"/>
      <point x="457" y="668" type="qcurve" smooth="yes"/>
      <point x="483" y="668"/>
      <point x="535" y="667"/>
      <point x="561" y="666" type="qcurve" smooth="yes"/>
      <point x="624" y="663"/>
      <point x="753" y="652"/>
      <point x="819" y="641" type="qcurve"/>
      <point x="838" y="568" type="line"/>
      <point x="847" y="567"/>
      <point x="866" y="565"/>
      <point x="875" y="563" type="qcurve"/>
      <point x="882" y="539"/>
      <point x="897" y="482"/>
      <point x="902" y="458" type="qcurve"/>
      <point x="892" y="435"/>
      <point x="875" y="397"/>
      <point x="866" y="380" type="qcurve"/>
      <point x="867" y="372"/>
      <point x="867" y="357"/>
      <point x="867" y="349" type="qcurve"/>
      <point x="879" y="348"/>
      <point x="908" y="348"/>
      <point x="919" y="348" type="qcurve"/>
      <point x="921" y="325"/>
      <point x="923" y="286"/>
      <point x="923" y="269" type="qcurve" smooth="yes"/>
      <point x="923" y="259"/>
      <point x="922" y="230"/>
      <point x="921" y="220" type="qcurve"/>
      <point x="885" y="219"/>
      <point x="807" y="219"/>
      <point x="771" y="219" type="qcurve"/>
      <point x="740" y="171"/>
      <point x="675" y="75"/>
      <point x="643" y="28" type="qcurve" smooth="yes"/>
      <point x="610" y="-20" type="line"/>
      <point x="593" y="-20"/>
      <point x="556" y="-21"/>
      <point x="539" y="-21" type="qcurve" smooth="yes"/>
      <point x="470" y="-21"/>
      <point x="321" y="-14"/>
      <point x="252" y="-9" type="qcurve"/>
      <point x="261" y="10"/>
      <point x="280" y="45"/>
      <point x="289" y="62" type="qcurve"/>
      <point x="265" y="64"/>
      <point x="219" y="67"/>
      <point x="196" y="69" type="qcurve"/>
      <point x="217" y="113"/>
      <point x="258" y="186"/>
      <point x="277" y="219" type="qcurve"/>
      <point x="261" y="219" type="line"/>
      <point x="68" y="221" type="line"/>
      <point x="66" y="236"/>
      <point x="66" y="253"/>
      <point x="66" y="261" type="qcurve" smooth="yes"/>
      <point x="66" y="298" type="line"/>
      <point x="12" y="299" type="line"/>
      <point x="10" y="314"/>
      <point x="10" y="331"/>
      <point x="10" y="339" type="qcurve" smooth="yes"/>
      <point x="10" y="348"/>
      <point x="10" y="372"/>
      <point x="11" y="381" type="qcurve"/>
      <point x="11" y="386"/>
      <point x="12" y="400"/>
      <point x="13" y="405" type="qcurve"/>
      <point x="13" y="410"/>
      <point x="14" y="424"/>
      <point x="14" y="426" type="qcurve"/>
      <point x="60" y="428"/>
      <point x="159" y="429"/>
      <point x="205" y="430" type="qcurve"/>
      <point x="231" y="430"/>
      <point x="284" y="431"/>
      <point x="310" y="431" type="qcurve" smooth="yes"/>
      <point x="336" y="431"/>
      <point x="383" y="431"/>
      <point x="409" y="432" type="qcurve"/>
      <point x="414" y="440"/>
      <point x="423" y="452"/>
      <point x="428" y="460" type="qcurve" smooth="yes"/>
      <point x="430" y="463" type="line"/>
      <point x="260" y="460"/>
      <point x="88" y="445" type="qcurve"/>
      <point x="93" y="468"/>
      <point x="104" y="510"/>
      <point x="109" y="529" type="qcurve"/>
      <point x="32" y="523" type="line"/>
      <point x="39" y="555"/>
      <point x="53" y="609"/>
      <point x="61" y="632" type="qcurve"/>
    </contour>
  </outline>
</glyph>
<glyph name="eight" format="2">
  <advance width="933"/>
  <unicode hex="0038"/>
  <outline>
    <contour>
      <point x="682" y="648" type="qcurve"/>
      <point x="674" y="650"/>
      <point x="657" y="650"/>
      <point x="649" y="651" type="qcurve" smooth="yes"/>
      <point x="579" y="656"/>
      <point x="440" y="659"/>
      <point x="369" y="656" type="qcurve"/>
      <point x="361" y="656"/>
      <point x="342" y="655"/>
      <point x="334" y="655" type="qcurve"/>
      <point x="284" y="652"/>
      <point x="185" y="645"/>
      <point x="134" y="638" type="qcurve"/>
      <point x="106" y="633"/>
      <point x="63" y="594"/>
      <point x="53" y="568" type="qcurve"/>
      <point x="51" y="559"/>
      <point x="47" y="542"/>
      <point x="45" y="534" type="qcurve" smooth="yes"/>
      <point x="38" y="509"/>
      <point x="29" y="459"/>
      <point x="26" y="433" type="qcurve" smooth="yes"/>
      <point x="24" y="418"/>
      <point x="34" y="390"/>
      <point x="47" y="381" type="qcurve" smooth="yes"/>
      <point x="57" y="373"/>
      <point x="79" y="362"/>
      <point x="92" y="363" type="qcurve"/>
      <point x="78" y="364"/>
      <point x="56" y="353"/>
      <point x="46" y="345" type="qcurve"/>
      <point x="32" y="336"/>
      <point x="20" y="308"/>
      <point x="22" y="294" type="qcurve"/>
      <point x="25" y="224"/>
      <point x="40" y="160" type="qcurve"/>
      <point x="48" y="131"/>
      <point x="95" y="92"/>
      <point x="123" y="87" type="qcurve"/>
      <point x="166" y="81"/>
      <point x="251" y="76"/>
      <point x="295" y="72" type="qcurve"/>
      <point x="340" y="70"/>
      <point x="430" y="68"/>
      <point x="476" y="68" type="qcurve"/>
      <point x="494" y="67"/>
      <point x="531" y="68"/>
      <point x="549" y="68" type="qcurve"/>
      <point x="619" y="70" type="line"/>
      <point x="654" y="72"/>
      <point x="722" y="77"/>
      <point x="757" y="79" type="qcurve"/>
      <point x="785" y="86"/>
      <point x="832" y="124"/>
      <point x="839" y="153" type="qcurve" smooth="yes"/>
      <point x="841" y="162"/>
      <point x="844" y="179"/>
      <point x="846" y="187" type="qcurve"/>
      <point x="853" y="255" type="line"/>
      <point x="853" y="264" type="line"/>
      <point x="854" y="273" type="line"/>
      <point x="855" y="283" type="line"/>
      <point x="856" y="290" type="line"/>
      <point x="856" y="305"/>
      <point x="845" y="332"/>
      <point x="825" y="352"/>
      <point x="798" y="363"/>
      <point x="784" y="363" type="qcurve"/>
      <point x="797" y="363"/>
      <point x="824" y="374"/>
      <point x="844" y="394"/>
      <point x="854" y="420"/>
      <point x="852" y="434" type="qcurve"/>
      <point x="852" y="441"/>
      <point x="850" y="453"/>
      <point x="849" y="460" type="qcurve"/>
      <point x="849" y="469" type="line"/>
      <point x="847" y="477"/>
      <point x="844" y="493"/>
      <point x="842" y="502" type="qcurve"/>
      <point x="841" y="515" type="line"/>
      <point x="839" y="529"/>
      <point x="833" y="554"/>
      <point x="829" y="568" type="qcurve" smooth="yes"/>
      <point x="821" y="595"/>
      <point x="776" y="637"/>
      <point x="747" y="641" type="qcurve" smooth="yes"/>
      <point x="731" y="643"/>
      <point x="699" y="647"/>
    </contour>
    <contour>
      <point x="556" y="287" type="line"/>
      <point x="555" y="273"/>
      <point x="554" y="245"/>
      <point x="555" y="231" type="qcurve"/>
      <point x="553" y="175" type="line"/>
      <point x="495" y="175"/>
      <point x="381" y="174"/>
      <point x="323" y="176" type="qcurve"/>
      <point x="321" y="208"/>
      <point x="320" y="274"/>
      <point x="320" y="306" type="qcurve"/>
      <point x="358" y="306" type="line"/>
      <point x="476" y="306" type="line" smooth="yes"/>
      <point x="496" y="306"/>
      <point x="536" y="307"/>
      <point x="556" y="306" type="qcurve"/>
    </contour>
    <contour>
      <point x="552" y="523" type="qcurve"/>
      <point x="552" y="516"/>
      <point x="553" y="503"/>
      <point x="553" y="495" type="qcurve"/>
      <point x="555" y="422" type="line"/>
      <point x="535" y="423"/>
      <point x="496" y="421"/>
      <point x="476" y="422" type="qcurve"/>
      <point x="359" y="422" type="line" smooth="yes"/>
      <point x="348" y="422"/>
      <point x="330" y="421"/>
      <point x="320" y="421" type="qcurve"/>
      <point x="321" y="454"/>
      <point x="324" y="518"/>
      <point x="326" y="550" type="qcurve"/>
      <point x="335" y="550"/>
      <point x="353" y="552"/>
      <point x="362" y="551" type="qcurve"/>
      <point x="410" y="553"/>
      <point x="503" y="552"/>
      <point x="551" y="550" type="qcurve"/>
      <point x="552" y="543"/>
      <point x="551" y="531"/>
    </contour>
    <contour>
      <point x="683" y="658" type="qcurve" smooth="yes"/>
      <point x="694" y="657"/>
      <point x="715" y="656"/>
      <point x="724" y="654" type="qcurve"/>
      <point x="723" y="654" type="line"/>
      <point x="748" y="651" type="line"/>
      <point x="780" y="646"/>
      <point x="830" y="600"/>
      <point x="839" y="571" type="qcurve"/>
      <point x="842" y="559" type="line"/>
      <point x="861" y="548"/>
      <point x="889" y="513"/>
      <point x="895" y="493" type="qcurve" smooth="yes"/>
      <point x="899" y="480"/>
      <point x="905" y="455"/>
      <point x="907" y="439" type="qcurve"/>
      <point x="908" y="426" type="line"/>
      <point x="911" y="410" type="line" smooth="yes"/>
      <point x="912" y="404"/>
      <point x="913" y="394"/>
      <point x="915" y="391" type="qcurve"/>
      <point x="915" y="382" type="line"/>
      <point x="915" y="380"/>
      <point x="916" y="377"/>
      <point x="916" y="375" type="qcurve"/>
      <point x="918" y="365"/>
      <point x="918" y="358" type="qcurve"/>
      <point x="920" y="335"/>
      <point x="896" y="297"/>
      <point x="877" y="286" type="qcurve"/>
      <point x="897" y="275"/>
      <point x="922" y="235"/>
      <point x="922" y="212" type="qcurve"/>
      <point x="922" y="210"/>
      <point x="921" y="207"/>
      <point x="921" y="205" type="qcurve"/>
      <point x="920" y="194" type="line"/>
      <point x="919" y="185" type="line"/>
      <point x="919" y="176" type="line"/>
      <point x="912" y="106" type="line"/>
      <point x="909" y="92" type="line"/>
      <point x="905" y="73" type="line"/>
      <point x="897" y="41"/>
      <point x="846" y="-1"/>
      <point x="815" y="-9" type="qcurve"/>
      <point x="798" y="-10"/>
      <point x="762" y="-12"/>
      <point x="745" y="-14" type="qcurve" smooth="yes"/>
      <point x="728" y="-16"/>
      <point x="692" y="-17"/>
      <point x="675" y="-18" type="qcurve"/>
      <point x="605" y="-20" type="line"/>
      <point x="581" y="-20" type="line" smooth="yes"/>
      <point x="569" y="-20"/>
      <point x="543" y="-21"/>
      <point x="531" y="-20" type="qcurve"/>
      <point x="485" y="-20"/>
      <point x="395" y="-18"/>
      <point x="350" y="-16" type="qcurve"/>
      <point x="336" y="-14"/>
      <point x="307" y="-13"/>
      <point x="293" y="-12" type="qcurve" smooth="yes"/>
      <point x="264" y="-10"/>
      <point x="206" y="-5"/>
      <point x="177" y="-1" type="qcurve" smooth="yes"/>
      <point x="147" y="4"/>
      <point x="95" y="47"/>
      <point x="86" y="79" type="qcurve"/>
      <point x="83" y="91" type="line"/>
      <point x="64" y="102"/>
      <point x="36" y="135"/>
      <point x="30" y="157" type="qcurve"/>
      <point x="15" y="220"/>
      <point x="12" y="293" type="qcurve"/>
      <point x="10" y="310"/>
      <point x="25" y="342"/>
      <point x="40" y="353" type="qcurve" smooth="yes"/>
      <point x="44" y="356"/>
      <point x="51" y="361"/>
      <point x="55" y="363" type="qcurve"/>
      <point x="41" y="373" type="line" smooth="yes"/>
      <point x="26" y="384"/>
      <point x="14" y="417"/>
      <point x="16" y="434" type="qcurve" smooth="yes"/>
      <point x="19" y="462"/>
      <point x="28" y="514"/>
      <point x="35" y="537" type="qcurve" smooth="yes"/>
      <point x="37" y="546"/>
      <point x="42" y="564"/>
      <point x="43" y="569" type="qcurve"/>
      <point x="54" y="598"/>
      <point x="102" y="642"/>
      <point x="132" y="648" type="qcurve"/>
      <point x="183" y="655"/>
      <point x="283" y="662"/>
      <point x="333" y="665" type="qcurve"/>
      <point x="351" y="665" type="line" smooth="yes"/>
      <point x="356" y="665"/>
      <point x="364" y="666"/>
      <point x="369" y="666" type="qcurve"/>
      <point x="391" y="667"/>
      <point x="443" y="668"/>
      <point x="465" y="668" type="qcurve" smooth="yes"/>
      <point x="510" y="668"/>
      <point x="605" y="665"/>
      <point x="650" y="661" type="qcurve"/>
      <point x="652" y="661"/>
      <point x="658" y="660"/>
      <point x="660" y="660" type="qcurve"/>
      <point x="666" y="660"/>
      <point x="678" y="659"/>
    </contour>
    <contour>
      <point x="543" y="185" type="line"/>
      <point x="543" y="193"/>
      <point x="544" y="210"/>
      <point x="545" y="218" type="qcurve"/>
      <point x="386" y="218" type="line"/>
      <point x="386" y="185" type="line"/>
      <point x="413" y="184"/>
      <point x="467" y="185"/>
      <point x="495" y="185" type="qcurve" smooth="yes"/>
    </contour>
    <contour>
      <point x="545" y="432" type="line"/>
      <point x="545" y="440"/>
      <point x="544" y="455"/>
      <point x="544" y="463" type="qcurve"/>
      <point x="530" y="464"/>
      <point x="504" y="464"/>
      <point x="490" y="464" type="qcurve" smooth="yes"/>
      <point x="472" y="464"/>
      <point x="435" y="464"/>
      <point x="417" y="463" type="qcurve"/>
      <point x="392" y="463" type="line"/>
      <point x="391" y="455"/>
      <point x="390" y="440"/>
      <point x="390" y="432" type="qcurve"/>
      <point x="476" y="432" type="line"/>
      <point x="487" y="431"/>
      <point x="506" y="432"/>
      <point x="516" y="432" type="qcurve" smooth="yes"/>
    </contour>
  </outline>
</glyph>
<glyph name="nine" format="2">
  <advance width="933"/>
  <unicode hex="0039"/>
  <outline>
    <contour>
      <point x="698" y="646" type="line"/>
      <point x="695" y="646"/>
      <point x="691" y="647"/>
      <point x="689" y="647" type="qcurve"/>
      <point x="682" y="648" type="line"/>
      <point x="664" y="650" type="line"/>
      <point x="654" y="650"/>
      <point x="649" y="651" type="qcurve"/>
      <point x="544" y="659"/>
      <point x="337" y="658"/>
      <point x="233" y="649" type="qcurve"/>
      <point x="166" y="642" type="line" smooth="yes"/>
      <point x="158" y="641"/>
      <point x="142" y="639"/>
      <point x="134" y="638" type="qcurve" smooth="yes"/>
      <point x="106" y="633"/>
      <point x="63" y="594"/>
      <point x="53" y="568" type="qcurve"/>
      <point x="37" y="501" type="line" smooth="yes"/>
      <point x="35" y="492"/>
      <point x="32" y="476"/>
      <point x="30" y="468" type="qcurve"/>
      <point x="27" y="447"/>
      <point x="23" y="404"/>
      <point x="21" y="381" type="qcurve" smooth="yes"/>
      <point x="20" y="366"/>
      <point x="32" y="340"/>
      <point x="51" y="320"/>
      <point x="78" y="308"/>
      <point x="92" y="308" type="qcurve"/>
      <point x="209" y="307"/>
      <point x="440" y="307"/>
      <point x="556" y="307" type="qcurve"/>
      <point x="556" y="287"/>
      <point x="555" y="250"/>
      <point x="555" y="232" type="qcurve"/>
      <point x="553" y="175" type="line"/>
      <point x="495" y="175"/>
      <point x="381" y="174"/>
      <point x="323" y="176" type="qcurve"/>
      <point x="322" y="181"/>
      <point x="322" y="191"/>
      <point x="322" y="196" type="qcurve"/>
      <point x="321" y="209"/>
      <point x="320" y="237"/>
      <point x="320" y="250" type="qcurve"/>
      <point x="306" y="251"/>
      <point x="277" y="249"/>
      <point x="263" y="251" type="qcurve"/>
      <point x="244" y="251" type="line"/>
      <point x="189" y="253"/>
      <point x="80" y="255"/>
      <point x="25" y="257" type="qcurve"/>
      <point x="27" y="232"/>
      <point x="35" y="185"/>
      <point x="40" y="160" type="qcurve"/>
      <point x="48" y="131"/>
      <point x="96" y="92"/>
      <point x="123" y="87" type="qcurve"/>
      <point x="256" y="72"/>
      <point x="520" y="66"/>
      <point x="654" y="72" type="qcurve"/>
      <point x="663" y="73"/>
      <point x="681" y="75"/>
      <point x="689" y="75" type="qcurve"/>
      <point x="698" y="76"/>
      <point x="715" y="77"/>
      <point x="723" y="77" type="qcurve" smooth="yes"/>
      <point x="732" y="77"/>
      <point x="749" y="79"/>
      <point x="757" y="79" type="qcurve"/>
      <point x="785" y="86"/>
      <point x="831" y="125"/>
      <point x="839" y="153" type="qcurve"/>
      <point x="857" y="247"/>
      <point x="857" y="346" type="qcurve" smooth="yes"/>
      <point x="857" y="355"/>
      <point x="856" y="373"/>
      <point x="856" y="381" type="qcurve"/>
      <point x="855" y="404"/>
      <point x="851" y="447"/>
      <point x="849" y="469" type="qcurve"/>
      <point x="846" y="486"/>
      <point x="840" y="519"/>
      <point x="836" y="536" type="qcurve" smooth="yes"/>
      <point x="834" y="544"/>
      <point x="831" y="560"/>
      <point x="829" y="568" type="qcurve" smooth="yes"/>
      <point x="821" y="595"/>
      <point x="776" y="637"/>
      <point x="747" y="641" type="qcurve"/>
      <point x="739" y="641"/>
      <point x="723" y="644"/>
      <point x="715" y="644" type="qcurve"/>
    </contour>
    <contour>
      <point x="320" y="421" type="qcurve"/>
      <point x="320" y="436"/>
      <point x="322" y="465"/>
      <point x="322" y="479" type="qcurve"/>
      <point x="323" y="493"/>
      <point x="325" y="520"/>
      <point x="325" y="535" type="qcurve" smooth="yes"/>
      <point x="325" y="545"/>
      <point x="326" y="550" type="qcurve"/>
      <point x="383" y="552"/>
      <point x="494" y="552"/>
      <point x="551" y="550" type="qcurve"/>
      <point x="553" y="518"/>
      <point x="554" y="455"/>
      <point x="555" y="422" type="qcurve"/>
      <point x="495" y="424"/>
      <point x="380" y="422"/>
    </contour>
    <contour>
      <point x="715" y="654" type="line"/>
      <point x="721" y="654"/>
      <point x="730" y="653"/>
      <point x="734" y="652" type="qcurve" smooth="yes"/>
      <point x="739" y="651"/>
      <point x="748" y="651" type="qcurve"/>
      <point x="780" y="646"/>
      <point x="829" y="602"/>
      <point x="838" y="573" type="qcurve"/>
      <point x="840" y="560" type="line"/>
      <point x="860" y="549"/>
      <point x="887" y="515"/>
      <point x="894" y="495" type="qcurve"/>
      <point x="898" y="476" type="line"/>
      <point x="902" y="460" type="line" smooth="yes"/>
      <point x="905" y="446"/>
      <point x="911" y="416"/>
      <point x="913" y="402" type="qcurve"/>
      <point x="915" y="392" type="line"/>
      <point x="917" y="371"/>
      <point x="921" y="325"/>
      <point x="922" y="303" type="qcurve"/>
      <point x="922" y="286" type="line" smooth="yes"/>
      <point x="922" y="281"/>
      <point x="923" y="273"/>
      <point x="923" y="268" type="qcurve" smooth="yes"/>
      <point x="923" y="166"/>
      <point x="905" y="72" type="qcurve"/>
      <point x="897" y="42"/>
      <point x="846" y="-1"/>
      <point x="815" y="-9" type="qcurve"/>
      <point x="811" y="-9"/>
      <point x="803" y="-10"/>
      <point x="799" y="-10" type="qcurve"/>
      <point x="794" y="-11"/>
      <point x="784" y="-11"/>
      <point x="779" y="-11" type="qcurve" smooth="yes"/>
      <point x="771" y="-11"/>
      <point x="756" y="-12"/>
      <point x="745" y="-13" type="qcurve"/>
      <point x="740" y="-13"/>
      <point x="729" y="-14"/>
      <point x="723" y="-15" type="qcurve"/>
      <point x="720" y="-15"/>
      <point x="714" y="-16"/>
      <point x="711" y="-16" type="qcurve"/>
      <point x="668" y="-18"/>
      <point x="576" y="-20"/>
      <point x="533" y="-20" type="qcurve" smooth="yes"/>
      <point x="442" y="-20"/>
      <point x="264" y="-11"/>
      <point x="176" y="-1" type="qcurve"/>
      <point x="147" y="5"/>
      <point x="94" y="47"/>
      <point x="86" y="79" type="qcurve" smooth="yes"/>
      <point x="83" y="91" type="line"/>
      <point x="64" y="102"/>
      <point x="35" y="135"/>
      <point x="30" y="157" type="qcurve" smooth="yes"/>
      <point x="20" y="203"/>
      <point x="14" y="267" type="qcurve"/>
      <point x="28" y="266"/>
      <point x="59" y="265"/>
      <point x="76" y="265" type="qcurve"/>
      <point x="66" y="284"/>
      <point x="67" y="303" type="qcurve"/>
      <point x="43" y="311"/>
      <point x="9" y="355"/>
      <point x="11" y="382" type="qcurve"/>
      <point x="14" y="409" type="line" smooth="yes"/>
      <point x="16" y="423"/>
      <point x="18" y="453"/>
      <point x="20" y="467" type="qcurve"/>
      <point x="24" y="487" type="line"/>
      <point x="27" y="503" type="line"/>
      <point x="43" y="568" type="line"/>
      <point x="54" y="597"/>
      <point x="102" y="642"/>
      <point x="132" y="648" type="qcurve"/>
      <point x="138" y="648"/>
      <point x="148" y="650" type="qcurve"/>
      <point x="166" y="652" type="line"/>
      <point x="165" y="652" type="line"/>
      <point x="232" y="659" type="line"/>
      <point x="340" y="668"/>
      <point x="450" y="668" type="qcurve" smooth="yes"/>
      <point x="500" y="668"/>
      <point x="602" y="665"/>
      <point x="652" y="661" type="qcurve"/>
      <point x="657" y="660"/>
      <point x="664" y="660" type="qcurve"/>
      <point x="682" y="658" type="line"/>
      <point x="689" y="657" type="line"/>
      <point x="693" y="657" type="line"/>
      <point x="694" y="657"/>
      <point x="696" y="656"/>
      <point x="698" y="656" type="qcurve"/>
    </contour>
    <contour>
      <point x="543" y="185" type="line"/>
      <point x="543" y="193"/>
      <point x="544" y="210"/>
      <point x="545" y="219" type="qcurve"/>
      <point x="330" y="219" type="line"/>
      <point x="332" y="196" type="line"/>
      <point x="332" y="191"/>
      <point x="331" y="191"/>
      <point x="332" y="186" type="qcurve"/>
      <point x="374" y="185"/>
      <point x="453" y="185"/>
      <point x="495" y="185" type="qcurve" smooth="yes"/>
    </contour>
    <contour>
      <point x="544" y="454" type="qcurve"/>
      <point x="544" y="456"/>
      <point x="543" y="461"/>
      <point x="543" y="464" type="qcurve"/>
      <point x="505" y="464" type="line" smooth="yes"/>
      <point x="474" y="464"/>
      <point x="422" y="463"/>
      <point x="391" y="462" type="qcurve"/>
      <point x="391" y="457" type="line" smooth="yes"/>
      <point x="391" y="451"/>
      <point x="391" y="438"/>
      <point x="390" y="432" type="qcurve"/>
      <point x="412" y="433"/>
      <point x="457" y="433"/>
      <point x="476" y="433" type="qcurve" smooth="yes"/>
      <point x="496" y="433"/>
      <point x="525" y="434"/>
      <point x="545" y="433" type="qcurve"/>
      <point x="545" y="438"/>
      <point x="544" y="449"/>
    </contour>
  </outline>
</glyph>
<glyph name="colon" format="2">
  <advance width="403"/>
  <unicode hex="003A"/>
  <outline>
    <contour>
      <point x="35" y="94" type="line"/>
      <point x="103" y="71"/>
      <point x="246" y="65"/>
      <point x="315" y="79" type="qcurve"/>
      <point x="318" y="105"/>
      <point x="322" y="156"/>
      <point x="323" y="182" type="qcurve"/>
      <point x="248" y="174"/>
      <point x="99" y="177"/>
      <point x="25" y="191" type="qcurve"/>
    </contour>
    <contour>
      <point x="29" y="535" type="qcurve"/>
      <point x="101" y="551"/>
      <point x="249" y="553"/>
      <point x="321" y="540" type="qcurve"/>
      <point x="319" y="566"/>
      <point x="314" y="615"/>
      <point x="311" y="641" type="qcurve"/>
      <point x="245" y="660"/>
      <point x="105" y="655"/>
      <point x="39" y="630" type="qcurve"/>
      <point x="36" y="606"/>
      <point x="31" y="558"/>
    </contour>
    <contour>
      <point x="75" y="72" type="line"/>
      <point x="63" y="75"/>
      <point x="38" y="82"/>
      <point x="26" y="87" type="qcurve"/>
      <point x="14" y="204" type="line"/>
      <point x="112" y="185"/>
      <point x="197" y="185" type="qcurve" smooth="yes"/>
      <point x="228" y="185"/>
      <point x="297" y="189"/>
      <point x="333" y="193" type="qcurve"/>
      <point x="332" y="170"/>
      <point x="330" y="129"/>
      <point x="328" y="109" type="qcurve"/>
      <point x="389" y="115" type="line"/>
      <point x="388" y="81"/>
      <point x="383" y="20"/>
      <point x="380" y="-8" type="qcurve"/>
      <point x="318" y="-20"/>
      <point x="255" y="-20" type="qcurve" smooth="yes"/>
      <point x="168" y="-20"/>
      <point x="82" y="9" type="qcurve"/>
    </contour>
    <contour>
      <point x="75" y="457" type="line"/>
      <point x="75" y="459"/>
      <point x="76" y="464"/>
      <point x="76" y="466" type="qcurve"/>
      <point x="78" y="481"/>
      <point x="81" y="517"/>
      <point x="83" y="534" type="qcurve"/>
      <point x="31" y="525" type="line"/>
      <point x="19" y="535" type="line"/>
      <point x="19" y="537"/>
      <point x="20" y="542"/>
      <point x="20" y="544" type="qcurve"/>
      <point x="22" y="565"/>
      <point x="27" y="615"/>
      <point x="30" y="637" type="qcurve"/>
      <point x="71" y="652"/>
      <point x="152" y="668"/>
      <point x="192" y="668" type="qcurve" smooth="yes"/>
      <point x="224" y="668"/>
      <point x="289" y="658"/>
      <point x="321" y="649" type="qcurve"/>
      <point x="321" y="647"/>
      <point x="322" y="639"/>
      <point x="322" y="637" type="qcurve"/>
      <point x="328" y="582" type="line"/>
      <point x="340" y="580"/>
      <point x="364" y="574"/>
      <point x="377" y="571" type="qcurve"/>
      <point x="377" y="569"/>
      <point x="378" y="561"/>
      <point x="378" y="559" type="qcurve"/>
      <point x="381" y="535"/>
      <point x="386" y="473"/>
      <point x="388" y="450" type="qcurve"/>
      <point x="309" y="464"/>
      <point x="243" y="464" type="qcurve" smooth="yes"/>
      <point x="167" y="464"/>
      <point x="87" y="447" type="qcurve"/>
    </contour>
  </outline>
</glyph>
<glyph name="semicolon" format="2">
  <advance width="403"/>
  <unicode hex="003B"/>
  <outline>
    <contour>
      <point x="29" y="530" type="qcurve"/>
      <point x="100" y="549"/>
      <point x="247" y="552"/>
      <point x="319" y="537" type="qcurve"/>
      <point x="317" y="562"/>
      <point x="312" y="612"/>
      <point x="310" y="637" type="qcurve"/>
      <point x="244" y="659"/>
      <point x="103" y="654"/>
      <point x="38" y="627" type="qcurve"/>
      <point x="36" y="603"/>
      <point x="32" y="554"/>
    </contour>
    <contour>
      <point x="27" y="88" type="qcurve"/>
      <point x="44" y="82"/>
      <point x="79" y="74"/>
      <point x="97" y="71" type="qcurve"/>
      <point x="100" y="3" type="line"/>
      <point x="100" y="-5" type="line"/>
      <point x="127" y="-13"/>
      <point x="184" y="-16"/>
      <point x="213" y="-15" type="qcurve"/>
      <point x="222" y="-10" type="line"/>
      <point x="226" y="-6" type="line"/>
      <point x="250" y="14"/>
      <point x="296" y="54"/>
      <point x="319" y="75" type="qcurve"/>
      <point x="321" y="101"/>
      <point x="323" y="153"/>
      <point x="324" y="179" type="qcurve"/>
      <point x="265" y="174"/>
      <point x="151" y="172"/>
      <point x="93" y="177" type="qcurve" smooth="yes"/>
      <point x="75" y="179"/>
      <point x="40" y="183"/>
      <point x="22" y="185" type="qcurve"/>
      <point x="23" y="160"/>
      <point x="25" y="111"/>
    </contour>
    <contour>
      <point x="73" y="9" type="line"/>
      <point x="70" y="65" type="line"/>
      <point x="59" y="67"/>
      <point x="36" y="74"/>
      <point x="24" y="79" type="qcurve"/>
      <point x="17" y="87" type="line"/>
      <point x="15" y="110"/>
      <point x="13" y="170"/>
      <point x="12" y="195" type="qcurve"/>
      <point x="14" y="195"/>
      <point x="28" y="194"/>
      <point x="30" y="194" type="qcurve"/>
      <point x="46" y="192"/>
      <point x="77" y="189"/>
      <point x="94" y="187" type="qcurve" smooth="yes"/>
      <point x="119" y="185"/>
      <point x="171" y="183"/>
      <point x="195" y="183" type="qcurve" smooth="yes"/>
      <point x="227" y="183"/>
      <point x="296" y="186"/>
      <point x="334" y="190" type="qcurve"/>
      <point x="331" y="107" type="line"/>
      <point x="345" y="108"/>
      <point x="374" y="110"/>
      <point x="390" y="112" type="qcurve"/>
      <point x="389" y="86"/>
      <point x="387" y="19"/>
      <point x="385" y="-7" type="qcurve"/>
      <point x="362" y="-28"/>
      <point x="312" y="-72"/>
      <point x="288" y="-92" type="qcurve"/>
      <point x="284" y="-96" type="line"/>
      <point x="269" y="-103" type="line"/>
      <point x="239" y="-104"/>
      <point x="178" y="-100"/>
      <point x="146" y="-91" type="qcurve"/>
      <point x="146" y="-75" type="line"/>
      <point x="144" y="-23" type="line"/>
      <point x="130" y="-21"/>
      <point x="104" y="-17"/>
      <point x="90" y="-13" type="qcurve"/>
      <point x="90" y="-2" type="line"/>
      <point x="80" y="1" type="line"/>
    </contour>
    <contour>
      <point x="75" y="453" type="line"/>
      <point x="77" y="469"/>
      <point x="79" y="501"/>
      <point x="81" y="517" type="qcurve"/>
      <point x="82" y="531" type="line"/>
      <point x="69" y="529"/>
      <point x="45" y="523"/>
      <point x="32" y="520" type="qcurve"/>
      <point x="19" y="531" type="line"/>
      <point x="21" y="547"/>
      <point x="23" y="579"/>
      <point x="25" y="595" type="qcurve" smooth="yes"/>
      <point x="29" y="634" type="line"/>
      <point x="68" y="651"/>
      <point x="149" y="667"/>
      <point x="188" y="667" type="qcurve" smooth="yes"/>
      <point x="251" y="667"/>
      <point x="320" y="644" type="qcurve"/>
      <point x="321" y="631"/>
      <point x="322" y="601"/>
      <point x="324" y="588" type="qcurve"/>
      <point x="324" y="580" type="line"/>
      <point x="337" y="578"/>
      <point x="362" y="571"/>
      <point x="376" y="566" type="qcurve"/>
      <point x="377" y="553"/>
      <point x="378" y="523"/>
      <point x="380" y="510" type="qcurve" smooth="yes"/>
      <point x="381" y="497"/>
      <point x="385" y="458"/>
      <point x="387" y="446" type="qcurve"/>
      <point x="307" y="463"/>
      <point x="244" y="463" type="qcurve" smooth="yes"/>
      <point x="166" y="463"/>
      <point x="88" y="442" type="qcurve"/>
    </contour>
  </outline>
</glyph>
<glyph name="equal" format="2">
  <advance width="406"/>
  <unicode hex="003D"/>
  <outline>
    <contour>
      <point x="326" y="381" type="qcurve"/>
      <point x="250" y="384"/>
      <point x="97" y="383"/>
      <point x="21" y="381" type="qcurve"/>
      <point x="23" y="406"/>
      <point x="30" y="456"/>
      <point x="37" y="481" type="qcurve"/>
      <point x="175" y="502"/>
      <point x="313" y="484" type="qcurve"/>
      <point x="318" y="459"/>
      <point x="324" y="407"/>
    </contour>
    <contour>
      <point x="323" y="239" type="qcurve"/>
      <point x="249" y="232"/>
      <point x="103" y="235"/>
      <point x="30" y="243" type="qcurve"/>
      <point x="26" y="268"/>
      <point x="21" y="320"/>
      <point x="21" y="346" type="qcurve"/>
      <point x="99" y="347"/>
      <point x="252" y="345"/>
      <point x="330" y="345" type="qcurve"/>
      <point x="330" y="318"/>
      <point x="328" y="266"/>
    </contour>
    <contour>
      <point x="392" y="304" type="line"/>
      <point x="389" y="360"/>
      <point x="378" y="415" type="qcurve"/>
      <point x="366" y="417"/>
      <point x="344" y="419"/>
      <point x="333" y="420" type="qcurve"/>
      <point x="331" y="439"/>
      <point x="325" y="476"/>
      <point x="322" y="493" type="qcurve"/>
      <point x="287" y="498"/>
      <point x="219" y="502"/>
      <point x="186" y="502" type="qcurve" smooth="yes"/>
      <point x="148" y="502"/>
      <point x="69" y="497"/>
      <point x="29" y="490" type="qcurve"/>
      <point x="21" y="461"/>
      <point x="13" y="400"/>
      <point x="10" y="371" type="qcurve"/>
      <point x="76" y="373" type="line"/>
      <point x="73" y="356" type="line"/>
      <point x="11" y="356" type="line"/>
      <point x="11" y="322"/>
      <point x="16" y="262"/>
      <point x="21" y="234" type="qcurve"/>
      <point x="33" y="232"/>
      <point x="57" y="230"/>
      <point x="68" y="229" type="qcurve"/>
      <point x="71" y="191"/>
      <point x="77" y="156" type="qcurve"/>
      <point x="124" y="151"/>
      <point x="212" y="145"/>
      <point x="254" y="145" type="qcurve" smooth="yes"/>
      <point x="317" y="145"/>
      <point x="380" y="151" type="qcurve"/>
      <point x="389" y="159" type="line"/>
      <point x="394" y="186"/>
      <point x="396" y="245"/>
      <point x="396" y="277" type="qcurve"/>
      <point x="338" y="277" type="line"/>
      <point x="338" y="281"/>
      <point x="338" y="289"/>
      <point x="339" y="294" type="qcurve"/>
      <point x="350" y="294"/>
      <point x="371" y="293"/>
      <point x="382" y="293" type="qcurve"/>
    </contour>
  </outline>
</glyph>
<glyph name="question" format="2">
  <advance width="933"/>
  <unicode hex="003F"/>
  <outline>
    <contour>
      <point x="357" y="176" type="qcurve"/>
      <point x="337" y="175"/>
      <point x="300" y="177"/>
      <point x="282" y="177" type="qcurve"/>
      <point x="284" y="150"/>
      <point x="288" y="99"/>
      <point x="291" y="72" type="qcurve"/>
      <point x="300" y="72"/>
      <point x="318" y="71"/>
      <point x="327" y="70" type="qcurve" smooth="yes"/>
      <point x="363" y="68"/>
      <point x="435" y="68"/>
      <point x="472" y="68" type="qcurve"/>
      <point x="490" y="67"/>
      <point x="527" y="68"/>
      <point x="545" y="68" type="qcurve"/>
      <point x="554" y="70"/>
      <point x="571" y="69"/>
      <point x="580" y="69" type="qcurve"/>
      <point x="583" y="96"/>
      <point x="586" y="149"/>
      <point x="587" y="176" type="qcurve"/>
      <point x="569" y="176"/>
      <point x="531" y="176"/>
      <point x="512" y="175" type="qcurve"/>
      <point x="474" y="176"/>
      <point x="395" y="174"/>
    </contour>
    <contour>
      <point x="711" y="644" type="qcurve"/>
      <point x="703" y="645"/>
      <point x="686" y="646"/>
      <point x="678" y="648" type="qcurve" smooth="yes"/>
      <point x="670" y="650"/>
      <point x="653" y="650"/>
      <point x="645" y="651" type="qcurve" smooth="yes"/>
      <point x="593" y="655"/>
      <point x="488" y="658"/>
      <point x="435" y="658" type="qcurve" smooth="yes"/>
      <point x="417" y="658"/>
      <point x="383" y="657"/>
      <point x="365" y="656" type="qcurve"/>
      <point x="357" y="656"/>
      <point x="338" y="655"/>
      <point x="330" y="655" type="qcurve"/>
      <point x="280" y="652"/>
      <point x="181" y="645"/>
      <point x="130" y="638" type="qcurve"/>
      <point x="102" y="633"/>
      <point x="59" y="594"/>
      <point x="49" y="568" type="qcurve"/>
      <point x="47" y="559"/>
      <point x="43" y="542"/>
      <point x="41" y="534" type="qcurve" smooth="yes"/>
      <point x="36" y="517"/>
      <point x="29" y="485"/>
      <point x="26" y="468" type="qcurve"/>
      <point x="99" y="473"/>
      <point x="245" y="477"/>
      <point x="318" y="479" type="qcurve"/>
      <point x="318" y="488"/>
      <point x="320" y="506"/>
      <point x="320" y="515" type="qcurve" smooth="yes"/>
      <point x="320" y="523"/>
      <point x="322" y="541"/>
      <point x="322" y="550" type="qcurve"/>
      <point x="331" y="550"/>
      <point x="349" y="552"/>
      <point x="358" y="551" type="qcurve"/>
      <point x="406" y="553"/>
      <point x="499" y="552"/>
      <point x="547" y="550" type="qcurve"/>
      <point x="549" y="537"/>
      <point x="547" y="510"/>
      <point x="549" y="496" type="qcurve"/>
      <point x="549" y="491"/>
      <point x="550" y="484"/>
      <point x="550" y="479" type="qcurve" smooth="yes"/>
      <point x="550" y="465"/>
      <point x="551" y="437"/>
      <point x="551" y="422" type="qcurve"/>
      <point x="531" y="423"/>
      <point x="492" y="421"/>
      <point x="472" y="422" type="qcurve"/>
      <point x="355" y="422" type="line" smooth="yes"/>
      <point x="339" y="422"/>
      <point x="310" y="410"/>
      <point x="288" y="389"/>
      <point x="275" y="361"/>
      <point x="275" y="346" type="qcurve" smooth="yes"/>
      <point x="275" y="336"/>
      <point x="274" y="317"/>
      <point x="275" y="307" type="qcurve"/>
      <point x="275" y="293"/>
      <point x="275" y="264"/>
      <point x="277" y="250" type="qcurve"/>
      <point x="355" y="250" type="line"/>
      <point x="414" y="249"/>
      <point x="531" y="250"/>
      <point x="591" y="250" type="qcurve"/>
      <point x="591" y="264"/>
      <point x="592" y="292"/>
      <point x="592" y="307" type="qcurve"/>
      <point x="630" y="307" type="line"/>
      <point x="712" y="307" type="line" smooth="yes"/>
      <point x="729" y="307"/>
      <point x="762" y="308"/>
      <point x="779" y="307" type="qcurve"/>
      <point x="793" y="307"/>
      <point x="820" y="319"/>
      <point x="841" y="339"/>
      <point x="853" y="366"/>
      <point x="852" y="381" type="qcurve" smooth="yes"/>
      <point x="851" y="395"/>
      <point x="850" y="421"/>
      <point x="848" y="434" type="qcurve"/>
      <point x="848" y="441"/>
      <point x="845" y="454"/>
      <point x="845" y="461" type="qcurve" smooth="yes"/>
      <point x="845" y="469" type="line"/>
      <point x="843" y="477"/>
      <point x="840" y="493"/>
      <point x="838" y="502" type="qcurve"/>
      <point x="837" y="515" type="line"/>
      <point x="835" y="529"/>
      <point x="829" y="554"/>
      <point x="825" y="568" type="qcurve" smooth="yes"/>
      <point x="817" y="595"/>
      <point x="772" y="637"/>
      <point x="743" y="641" type="qcurve"/>
      <point x="735" y="641"/>
      <point x="719" y="644"/>
    </contour>
    <contour>
      <point x="711" y="654" type="line"/>
      <point x="717" y="654"/>
      <point x="726" y="653"/>
      <point x="730" y="652" type="qcurve" smooth="yes"/>
      <point x="735" y="651"/>
      <point x="744" y="651" type="qcurve"/>
      <point x="776" y="646"/>
      <point x="826" y="600"/>
      <point x="835" y="571" type="qcurve"/>
      <point x="838" y="559" type="line"/>
      <point x="857" y="548"/>
      <point x="885" y="513"/>
      <point x="891" y="493" type="qcurve" smooth="yes"/>
      <point x="895" y="480"/>
      <point x="901" y="455"/>
      <point x="903" y="439" type="qcurve"/>
      <point x="904" y="426" type="line"/>
      <point x="907" y="410" type="line" smooth="yes"/>
      <point x="908" y="404"/>
      <point x="909" y="394"/>
      <point x="911" y="391" type="qcurve"/>
      <point x="911" y="383" type="line" smooth="yes"/>
      <point x="911" y="375"/>
      <point x="912" y="371" type="qcurve" smooth="yes"/>
      <point x="914" y="363"/>
      <point x="914" y="358" type="qcurve" smooth="yes"/>
      <point x="914" y="353"/>
      <point x="916" y="326"/>
      <point x="917" y="316" type="qcurve"/>
      <point x="917" y="313"/>
      <point x="918" y="307"/>
      <point x="918" y="304" type="qcurve"/>
      <point x="919" y="287"/>
      <point x="906" y="256"/>
      <point x="882" y="233"/>
      <point x="850" y="219"/>
      <point x="834" y="219" type="qcurve"/>
      <point x="823" y="220"/>
      <point x="802" y="219"/>
      <point x="791" y="219" type="qcurve" smooth="yes"/>
      <point x="658" y="219" type="line"/>
      <point x="658" y="214"/>
      <point x="657" y="205"/>
      <point x="657" y="200" type="qcurve" smooth="yes"/>
      <point x="657" y="162" type="line"/>
      <point x="596" y="162" type="line"/>
      <point x="596" y="148"/>
      <point x="594" y="121"/>
      <point x="593" y="108" type="qcurve"/>
      <point x="653" y="108" type="line"/>
      <point x="652" y="74"/>
      <point x="649" y="12"/>
      <point x="645" y="-19" type="qcurve"/>
      <point x="627" y="-19" type="line" smooth="yes"/>
      <point x="621" y="-19"/>
      <point x="609" y="-19"/>
      <point x="602" y="-20" type="qcurve"/>
      <point x="577" y="-20" type="line" smooth="yes"/>
      <point x="565" y="-20"/>
      <point x="539" y="-21"/>
      <point x="527" y="-20" type="qcurve"/>
      <point x="490" y="-20"/>
      <point x="417" y="-20"/>
      <point x="382" y="-18" type="qcurve" smooth="yes"/>
      <point x="373" y="-17"/>
      <point x="353" y="-16"/>
      <point x="338" y="-16" type="qcurve"/>
      <point x="336" y="1"/>
      <point x="333" y="42"/>
      <point x="331" y="59" type="qcurve"/>
      <point x="329" y="59"/>
      <point x="328" y="60"/>
      <point x="326" y="60" type="qcurve"/>
      <point x="317" y="61"/>
      <point x="297" y="62"/>
      <point x="282" y="62" type="qcurve"/>
      <point x="280" y="81"/>
      <point x="277" y="126"/>
      <point x="275" y="144" type="qcurve" smooth="yes"/>
      <point x="271" y="187" type="line"/>
      <point x="278" y="187"/>
      <point x="303" y="186"/>
      <point x="311" y="186" type="qcurve"/>
      <point x="313" y="186"/>
      <point x="319" y="185"/>
      <point x="322" y="185" type="qcurve"/>
      <point x="321" y="197"/>
      <point x="321" y="217"/>
      <point x="321" y="228" type="qcurve" smooth="yes"/>
      <point x="321" y="240" type="line"/>
      <point x="268" y="240" type="line"/>
      <point x="266" y="261"/>
      <point x="265" y="292"/>
      <point x="265" y="307" type="qcurve" smooth="yes"/>
      <point x="265" y="346" type="line"/>
      <point x="264" y="368"/>
      <point x="277" y="388" type="qcurve"/>
      <point x="223" y="386"/>
      <point x="118" y="382"/>
      <point x="70" y="379" type="qcurve"/>
      <point x="74" y="402"/>
      <point x="82" y="445"/>
      <point x="87" y="459" type="qcurve"/>
      <point x="87" y="461" type="line"/>
      <point x="14" y="457" type="line"/>
      <point x="18" y="480"/>
      <point x="26" y="523"/>
      <point x="31" y="537" type="qcurve"/>
      <point x="33" y="545"/>
      <point x="38" y="564"/>
      <point x="39" y="569" type="qcurve"/>
      <point x="50" y="598"/>
      <point x="98" y="642"/>
      <point x="128" y="648" type="qcurve"/>
      <point x="179" y="655"/>
      <point x="279" y="662"/>
      <point x="329" y="665" type="qcurve"/>
      <point x="347" y="665" type="line" smooth="yes"/>
      <point x="352" y="665"/>
      <point x="360" y="666"/>
      <point x="365" y="666" type="qcurve" smooth="yes"/>
      <point x="370" y="666" type="line"/>
      <point x="385" y="667"/>
      <point x="420" y="668"/>
      <point x="435" y="668" type="qcurve" smooth="yes"/>
      <point x="488" y="668"/>
      <point x="594" y="665"/>
      <point x="646" y="661" type="qcurve"/>
      <point x="648" y="661"/>
      <point x="654" y="660"/>
      <point x="656" y="660" type="qcurve"/>
      <point x="664" y="660"/>
      <point x="676" y="659"/>
      <point x="681" y="658" type="qcurve"/>
      <point x="695" y="651"/>
      <point x="705" y="655"/>
      <point x="710" y="654" type="qcurve"/>
    </contour>
    <contour>
      <point x="541" y="432" type="line"/>
      <point x="541" y="437"/>
      <point x="540" y="446"/>
      <point x="540" y="451" type="qcurve" smooth="yes"/>
      <point x="540" y="463" type="line"/>
      <point x="526" y="464"/>
      <point x="500" y="464"/>
      <point x="486" y="464" type="qcurve" smooth="yes"/>
      <point x="468" y="464"/>
      <point x="431" y="464"/>
      <point x="413" y="463" type="qcurve"/>
      <point x="388" y="463" type="line"/>
      <point x="388" y="461"/>
      <point x="387" y="454"/>
      <point x="387" y="452" type="qcurve"/>
      <point x="387" y="447"/>
      <point x="386" y="441"/>
      <point x="386" y="437" type="qcurve" smooth="yes"/>
      <point x="386" y="432" type="line"/>
      <point x="472" y="432" type="line"/>
      <point x="483" y="431"/>
      <point x="502" y="432"/>
      <point x="512" y="432" type="qcurve" smooth="yes"/>
    </contour>
  </outline>
</glyph>
<glyph name="at" format="2">
  <advance width="1705"/>
  <unicode hex="0040"/>
  <outline>
    <contour>
      <point x="181" y="727" type="qcurve"/>
      <point x="143" y="722"/>
      <point x="117" y="692" type="qcurve"/>
      <point x="102" y="678"/>
      <point x="93" y="658" type="qcurve"/>
      <point x="27" y="497"/>
      <point x="15" y="149"/>
      <point x="73" y="-15" type="qcurve" smooth="yes"/>
      <point x="84" y="-44"/>
      <point x="134" y="-82"/>
      <point x="163" y="-88" type="qcurve"/>
      <point x="426" y="-117"/>
      <point x="948" y="-128"/>
      <point x="1213" y="-117" type="qcurve"/>
      <point x="1224" y="-63"/>
      <point x="1231" y="-11" type="qcurve"/>
      <point x="1008" y="-19"/>
      <point x="564" y="-16"/>
      <point x="341" y="-4" type="qcurve"/>
      <point x="310" y="158"/>
      <point x="316" y="485"/>
      <point x="351" y="646" type="qcurve"/>
      <point x="590" y="659"/>
      <point x="1065" y="660"/>
      <point x="1303" y="646" type="qcurve"/>
      <point x="1337" y="468"/>
      <point x="1336" y="287" type="qcurve"/>
      <point x="1316" y="288"/>
      <point x="1274" y="286"/>
      <point x="1254" y="287" type="qcurve"/>
      <point x="1255" y="353"/>
      <point x="1246" y="481"/>
      <point x="1239" y="547" type="qcurve"/>
      <point x="1050" y="553"/>
      <point x="674" y="554"/>
      <point x="483" y="549" type="qcurve"/>
      <point x="468" y="548"/>
      <point x="440" y="536"/>
      <point x="418" y="517"/>
      <point x="403" y="491"/>
      <point x="402" y="476" type="qcurve" smooth="yes"/>
      <point x="394" y="392"/>
      <point x="394" y="225"/>
      <point x="400" y="140" type="qcurve"/>
      <point x="403" y="110"/>
      <point x="450" y="68"/>
      <point x="480" y="67" type="qcurve" smooth="yes"/>
      <point x="691" y="62"/>
      <point x="1111" y="63"/>
      <point x="1322" y="68" type="qcurve"/>
      <point x="1318" y="22"/>
      <point x="1300" y="-67"/>
      <point x="1290" y="-112" type="qcurve"/>
      <point x="1340" y="-108"/>
      <point x="1438" y="-102"/>
      <point x="1488" y="-97" type="qcurve"/>
      <point x="1517" y="-92"/>
      <point x="1566" y="-52"/>
      <point x="1577" y="-25" type="qcurve"/>
      <point x="1634" y="142"/>
      <point x="1623" y="494"/>
      <point x="1562" y="658" type="qcurve"/>
      <point x="1556" y="666"/>
      <point x="1550" y="685"/>
      <point x="1542" y="691" type="qcurve"/>
      <point x="1530" y="705"/>
      <point x="1496" y="726"/>
      <point x="1476" y="728" type="qcurve" smooth="yes"/>
      <point x="1152" y="764"/>
      <point x="505" y="764"/>
    </contour>
    <contour>
      <point x="705" y="172" type="line"/>
      <point x="704" y="241"/>
      <point x="704" y="373"/>
      <point x="706" y="442" type="qcurve"/>
      <point x="942" y="442" type="line"/>
      <point x="942" y="373"/>
      <point x="943" y="241"/>
      <point x="942" y="172" type="qcurve"/>
    </contour>
    <contour>
      <point x="180" y="737" type="qcurve" smooth="yes"/>
      <point x="343" y="756"/>
      <point x="667" y="774"/>
      <point x="832" y="774" type="qcurve" smooth="yes"/>
      <point x="991" y="774"/>
      <point x="1320" y="755"/>
      <point x="1477" y="738" type="qcurve" smooth="yes"/>
      <point x="1499" y="736"/>
      <point x="1537" y="713"/>
      <point x="1550" y="697" type="qcurve" smooth="yes"/>
      <point x="1555" y="692"/>
      <point x="1560" y="682"/>
      <point x="1563" y="676" type="qcurve" smooth="yes"/>
      <point x="1565" y="671"/>
      <point x="1568" y="665"/>
      <point x="1570" y="663" type="qcurve"/>
      <point x="1577" y="644" type="line"/>
      <point x="1593" y="634"/>
      <point x="1606" y="619" type="qcurve" smooth="yes"/>
      <point x="1611" y="614"/>
      <point x="1616" y="604"/>
      <point x="1619" y="598" type="qcurve" smooth="yes"/>
      <point x="1621" y="593"/>
      <point x="1624" y="587"/>
      <point x="1626" y="585" type="qcurve"/>
      <point x="1660" y="494"/>
      <point x="1694" y="307"/>
      <point x="1694" y="213" type="qcurve" smooth="yes"/>
      <point x="1694" y="132"/>
      <point x="1669" y="-29"/>
      <point x="1642" y="-107" type="qcurve"/>
      <point x="1630" y="-136"/>
      <point x="1577" y="-179"/>
      <point x="1545" y="-185" type="qcurve"/>
      <point x="1512" y="-189"/>
      <point x="1445" y="-193"/>
      <point x="1412" y="-195" type="qcurve" smooth="yes"/>
      <point x="1395" y="-196"/>
      <point x="1349" y="-199"/>
      <point x="1332" y="-201" type="qcurve"/>
      <point x="1339" y="-174" type="line"/>
      <point x="1351" y="-117" type="line"/>
      <point x="1292" y="-121" type="line"/>
      <point x="1277" y="-205" type="line"/>
      <point x="1188" y="-209"/>
      <point x="1005" y="-213"/>
      <point x="916" y="-213" type="qcurve" smooth="yes"/>
      <point x="739" y="-213"/>
      <point x="390" y="-196"/>
      <point x="216" y="-176" type="qcurve"/>
      <point x="185" y="-170"/>
      <point x="131" y="-128"/>
      <point x="120" y="-96" type="qcurve" smooth="yes"/>
      <point x="114" y="-79" type="line"/>
      <point x="77" y="-57"/>
      <point x="64" y="-18" type="qcurve" smooth="yes"/>
      <point x="37" y="58"/>
      <point x="11" y="214"/>
      <point x="11" y="292" type="qcurve" smooth="yes"/>
      <point x="11" y="387"/>
      <point x="48" y="574"/>
      <point x="84" y="662" type="qcurve" smooth="yes"/>
      <point x="88" y="671"/>
      <point x="103" y="691"/>
      <point x="109" y="698" type="qcurve" smooth="yes"/>
      <point x="123" y="714"/>
      <point x="159" y="735"/>
    </contour>
    <contour>
      <point x="932" y="354" type="line"/>
      <point x="771" y="354" type="line"/>
      <point x="769" y="322"/>
      <point x="770" y="261"/>
      <point x="770" y="229" type="qcurve" smooth="yes"/>
      <point x="770" y="182" type="line"/>
      <point x="932" y="182" type="line"/>
    </contour>
    <contour>
      <point x="1326" y="297" type="line"/>
      <point x="1326" y="363"/>
      <point x="1317" y="495"/>
      <point x="1307" y="561" type="qcurve"/>
      <point x="1203" y="566"/>
      <point x="995" y="571"/>
      <point x="890" y="571" type="qcurve" smooth="yes"/>
      <point x="769" y="571"/>
      <point x="536" y="566"/>
      <point x="415" y="559" type="qcurve"/>
      <point x="406" y="515" type="line"/>
      <point x="419" y="534"/>
      <point x="460" y="557"/>
      <point x="482" y="559" type="qcurve"/>
      <point x="568" y="561"/>
      <point x="739" y="564"/>
      <point x="824" y="564" type="qcurve" smooth="yes"/>
      <point x="929" y="564"/>
      <point x="1144" y="560"/>
      <point x="1248" y="557" type="qcurve"/>
      <point x="1250" y="537"/>
      <point x="1254" y="499"/>
      <point x="1256" y="480" type="qcurve"/>
      <point x="1268" y="480"/>
      <point x="1292" y="479"/>
      <point x="1304" y="479" type="qcurve"/>
      <point x="1309" y="432"/>
      <point x="1316" y="342"/>
      <point x="1318" y="297" type="qcurve"/>
    </contour>
    <contour>
      <point x="393" y="3" type="qcurve"/>
      <point x="436" y="0"/>
      <point x="480" y="0" type="qcurve"/>
      <point x="466" y="11"/>
      <point x="448" y="42"/>
      <point x="446" y="61" type="qcurve"/>
      <point x="446" y="62"/>
      <point x="445" y="63"/>
      <point x="445" y="64" type="qcurve"/>
      <point x="423" y="74"/>
      <point x="392" y="114"/>
      <point x="390" y="139" type="qcurve" smooth="yes"/>
      <point x="384" y="218"/>
      <point x="384" y="299" type="qcurve" smooth="yes"/>
      <point x="384" y="351" type="line"/>
      <point x="381" y="317"/>
      <point x="379" y="250"/>
      <point x="379" y="216" type="qcurve" smooth="yes"/>
      <point x="379" y="162"/>
      <point x="385" y="56"/>
    </contour>
    <contour>
      <point x="1230" y="-81" type="line"/>
      <point x="1287" y="-79" type="line"/>
      <point x="1299" y="-22" type="line"/>
      <point x="1284" y="-22"/>
      <point x="1254" y="-22"/>
      <point x="1240" y="-23" type="qcurve"/>
    </contour>
  </outline>
</glyph>
<glyph name="A" format="2">
  <advance width="933"/>
  <unicode hex="0041"/>
  <outline>
    <contour>
      <point x="133" y="638" type="qcurve"/>
      <point x="441" y="676"/>
      <point x="747" y="641" type="qcurve"/>
      <point x="776" y="637"/>
      <point x="820" y="595"/>
      <point x="828" y="568" type="qcurve"/>
      <point x="859" y="450"/>
      <point x="854" y="206"/>
      <point x="821" y="89" type="qcurve"/>
      <point x="753" y="79"/>
      <point x="617" y="70"/>
      <point x="548" y="68" type="qcurve"/>
      <point x="551" y="128"/>
      <point x="555" y="247"/>
      <point x="555" y="307" type="qcurve"/>
      <point x="319" y="307" type="line"/>
      <point x="319" y="247"/>
      <point x="325" y="130"/>
      <point x="330" y="70" type="qcurve"/>
      <point x="261" y="73"/>
      <point x="125" y="85"/>
      <point x="57" y="96" type="qcurve"/>
      <point x="22" y="211"/>
      <point x="17" y="451"/>
      <point x="52" y="568" type="qcurve"/>
      <point x="62" y="594"/>
      <point x="105" y="633"/>
    </contour>
    <contour>
      <point x="554" y="422" type="qcurve"/>
      <point x="553" y="455"/>
      <point x="552" y="518"/>
      <point x="550" y="550" type="qcurve"/>
      <point x="493" y="552"/>
      <point x="382" y="552"/>
      <point x="325" y="550" type="qcurve"/>
      <point x="323" y="518"/>
      <point x="320" y="454"/>
      <point x="319" y="421" type="qcurve"/>
      <point x="379" y="422"/>
      <point x="494" y="424"/>
    </contour>
    <contour>
      <point x="131" y="648" type="line"/>
      <point x="100" y="642"/>
      <point x="53" y="599"/>
      <point x="42" y="571" type="qcurve"/>
      <point x="25" y="515"/>
      <point x="10" y="401"/>
      <point x="10" y="342" type="qcurve" smooth="yes"/>
      <point x="10" y="214"/>
      <point x="49" y="87" type="qcurve"/>
      <point x="86" y="81" type="line"/>
      <point x="90" y="63"/>
      <point x="99" y="27"/>
      <point x="105" y="9" type="qcurve"/>
      <point x="241" y="-12"/>
      <point x="397" y="-18" type="qcurve"/>
      <point x="392" y="39"/>
      <point x="386" y="162"/>
      <point x="385" y="219" type="qcurve"/>
      <point x="544" y="219" type="line"/>
      <point x="537" y="58" type="line"/>
      <point x="552" y="58"/>
      <point x="582" y="58"/>
      <point x="597" y="59" type="qcurve"/>
      <point x="593" y="-20" type="line"/>
      <point x="669" y="-18"/>
      <point x="814" y="-8"/>
      <point x="885" y="2" type="qcurve"/>
      <point x="903" y="68"/>
      <point x="923" y="199"/>
      <point x="923" y="265" type="qcurve" smooth="yes"/>
      <point x="923" y="382"/>
      <point x="894" y="493" type="qcurve"/>
      <point x="887" y="513"/>
      <point x="860" y="549"/>
      <point x="841" y="560" type="qcurve"/>
      <point x="838" y="571" type="line"/>
      <point x="829" y="600"/>
      <point x="780" y="646"/>
      <point x="748" y="651" type="qcurve"/>
      <point x="675" y="659"/>
      <point x="528" y="668"/>
      <point x="453" y="668" type="qcurve" smooth="yes"/>
      <point x="372" y="668"/>
      <point x="212" y="658"/>
      <point x="132" y="648" type="qcurve"/>
    </contour>
    <contour>
      <point x="475" y="433" type="qcurve" smooth="yes"/>
      <point x="455" y="433"/>
      <point x="410" y="433"/>
      <point x="389" y="432" type="qcurve"/>
      <point x="389" y="440"/>
      <point x="390" y="454"/>
      <point x="391" y="462" type="qcurve"/>
      <point x="422" y="463"/>
      <point x="473" y="464"/>
      <point x="504" y="464" type="qcurve" smooth="yes"/>
      <point x="542" y="464" type="line"/>
      <point x="542" y="461"/>
      <point x="543" y="456"/>
      <point x="543" y="454" type="qcurve"/>
      <point x="543" y="449"/>
      <point x="543" y="438"/>
      <point x="544" y="432" type="qcurve"/>
      <point x="526" y="433"/>
      <point x="492" y="433"/>
    </contour>
  </outline>
</glyph>
<glyph name="B" format="2">
  <advance width="933"/>
  <unicode hex="0042"/>
  <outline>
    <contour>
      <point x="682" y="648" type="qcurve"/>
      <point x="674" y="650"/>
      <point x="657" y="650"/>
      <point x="649" y="651" type="qcurve" smooth="yes"/>
      <point x="641" y="652"/>
      <point x="622" y="651"/>
      <point x="614" y="653" type="qcurve"/>
      <point x="553" y="657"/>
      <point x="430" y="659"/>
      <point x="369" y="656" type="qcurve"/>
      <point x="361" y="656"/>
      <point x="342" y="655"/>
      <point x="334" y="655" type="qcurve"/>
      <point x="272" y="652"/>
      <point x="149" y="641"/>
      <point x="88" y="630" type="qcurve"/>
      <point x="71" y="629" type="line"/>
      <point x="25" y="500"/>
      <point x="16" y="227"/>
      <point x="58" y="96" type="qcurve"/>
      <point x="117" y="87"/>
      <point x="235" y="76"/>
      <point x="295" y="72" type="qcurve"/>
      <point x="304" y="72"/>
      <point x="322" y="71"/>
      <point x="331" y="70" type="qcurve" smooth="yes"/>
      <point x="367" y="68"/>
      <point x="439" y="68"/>
      <point x="476" y="68" type="qcurve"/>
      <point x="494" y="67"/>
      <point x="531" y="68"/>
      <point x="549" y="68" type="qcurve"/>
      <point x="619" y="70" type="line"/>
      <point x="654" y="72"/>
      <point x="722" y="77"/>
      <point x="757" y="79" type="qcurve"/>
      <point x="785" y="86"/>
      <point x="831" y="125"/>
      <point x="839" y="153" type="qcurve" smooth="yes"/>
      <point x="841" y="162"/>
      <point x="844" y="179"/>
      <point x="846" y="187" type="qcurve"/>
      <point x="853" y="255" type="line"/>
      <point x="853" y="264" type="line"/>
      <point x="854" y="265" type="line"/>
      <point x="854" y="274" type="line"/>
      <point x="855" y="284" type="line"/>
      <point x="856" y="290" type="line"/>
      <point x="856" y="325"/>
      <point x="830" y="346" type="qcurve" smooth="yes"/>
      <point x="821" y="354"/>
      <point x="797" y="364"/>
      <point x="784" y="363" type="qcurve"/>
      <point x="804" y="362"/>
      <point x="837" y="384"/>
      <point x="846" y="401" type="qcurve"/>
      <point x="851" y="408"/>
      <point x="852" y="425"/>
      <point x="852" y="434" type="qcurve" smooth="yes"/>
      <point x="852" y="441"/>
      <point x="849" y="454"/>
      <point x="849" y="461" type="qcurve" smooth="yes"/>
      <point x="849" y="469" type="line"/>
      <point x="847" y="477"/>
      <point x="844" y="493"/>
      <point x="842" y="502" type="qcurve"/>
      <point x="841" y="515" type="line"/>
      <point x="839" y="524" type="line"/>
      <point x="837" y="534" type="line"/>
      <point x="836" y="536" type="line"/>
      <point x="834" y="544"/>
      <point x="831" y="560"/>
      <point x="829" y="568" type="qcurve" smooth="yes"/>
      <point x="821" y="595"/>
      <point x="776" y="637"/>
      <point x="747" y="641" type="qcurve" smooth="yes"/>
      <point x="731" y="643"/>
      <point x="699" y="647"/>
    </contour>
    <contour>
      <point x="556" y="287" type="line"/>
      <point x="555" y="273"/>
      <point x="555" y="246"/>
      <point x="555" y="232" type="qcurve"/>
      <point x="553" y="175" type="line"/>
      <point x="495" y="175"/>
      <point x="381" y="174"/>
      <point x="323" y="176" type="qcurve"/>
      <point x="321" y="208"/>
      <point x="320" y="275"/>
      <point x="320" y="307" type="qcurve"/>
      <point x="358" y="307" type="line"/>
      <point x="476" y="307" type="line"/>
      <point x="556" y="307" type="line"/>
    </contour>
    <contour>
      <point x="552" y="524" type="qcurve" smooth="yes"/>
      <point x="552" y="517"/>
      <point x="552" y="504"/>
      <point x="553" y="496" type="qcurve"/>
      <point x="553" y="478"/>
      <point x="555" y="442"/>
      <point x="555" y="422" type="qcurve"/>
      <point x="535" y="423"/>
      <point x="496" y="421"/>
      <point x="476" y="422" type="qcurve"/>
      <point x="359" y="422" type="line" smooth="yes"/>
      <point x="348" y="422"/>
      <point x="330" y="421"/>
      <point x="320" y="421" type="qcurve"/>
      <point x="321" y="454"/>
      <point x="324" y="518"/>
      <point x="326" y="550" type="qcurve"/>
      <point x="335" y="550"/>
      <point x="353" y="552"/>
      <point x="362" y="551" type="qcurve"/>
      <point x="410" y="553"/>
      <point x="503" y="552"/>
      <point x="551" y="550" type="qcurve"/>
      <point x="552" y="544"/>
      <point x="552" y="531"/>
    </contour>
    <contour>
      <point x="683" y="658" type="qcurve" smooth="yes"/>
      <point x="694" y="657"/>
      <point x="715" y="656"/>
      <point x="724" y="654" type="qcurve"/>
      <point x="723" y="654" type="line"/>
      <point x="748" y="651" type="line"/>
      <point x="780" y="646"/>
      <point x="829" y="602"/>
      <point x="838" y="573" type="qcurve"/>
      <point x="840" y="560" type="line"/>
      <point x="860" y="549"/>
      <point x="887" y="515"/>
      <point x="894" y="495" type="qcurve"/>
      <point x="898" y="476" type="line"/>
      <point x="903" y="458" type="line"/>
      <point x="905" y="446" type="line"/>
      <point x="907" y="437" type="line"/>
      <point x="908" y="426" type="line"/>
      <point x="911" y="410" type="line" smooth="yes"/>
      <point x="912" y="404"/>
      <point x="913" y="394"/>
      <point x="915" y="391" type="qcurve"/>
      <point x="915" y="383" type="line" smooth="yes"/>
      <point x="915" y="375"/>
      <point x="916" y="371" type="qcurve" smooth="yes"/>
      <point x="917" y="367"/>
      <point x="918" y="361"/>
      <point x="918" y="356" type="qcurve" smooth="yes"/>
      <point x="918" y="345"/>
      <point x="916" y="326"/>
      <point x="910" y="317" type="qcurve"/>
      <point x="911" y="318" type="line"/>
      <point x="901" y="298"/>
      <point x="878" y="285" type="qcurve"/>
      <point x="892" y="276" type="line"/>
      <point x="922" y="251"/>
      <point x="922" y="212" type="qcurve"/>
      <point x="921" y="206" type="line"/>
      <point x="920" y="195" type="line"/>
      <point x="919" y="185" type="line"/>
      <point x="919" y="176" type="line"/>
      <point x="912" y="106" type="line"/>
      <point x="909" y="92" type="line"/>
      <point x="905" y="70" type="line"/>
      <point x="897" y="41"/>
      <point x="846" y="-1"/>
      <point x="815" y="-9" type="qcurve"/>
      <point x="798" y="-10"/>
      <point x="762" y="-12"/>
      <point x="745" y="-14" type="qcurve" smooth="yes"/>
      <point x="728" y="-16"/>
      <point x="692" y="-17"/>
      <point x="675" y="-18" type="qcurve"/>
      <point x="605" y="-20" type="line"/>
      <point x="581" y="-20" type="line" smooth="yes"/>
      <point x="569" y="-20"/>
      <point x="543" y="-21"/>
      <point x="531" y="-20" type="qcurve"/>
      <point x="494" y="-20"/>
      <point x="421" y="-20"/>
      <point x="386" y="-18" type="qcurve" smooth="yes"/>
      <point x="377" y="-17"/>
      <point x="359" y="-16"/>
      <point x="350" y="-16" type="qcurve"/>
      <point x="290" y="-12"/>
      <point x="169" y="-1"/>
      <point x="106" y="9" type="qcurve"/>
      <point x="100" y="27"/>
      <point x="91" y="63"/>
      <point x="86" y="81" type="qcurve"/>
      <point x="50" y="87" type="line"/>
      <point x="11" y="211"/>
      <point x="11" y="340" type="qcurve" smooth="yes"/>
      <point x="11" y="491"/>
      <point x="64" y="639" type="qcurve"/>
      <point x="86" y="640" type="line"/>
      <point x="113" y="644"/>
      <point x="176" y="652"/>
      <point x="241" y="658"/>
      <point x="305" y="663"/>
      <point x="334" y="665" type="qcurve"/>
      <point x="351" y="665" type="line" smooth="yes"/>
      <point x="356" y="665"/>
      <point x="364" y="666"/>
      <point x="369" y="666" type="qcurve"/>
      <point x="389" y="667"/>
      <point x="439" y="668"/>
      <point x="459" y="668" type="qcurve" smooth="yes"/>
      <point x="498" y="668"/>
      <point x="577" y="665"/>
      <point x="615" y="663" type="qcurve"/>
      <point x="620" y="662"/>
      <point x="630" y="662"/>
      <point x="635" y="662" type="qcurve" smooth="yes"/>
      <point x="639" y="662"/>
      <point x="646" y="661"/>
      <point x="649" y="661" type="qcurve" smooth="yes"/>
      <point x="652" y="661"/>
      <point x="657" y="660"/>
      <point x="660" y="660" type="qcurve" smooth="yes"/>
      <point x="666" y="660"/>
      <point x="678" y="659"/>
    </contour>
    <contour>
      <point x="543" y="185" type="line"/>
      <point x="543" y="193"/>
      <point x="544" y="210"/>
      <point x="545" y="219" type="qcurve"/>
      <point x="386" y="219" type="line"/>
      <point x="386" y="185" type="line"/>
      <point x="413" y="184"/>
      <point x="467" y="185"/>
      <point x="495" y="185" type="qcurve" smooth="yes"/>
    </contour>
    <contour>
      <point x="545" y="432" type="line"/>
      <point x="545" y="439"/>
      <point x="545" y="452"/>
      <point x="544" y="459" type="qcurve"/>
      <point x="544" y="463" type="line"/>
      <point x="530" y="464"/>
      <point x="504" y="464"/>
      <point x="490" y="464" type="qcurve" smooth="yes"/>
      <point x="472" y="464"/>
      <point x="435" y="464"/>
      <point x="417" y="463" type="qcurve"/>
      <point x="392" y="463" type="line"/>
      <point x="391" y="455"/>
      <point x="390" y="440"/>
      <point x="390" y="432" type="qcurve"/>
      <point x="476" y="432" type="line"/>
      <point x="487" y="431"/>
      <point x="506" y="432"/>
      <point x="516" y="432" type="qcurve" smooth="yes"/>
    </contour>
  </outline>
</glyph>
